STARTFONT 2.1
COMMENT
COMMENT Converted from OpenType font "MFXinRan_Noncommercial-Regular.ttf" by "otf2bdf 3.0".
COMMENT
FONT -FreeType-MF XinRan(Noncommercial)-Medium-R-Normal--33-240-100-100-P-300-ISO10646-1
SIZE 24 100 100
FONTBOUNDINGBOX 35 41 0 -10
STARTPROPERTIES 19
FOUNDRY "FreeType"
FAMILY_NAME "MF XinRan(Noncommercial)"
WEIGHT_NAME "Medium"
SLANT "R"
SETWIDTH_NAME "Normal"
ADD_STYLE_NAME ""
PIXEL_SIZE 33
POINT_SIZE 240
RESOLUTION_X 100
RESOLUTION_Y 100
SPACING "P"
AVERAGE_WIDTH 300
CHARSET_REGISTRY "ISO10646"
CHARSET_ENCODING "1"
FONT_ASCENT 29
FONT_DESCENT 3
COPYRIGHT "© 2018 SN. All rights reserved."
_OTF_FONTFILE "MFXinRan_Noncommercial-Regular.ttf"
_OTF_PSNAME "MF XinRan(Noncommercial)-Regular"
ENDPROPERTIES
CHARS 7226
STARTCHAR 0020
ENCODING 32
SWIDTH 240 0
DWIDTH 8 0
BBX 0 0 0 0
BITMAP
ENDCHAR
STARTCHAR 0021
ENCODING 33
SWIDTH 240 0
DWIDTH 8 0
BBX 6 28 1 -2
BITMAP
F8
F8
F8
F8
F8
F8
F8
F8
F8
F8
F8
F8
F8
F8
F8
F8
F8
F8
F8
F8
00
00
78
FC
FC
FC
FC
78
ENDCHAR
STARTCHAR 0022
ENCODING 34
SWIDTH 450 0
DWIDTH 15 0
BBX 12 7 2 20
BITMAP
7DF0
7DF0
7DF0
7DF0
FBE0
F3C0
E780
ENDCHAR
STARTCHAR 0023
ENCODING 35
SWIDTH 780 0
DWIDTH 26 0
BBX 24 26 1 0
BITMAP
01F87C
01F07C
01F07C
01F0FC
03F0F8
03E0F8
7FFFFF
7FFFFF
7FFFFF
07C1F0
07C3F0
0FC3E0
0F83E0
0F83E0
0F87E0
FFFFFE
FFFFFE
FFFFFE
1F0FC0
3F0F80
3E0F80
3E1F80
7E1F00
7E1F00
7C1F00
7C3E00
ENDCHAR
STARTCHAR 0024
ENCODING 36
SWIDTH 690 0
DWIDTH 23 0
BBX 21 28 1 -1
BITMAP
00F800
00F800
7FFFF0
FFFFF8
FFFFF8
F8F8F8
F8F8F8
F8F800
F8F800
F8F800
F8F800
F8F800
FFFFC0
FFFFF0
7FFFF8
00F8F8
00F8F8
00F8F8
00F8F8
F8F8F8
F8F8F8
F8F8F8
FFFFF8
FFFFF8
7FFFF0
00F800
00F800
00E000
ENDCHAR
STARTCHAR 0025
ENCODING 37
SWIDTH 930 0
DWIDTH 31 0
BBX 29 27 1 -1
BITMAP
000003E0
7FC007C0
FFE00FC0
FFE01F80
FBE03F00
FBE03E00
FBE07C00
FBE0FC00
FBE1F800
FFE3F000
FFE3E000
3FC7C000
000FC000
001F8000
003F0000
007E0FE0
007C3FF8
00F83FF8
01F83EF8
03F03EF8
07E03EF8
0FC03EF8
0F803EF8
1F803EF8
3F003FF8
7E003FF8
1C001FF0
ENDCHAR
STARTCHAR 0026
ENCODING 38
SWIDTH 870 0
DWIDTH 29 0
BBX 26 26 2 -1
BITMAP
3FFFC000
7FFFE000
7FFFE000
7C03E000
7C03E000
7C03E000
7C03E000
7C03E000
7C03E000
7C03E000
7C03E000
7FFFC000
7FFFE3C0
FFFFE380
F803F780
F803FF00
F801FE00
F801FC00
F800FC00
F800FE00
F800FE00
F800FF00
F801FF80
FFFFDF80
FFFF9FC0
7FFF0FC0
ENDCHAR
STARTCHAR 0027
ENCODING 39
SWIDTH 270 0
DWIDTH 9 0
BBX 6 7 2 20
BITMAP
7C
7C
7C
78
78
F0
E0
ENDCHAR
STARTCHAR 0028
ENCODING 40
SWIDTH 300 0
DWIDTH 10 0
BBX 8 28 1 -2
BITMAP
3F
3F
3E
7E
7C
7C
7C
7C
F8
F8
F8
F8
F8
F8
F8
F8
F8
F8
F8
F8
7C
7C
7C
7E
7E
3E
3F
1F
ENDCHAR
STARTCHAR 0029
ENCODING 41
SWIDTH 300 0
DWIDTH 10 0
BBX 8 28 1 -2
BITMAP
F8
FC
7C
7C
7E
3E
3E
3E
3F
1F
1F
1F
1F
1F
1F
1F
1F
1F
1F
3F
3E
3E
3E
7E
7C
7C
FC
F8
ENDCHAR
STARTCHAR 002A
ENCODING 42
SWIDTH 420 0
DWIDTH 14 0
BBX 13 12 1 16
BITMAP
0700
0700
0700
7770
FFF8
7FF0
0F80
1F80
1DC0
3DE0
38E0
1040
ENDCHAR
STARTCHAR 002B
ENCODING 43
SWIDTH 720 0
DWIDTH 24 0
BBX 24 23 0 0
BITMAP
003E00
003E00
003E00
003E00
003E00
003E00
003E00
003E00
003E00
003E00
FFFFFF
FFFFFF
FFFFFF
003E00
003E00
003E00
003E00
003E00
003E00
003E00
003E00
003E00
003E00
ENDCHAR
STARTCHAR 002C
ENCODING 44
SWIDTH 270 0
DWIDTH 9 0
BBX 6 7 2 -3
BITMAP
7C
7C
7C
78
78
F0
E0
ENDCHAR
STARTCHAR 002D
ENCODING 45
SWIDTH 840 0
DWIDTH 28 0
BBX 24 3 2 11
BITMAP
FFFFFF
FFFFFF
FFFFFF
ENDCHAR
STARTCHAR 002E
ENCODING 46
SWIDTH 240 0
DWIDTH 8 0
BBX 6 6 1 -2
BITMAP
78
FC
FC
FC
FC
78
ENDCHAR
STARTCHAR 002F
ENCODING 47
SWIDTH 420 0
DWIDTH 14 0
BBX 14 28 0 -1
BITMAP
007C
00F8
00F8
00F8
01F8
01F0
01F0
03F0
03E0
03E0
03E0
07C0
07C0
07C0
0F80
0F80
0F80
1F80
1F00
1F00
1F00
3E00
3E00
3E00
7C00
7C00
7C00
F800
ENDCHAR
STARTCHAR 0030
ENCODING 48
SWIDTH 660 0
DWIDTH 22 0
BBX 18 25 2 -1
BITMAP
7FFF80
FFFFC0
FFFFC0
F807C0
F807C0
F807C0
F807C0
F807C0
F807C0
F807C0
F807C0
F807C0
F807C0
F807C0
F807C0
F807C0
F807C0
F807C0
F807C0
F807C0
F807C0
F807C0
FFFFC0
FFFFC0
7FFF80
ENDCHAR
STARTCHAR 0031
ENCODING 49
SWIDTH 480 0
DWIDTH 16 0
BBX 14 25 1 -1
BITMAP
7F80
7FC0
7FC0
07C0
07C0
07C0
07C0
07C0
07C0
07C0
07C0
07C0
07C0
07C0
07C0
07C0
07C0
07C0
07C0
07C0
07C0
07C0
FFFC
FFFC
FFFC
ENDCHAR
STARTCHAR 0032
ENCODING 50
SWIDTH 630 0
DWIDTH 21 0
BBX 18 25 1 -1
BITMAP
FFFF80
FFFFC0
FFFFC0
0007C0
0007C0
0007C0
0007C0
0007C0
0007C0
0007C0
0007C0
7FFFC0
FFFFC0
FFFF00
F80000
F80000
F80000
F80000
F80000
F80000
F80000
F80000
FFFFC0
FFFFC0
7FFFC0
ENDCHAR
STARTCHAR 0033
ENCODING 51
SWIDTH 630 0
DWIDTH 21 0
BBX 18 25 1 -1
BITMAP
FFFF80
FFFFC0
FFFFC0
0007C0
0007C0
0007C0
0007C0
0007C0
0007C0
0007C0
0007C0
7FFFC0
7FFFC0
7FFFC0
0007C0
0007C0
0007C0
0007C0
0007C0
0007C0
0007C0
0007C0
FFFFC0
FFFFC0
FFFF80
ENDCHAR
STARTCHAR 0034
ENCODING 52
SWIDTH 660 0
DWIDTH 22 0
BBX 20 25 1 -1
BITMAP
1F0F80
1F0F80
1F0F80
1E0F80
3E0F80
3E0F80
3E0F80
3E0F80
3C0F80
7C0F80
7C0F80
7C0F80
7C0F80
7C0F80
780F80
F80F80
F80F80
FFFFF0
7FFFF0
000F80
000F80
000F80
000F80
000F80
000E00
ENDCHAR
STARTCHAR 0035
ENCODING 53
SWIDTH 630 0
DWIDTH 21 0
BBX 18 25 1 0
BITMAP
F80000
FFFFC0
FFFFC0
FFFFC0
F80000
F80000
F80000
F80000
F80000
F80000
F80000
FFFE00
FFFFC0
7FFFC0
0007C0
0007C0
0007C0
0007C0
0007C0
0007C0
0007C0
0007C0
FFFFC0
FFFFC0
FFFF80
ENDCHAR
STARTCHAR 0036
ENCODING 54
SWIDTH 630 0
DWIDTH 21 0
BBX 18 25 2 -1
BITMAP
7FFFC0
FFFFC0
FFFFC0
F80000
F80000
F80000
F80000
F80000
F80000
F80000
F80000
FFFF80
FFFFC0
FFFFC0
F807C0
F807C0
F807C0
F807C0
F807C0
F807C0
F807C0
F807C0
FFFFC0
FFFFC0
FFFF80
ENDCHAR
STARTCHAR 0037
ENCODING 55
SWIDTH 570 0
DWIDTH 19 0
BBX 18 25 0 -1
BITMAP
FFFF80
FFFFC0
FFFFC0
0007C0
000780
000F80
000F80
001F00
001F00
001E00
003E00
003E00
007C00
007C00
007800
00F800
00F800
00F000
01F000
01E000
03E000
03E000
03C000
07C000
078000
ENDCHAR
STARTCHAR 0038
ENCODING 56
SWIDTH 660 0
DWIDTH 22 0
BBX 18 25 2 -1
BITMAP
7FFF80
FFFFC0
FFFFC0
F807C0
F807C0
F807C0
F807C0
F807C0
F807C0
F807C0
F807C0
7FFF80
7FFF80
FFFFC0
F807C0
F807C0
F807C0
F807C0
F807C0
F807C0
F807C0
F807C0
FFFFC0
FFFFC0
7FFF80
ENDCHAR
STARTCHAR 0039
ENCODING 57
SWIDTH 630 0
DWIDTH 21 0
BBX 18 25 1 -1
BITMAP
7FFF80
FFFFC0
FFFFC0
F807C0
F807C0
F807C0
F807C0
F807C0
F807C0
F807C0
F807C0
F807C0
FFFFC0
FFFFC0
7FFFC0
0007C0
0007C0
0007C0
0007C0
0007C0
0007C0
0007C0
FFFFC0
FFFFC0
FFFF80
ENDCHAR
STARTCHAR 003A
ENCODING 58
SWIDTH 240 0
DWIDTH 8 0
BBX 6 21 1 -1
BITMAP
78
FC
FC
FC
FC
78
00
00
00
00
00
00
00
00
00
78
FC
FC
FC
FC
78
ENDCHAR
STARTCHAR 003B
ENCODING 59
SWIDTH 270 0
DWIDTH 9 0
BBX 7 22 1 -2
BITMAP
3C
7E
7E
7E
7E
3C
00
00
00
00
00
00
00
00
00
3E
3E
3E
3C
7C
78
E0
ENDCHAR
STARTCHAR 003C
ENCODING 60
SWIDTH 420 0
DWIDTH 14 0
BBX 12 17 1 4
BITMAP
03F0
07E0
0FC0
1F80
3F00
7F00
7E00
FC00
F800
FC00
7E00
3F00
1F00
1F80
0FC0
07E0
03F0
ENDCHAR
STARTCHAR 003D
ENCODING 61
SWIDTH 780 0
DWIDTH 26 0
BBX 23 13 2 6
BITMAP
FFFFFE
FFFFFE
FFFFFE
000000
000000
000000
000000
000000
000000
000000
FFFFFE
FFFFFE
FFFFFE
ENDCHAR
STARTCHAR 003E
ENCODING 62
SWIDTH 420 0
DWIDTH 14 0
BBX 11 17 2 4
BITMAP
F800
FC00
7E00
3F00
1F80
0FC0
07E0
07E0
03E0
07E0
0FC0
0F80
1F80
3F00
7E00
FC00
F800
ENDCHAR
STARTCHAR 003F
ENCODING 63
SWIDTH 600 0
DWIDTH 20 0
BBX 18 28 1 -2
BITMAP
FFFF80
FFFFC0
FFFFC0
F807C0
F807C0
F807C0
0007C0
0007C0
0007C0
0007C0
0007C0
01FFC0
03FFC0
03FF80
03E000
03E000
03E000
03E000
03E000
03E000
000000
000000
03C000
07E000
07E000
07E000
07E000
03C000
ENDCHAR
STARTCHAR 0040
ENCODING 64
SWIDTH 960 0
DWIDTH 32 0
BBX 28 24 2 0
BITMAP
7FFFFFE0
FFFFFFF0
FFFFFFF0
F80001F0
F80001F0
F9FFF1F0
F9FFF9F0
F9FFF9F0
F800F9F0
F800F9F0
F8FFF9F0
F9FFF9F0
F9FFF9F0
F9F0F9F0
F9F0F9F0
F9F0F9F0
F9FFFFF0
F9FFFFF0
F87FFFC0
F8000000
F8000000
FFFFFFF0
FFFFFFF0
7FFFFFF0
ENDCHAR
STARTCHAR 0041
ENCODING 65
SWIDTH 810 0
DWIDTH 27 0
BBX 25 25 1 -2
BITMAP
007E0000
007F0000
00FF0000
00FF8000
00F78000
01F7C000
01F7C000
03E3C000
03E3E000
03C1E000
07C1F000
07C1F000
0F80F800
0F80F800
0F807800
1FFFFC00
1FFFFC00
3FFFFE00
3E003E00
3E003E00
7C001F00
7C001F00
F8000F80
F8000F80
F8000F80
ENDCHAR
STARTCHAR 0042
ENCODING 66
SWIDTH 810 0
DWIDTH 27 0
BBX 23 26 2 -1
BITMAP
F80000
FFFFFE
FFFFFE
FFFFFE
F8003E
F8003E
F8003E
F8003E
F8003E
F8003E
F8003E
F8003E
FFFFFC
FFFFFC
FFFFFE
F8003E
F8003E
F8003E
F8003E
F8003E
F8003E
F8003E
F8003E
F8003E
FFFFFE
7FFFFC
ENDCHAR
STARTCHAR 0043
ENCODING 67
SWIDTH 780 0
DWIDTH 26 0
BBX 23 25 2 -1
BITMAP
7FFFFE
FFFFFE
FFFFFE
F80000
F80000
F80000
F80000
F80000
F80000
F80000
F80000
F80000
F80000
F80000
F80000
F80000
F80000
F80000
F80000
F80000
F80000
F80000
FFFFFE
FFFFFE
7FFFFE
ENDCHAR
STARTCHAR 0044
ENCODING 68
SWIDTH 810 0
DWIDTH 27 0
BBX 23 25 2 0
BITMAP
FFFFFC
FFFFFE
FFFFFE
F8003E
F8003E
F8003E
F8003E
F8003E
F8003E
F8003E
F8003E
F8003E
F8003E
F8003E
F8003E
F8003E
F8003E
F8003E
F8003E
F8003E
F8003E
F8003E
F8003E
FFFFFE
7FFFFC
ENDCHAR
STARTCHAR 0045
ENCODING 69
SWIDTH 750 0
DWIDTH 25 0
BBX 23 25 1 0
BITMAP
FFFFFE
FFFFFE
FFFFFE
F80000
F80000
F80000
F80000
F80000
F80000
F80000
F80000
FFFFFC
FFFFFC
FFFFFC
F80000
F80000
F80000
F80000
F80000
F80000
F80000
F80000
F80000
FFFFFE
7FFFFE
ENDCHAR
STARTCHAR 0046
ENCODING 70
SWIDTH 720 0
DWIDTH 24 0
BBX 23 26 1 -1
BITMAP
F80000
FFFFFE
FFFFFE
FFFFFE
F80000
F80000
F80000
F80000
F80000
F80000
F80000
FFFFFC
FFFFFC
FFFFFC
F80000
F80000
F80000
F80000
F80000
F80000
F80000
F80000
F80000
F80000
F00000
800000
ENDCHAR
STARTCHAR 0047
ENCODING 71
SWIDTH 780 0
DWIDTH 26 0
BBX 23 25 2 -1
BITMAP
7FFFFE
FFFFFE
FFFFFE
F80000
F80000
F80000
F80000
F80000
F80000
F80000
F80000
F87FF0
F87FFE
F87FFE
F8003E
F8003E
F8003E
F8003E
F8003E
F8003E
F8003E
F8003E
FFFFFE
FFFFFE
7FFFFC
ENDCHAR
STARTCHAR 0048
ENCODING 72
SWIDTH 810 0
DWIDTH 27 0
BBX 23 25 2 -2
BITMAP
F8003E
F8003E
F8003E
F8003E
F8003E
F8003E
F8003E
F8003E
F8003E
F8003E
F8003E
FFFFFE
FFFFFE
FFFFFE
F8003E
F8003E
F8003E
F8003E
F8003E
F8003E
F8003E
F8003E
F8003E
F8003E
F0003C
ENDCHAR
STARTCHAR 0049
ENCODING 73
SWIDTH 540 0
DWIDTH 18 0
BBX 16 25 1 -1
BITMAP
FFFF
FFFF
FFFF
03E0
03E0
03E0
03E0
03E0
03E0
03E0
03E0
03E0
03E0
03E0
03E0
03E0
03E0
03E0
03E0
03E0
03E0
03E0
FFFF
FFFF
FFFF
ENDCHAR
STARTCHAR 004A
ENCODING 74
SWIDTH 600 0
DWIDTH 20 0
BBX 19 25 1 -1
BITMAP
FFFFE0
FFFFE0
FFFFE0
01F000
01F000
01F000
01F000
01F000
01F000
01F000
01F000
01F000
01F000
01F000
01F000
01F000
01F000
01F000
01F000
01F000
01F000
01F000
FFF000
FFF000
FFE000
ENDCHAR
STARTCHAR 004B
ENCODING 75
SWIDTH 750 0
DWIDTH 25 0
BBX 21 25 2 -2
BITMAP
F80000
F80000
F80010
F80030
F800F0
F801E0
F803C0
F80F00
F81E00
F83C00
F8F000
F9F800
FBFC00
FF7E00
FE3F00
FC1F00
F81F80
F80FC0
F807E0
F803F0
F801F8
F801F8
F800F8
F80078
E00030
ENDCHAR
STARTCHAR 004C
ENCODING 76
SWIDTH 630 0
DWIDTH 21 0
BBX 19 25 2 -1
BITMAP
F80000
F80000
F80000
F80000
F80000
F80000
F80000
F80000
F80000
F80000
F80000
F80000
F80000
F80000
F80000
F80000
F80000
F80000
F80000
F80000
F80000
F80000
F80000
FFFFE0
7FFFE0
ENDCHAR
STARTCHAR 004D
ENCODING 77
SWIDTH 900 0
DWIDTH 30 0
BBX 26 25 2 -1
BITMAP
FE003F80
FE003FC0
FF003FC0
FF003FC0
FF007FC0
FF807FC0
FF807FC0
FF807FC0
FBC0F7C0
FBC0F7C0
FBC0F7C0
F9E1F7C0
F9E1E7C0
F9E1E7C0
F9E1E7C0
F8F3C7C0
F8F3C7C0
F8F3C7C0
F87FC7C0
F87F87C0
F87F87C0
F83F87C0
F83F07C0
F80007C0
C0000600
ENDCHAR
STARTCHAR 004E
ENCODING 78
SWIDTH 810 0
DWIDTH 27 0
BBX 23 25 2 -2
BITMAP
F0003E
F8003E
FC003E
FC003E
FE003E
FF003E
FF803E
FF803E
FBC03E
F9E03E
F9F03E
F8F83E
F8783E
F83C3E
F83E3E
F81F3E
F80F3E
F807BE
F807FE
F803FE
F801FE
F801FE
F800FE
F8007E
F0003C
ENDCHAR
STARTCHAR 004F
ENCODING 79
SWIDTH 810 0
DWIDTH 27 0
BBX 23 25 2 -1
BITMAP
7FFFFC
FFFFFE
FFFFFE
F8003E
F8003E
F8003E
F8003E
F8003E
F8003E
F8003E
F8003E
F8003E
F8003E
F8003E
F8003E
F8003E
F8003E
F8003E
F8003E
F8003E
F8003E
F8003E
FFFFFE
FFFFFE
7FFFFC
ENDCHAR
STARTCHAR 0050
ENCODING 80
SWIDTH 750 0
DWIDTH 25 0
BBX 23 24 2 0
BITMAP
FFFFFC
FFFFFE
FFFFFE
F8003E
F8003E
F8003E
F8003E
F8003E
F8003E
F8003E
F8003E
F8003E
FFFFFE
FFFFFE
FFFFFC
F80000
F80000
F80000
F80000
F80000
F80000
F80000
F80000
F00000
ENDCHAR
STARTCHAR 0051
ENCODING 81
SWIDTH 780 0
DWIDTH 26 0
BBX 23 27 1 -4
BITMAP
7FFFFC
FFFFFE
FFFFFE
F8003E
F8003E
F8003E
F8003E
F8003E
F8003E
F8003E
F8003E
F8003E
F8003E
F8003E
F8003E
F8003E
F8003E
F8003E
F8003E
F8003E
F8003E
F83E3E
F83E3E
FFFFFE
7FFFFC
000F80
0007E0
ENDCHAR
STARTCHAR 0052
ENCODING 82
SWIDTH 810 0
DWIDTH 27 0
BBX 23 25 2 -2
BITMAP
F80000
FFFFF8
FFFFFC
FFFFFC
F8007C
F8007C
F8007C
F8007C
F8007C
F8007C
F8007C
F8007C
FFFFFC
FFFFFC
FFFFF0
F80F80
F807C0
F803E0
F803F0
F801F8
F800FC
F8007E
F8003E
F8003C
F00018
ENDCHAR
STARTCHAR 0053
ENCODING 83
SWIDTH 720 0
DWIDTH 24 0
BBX 22 25 1 -1
BITMAP
7FFFFC
FFFFFC
FFFFFC
F80000
F80000
F80000
F80000
F80000
F80000
F80000
F80000
FFFFF0
FFFFFC
7FFFFC
00007C
00007C
00007C
00007C
00007C
00007C
00007C
00007C
FFFFFC
FFFFFC
FFFFF8
ENDCHAR
STARTCHAR 0054
ENCODING 84
SWIDTH 660 0
DWIDTH 22 0
BBX 22 25 0 -1
BITMAP
FFFFFC
FFFFFC
FFFFFC
00F800
00F800
00F800
00F800
00F800
00F800
00F800
00F800
00F800
00F800
00F800
00F800
00F800
00F800
00F800
00F800
00F800
00F800
00F800
00F800
00F800
00C000
ENDCHAR
STARTCHAR 0055
ENCODING 85
SWIDTH 810 0
DWIDTH 27 0
BBX 23 25 2 -1
BITMAP
F8003E
F8003E
F8003E
F8003E
F8003E
F8003E
F8003E
F8003E
F8003E
F8003E
F8003E
F8003E
F8003E
F8003E
F8003E
F8003E
F8003E
F8003E
F8003E
F8003E
F8003E
F8003E
F8003E
FFFFFE
7FFFFC
ENDCHAR
STARTCHAR 0056
ENCODING 86
SWIDTH 780 0
DWIDTH 26 0
BBX 24 25 1 -1
BITMAP
F8001F
F8001F
78003E
7C003E
7C003C
3C007C
3E007C
3E0078
1E00F8
1F00F0
1F01F0
0F01F0
0F81E0
0F83E0
0783E0
07C3C0
07C7C0
03C780
03EF80
01EF80
01EF00
01FF00
00FE00
00FE00
00FC00
ENDCHAR
STARTCHAR 0057
ENCODING 87
SWIDTH 1080 0
DWIDTH 36 0
BBX 34 25 1 -1
BITMAP
F801F007C0
7803F007C0
7C03F00780
7C03F00F80
7C03F00F80
3C07F80F80
3E07F81F00
3E07F81F00
3E07F81F00
1E07F81E00
1F0F783E00
1F0F3C3E00
1F0F3C3C00
0F8F3C7C00
0F8F3C7C00
0F9E3C7C00
0F9E3CF800
07DE1EF800
07DE1EF800
07DE1EF000
07FC1FF000
03FC1FF000
03FC1FF000
03FC0FE000
03F80FC000
ENDCHAR
STARTCHAR 0058
ENCODING 88
SWIDTH 810 0
DWIDTH 27 0
BBX 23 25 2 -2
BITMAP
FC007C
7C00FC
3E01F8
1F01F0
1F83E0
0F87E0
07CFC0
03EF80
03FF00
01FF00
00FE00
007C00
00FE00
01FE00
03FF00
03EF80
07CFC0
0FC7C0
1F83E0
1F03F0
3E01F8
7E00F8
FC007C
F8007E
F0003E
ENDCHAR
STARTCHAR 0059
ENCODING 89
SWIDTH 750 0
DWIDTH 25 0
BBX 23 25 1 -1
BITMAP
F8003E
7C007C
3E00F8
3F01F8
1F83F0
0F83E0
07C7C0
07EFC0
03FF80
01FF00
00FE00
00FE00
007C00
007C00
007C00
007C00
007C00
007C00
007C00
007C00
007C00
007C00
007C00
007C00
006000
ENDCHAR
STARTCHAR 005A
ENCODING 90
SWIDTH 750 0
DWIDTH 25 0
BBX 22 24 2 -1
BITMAP
FFFFF0
FFFFF8
FFFFF8
0001F8
0003F0
0007E0
000FE0
001FC0
003F80
003F00
007E00
00FC00
01F800
03F000
07E000
0FC000
1F8000
3F0000
7E0000
FC0000
FC0000
FFFFFC
FFFFFC
7FFFFC
ENDCHAR
STARTCHAR 005B
ENCODING 91
SWIDTH 360 0
DWIDTH 12 0
BBX 9 28 2 -1
BITMAP
3F80
FF80
FF80
F800
F800
F800
F800
F800
F800
F800
F800
F800
F800
F800
F800
F800
F800
F800
F800
F800
F800
F800
F800
F800
F800
FF80
FF80
7F80
ENDCHAR
STARTCHAR 005C
ENCODING 92
SWIDTH 420 0
DWIDTH 14 0
BBX 13 28 0 -3
BITMAP
FC00
7C00
7C00
7C00
3E00
3E00
3E00
1F00
1F00
1F00
1F80
0F80
0F80
0FC0
07C0
07C0
07E0
03E0
03E0
03E0
03F0
01F0
01F0
01F8
00F8
00F8
00F0
0040
ENDCHAR
STARTCHAR 005D
ENCODING 93
SWIDTH 360 0
DWIDTH 12 0
BBX 9 28 1 -1
BITMAP
FE00
FF80
FF80
0F80
0F80
0F80
0F80
0F80
0F80
0F80
0F80
0F80
0F80
0F80
0F80
0F80
0F80
0F80
0F80
0F80
0F80
0F80
0F80
0F80
0F80
FF80
FF80
FF00
ENDCHAR
STARTCHAR 005E
ENCODING 94
SWIDTH 540 0
DWIDTH 18 0
BBX 16 9 1 22
BITMAP
03C0
07E0
0FE0
0FF0
1FF8
3E78
3C7C
7C3E
F81F
ENDCHAR
STARTCHAR 005F
ENCODING 95
SWIDTH 840 0
DWIDTH 28 0
BBX 24 3 2 3
BITMAP
FFFFFF
FFFFFF
FFFFFF
ENDCHAR
STARTCHAR 0060
ENCODING 96
SWIDTH 270 0
DWIDTH 9 0
BBX 6 7 2 20
BITMAP
E0
F0
78
78
7C
7C
7C
ENDCHAR
STARTCHAR 0061
ENCODING 97
SWIDTH 690 0
DWIDTH 23 0
BBX 19 18 2 -1
BITMAP
FFFF80
FFFFC0
FFFFC0
0007C0
0007C0
3FFFC0
FFFFC0
FFFFC0
F807C0
F807C0
F807C0
F807C0
F807C0
F807C0
F807C0
FFFFE0
FFFFE0
7FFFE0
ENDCHAR
STARTCHAR 0062
ENCODING 98
SWIDTH 630 0
DWIDTH 21 0
BBX 18 26 2 -1
BITMAP
F80000
F80000
F80000
F80000
F80000
F80000
F80000
F80000
FFFFC0
FFFFC0
FFFFC0
F807C0
F807C0
F807C0
F807C0
F807C0
F807C0
F807C0
F807C0
F807C0
F807C0
F807C0
F807C0
FFFFC0
FFFFC0
FFFF80
ENDCHAR
STARTCHAR 0063
ENCODING 99
SWIDTH 630 0
DWIDTH 21 0
BBX 18 18 2 -1
BITMAP
7FFFC0
FFFFC0
FFFFC0
F80000
F80000
F80000
F80000
F80000
F80000
F80000
F80000
F80000
F80000
F80000
F80000
FFFFC0
FFFFC0
7FFFC0
ENDCHAR
STARTCHAR 0064
ENCODING 100
SWIDTH 630 0
DWIDTH 21 0
BBX 19 26 1 -1
BITMAP
000F80
000F80
000F80
000F80
000F80
000F80
000F80
000F80
FFFF80
FFFF80
FFFF80
F80F80
F80F80
F80F80
F80F80
F80F80
F80F80
F80F80
F80F80
F80F80
F80F80
F80F80
F80F80
FFFFE0
FFFFE0
7FFFE0
ENDCHAR
STARTCHAR 0065
ENCODING 101
SWIDTH 660 0
DWIDTH 22 0
BBX 18 19 2 -1
BITMAP
7FFF80
FFFFC0
FFFFC0
F807C0
F807C0
F807C0
F807C0
F807C0
FFFFC0
FFFFC0
FFFF80
F80000
F80000
F80000
F80000
F80000
FFFFC0
FFFFC0
7FFFC0
ENDCHAR
STARTCHAR 0066
ENCODING 102
SWIDTH 450 0
DWIDTH 15 0
BBX 14 26 0 -1
BITMAP
07F8
0FF8
0FF8
0F80
0F80
0F80
0F80
0F80
FFFC
FFFC
FFFC
0F80
0F80
0F80
0F80
0F80
0F80
0F80
0F80
0F80
0F80
0F80
0F80
0F80
0F00
0C00
ENDCHAR
STARTCHAR 0067
ENCODING 103
SWIDTH 630 0
DWIDTH 21 0
BBX 18 27 1 -10
BITMAP
FFFF80
FFFFC0
FFFFC0
F807C0
F807C0
F807C0
F807C0
F807C0
F807C0
F807C0
F807C0
F807C0
F807C0
F807C0
FFFFC0
FFFFC0
3FFFC0
0007C0
0007C0
0007C0
0007C0
0007C0
0007C0
0007C0
FFFFC0
FFFFC0
FFFF80
ENDCHAR
STARTCHAR 0068
ENCODING 104
SWIDTH 630 0
DWIDTH 21 0
BBX 18 26 2 -1
BITMAP
F80000
F80000
F80000
F80000
F80000
F80000
F80000
F80000
FFFF80
FFFFC0
FFFFC0
F807C0
F807C0
F807C0
F807C0
F807C0
F807C0
F807C0
F807C0
F807C0
F807C0
F807C0
F807C0
F807C0
F807C0
C00600
ENDCHAR
STARTCHAR 0069
ENCODING 105
SWIDTH 240 0
DWIDTH 8 0
BBX 6 26 1 -2
BITMAP
78
FC
FC
FC
FC
78
00
00
F8
F8
F8
F8
F8
F8
F8
F8
F8
F8
F8
F8
F8
F8
F8
F8
F8
E0
ENDCHAR
STARTCHAR 006A
ENCODING 106
SWIDTH 360 0
DWIDTH 12 0
BBX 11 35 0 -10
BITMAP
03C0
07E0
07E0
07E0
07E0
03C0
0000
0000
07C0
07C0
07C0
07C0
07C0
07C0
07C0
07C0
07C0
07C0
07C0
07C0
07C0
07C0
07C0
07C0
07C0
07C0
07C0
07C0
07C0
07C0
07C0
07C0
FFC0
FFC0
FF80
ENDCHAR
STARTCHAR 006B
ENCODING 107
SWIDTH 630 0
DWIDTH 21 0
BBX 18 26 2 -2
BITMAP
F80000
F80000
F80000
F80000
F80000
F80000
F80000
F80000
F80180
F807C0
F80F80
F83E00
F8F800
F9F000
FFF800
FFFC00
FEFC00
F87E00
F87F00
F83F00
F81F80
F81FC0
F80FC0
F807C0
F80780
E00300
ENDCHAR
STARTCHAR 006C
ENCODING 108
SWIDTH 270 0
DWIDTH 9 0
BBX 5 26 2 -2
BITMAP
F8
F8
F8
F8
F8
F8
F8
F8
F8
F8
F8
F8
F8
F8
F8
F8
F8
F8
F8
F8
F8
F8
F8
F8
F8
E0
ENDCHAR
STARTCHAR 006D
ENCODING 109
SWIDTH 900 0
DWIDTH 30 0
BBX 26 19 2 -1
BITMAP
F8000000
FFF7FF80
FFFFFFC0
FFFFFFC0
F83E07C0
F83E07C0
F83E07C0
F83E07C0
F83E07C0
F83E07C0
F83E07C0
F83E07C0
F83E07C0
F83E07C0
F83E07C0
F83E07C0
F83E07C0
F83E07C0
E0380700
ENDCHAR
STARTCHAR 006E
ENCODING 110
SWIDTH 660 0
DWIDTH 22 0
BBX 18 19 2 -1
BITMAP
F80000
FFFF80
FFFFC0
FFFFC0
F807C0
F807C0
F807C0
F807C0
F807C0
F807C0
F807C0
F807C0
F807C0
F807C0
F807C0
F807C0
F807C0
F807C0
E00700
ENDCHAR
STARTCHAR 006F
ENCODING 111
SWIDTH 660 0
DWIDTH 22 0
BBX 18 18 2 -1
BITMAP
7FFF80
FFFFC0
FFFFC0
F807C0
F807C0
F807C0
F807C0
F807C0
F807C0
F807C0
F807C0
F807C0
F807C0
F807C0
F807C0
FFFFC0
FFFFC0
7FFF80
ENDCHAR
STARTCHAR 0070
ENCODING 112
SWIDTH 630 0
DWIDTH 21 0
BBX 18 28 2 -9
BITMAP
F80000
FFFFC0
FFFFC0
FFFFC0
F807C0
F807C0
F807C0
F807C0
F807C0
F807C0
F807C0
F807C0
F807C0
F807C0
F807C0
FFFFC0
FFFFC0
FFFF00
F80000
F80000
F80000
F80000
F80000
F80000
F80000
F80000
F00000
800000
ENDCHAR
STARTCHAR 0071
ENCODING 113
SWIDTH 630 0
DWIDTH 21 0
BBX 18 27 1 -9
BITMAP
0007C0
FFFFC0
FFFFC0
FFFFC0
F807C0
F807C0
F807C0
F807C0
F807C0
F807C0
F807C0
F807C0
F807C0
F807C0
F807C0
FFFFC0
7FFFC0
3FFFC0
0007C0
0007C0
0007C0
0007C0
0007C0
0007C0
0007C0
0007C0
000780
ENDCHAR
STARTCHAR 0072
ENCODING 114
SWIDTH 510 0
DWIDTH 17 0
BBX 15 18 2 -2
BITMAP
F800
F806
F83E
F9FE
FFF8
FF80
FC00
F800
F800
F800
F800
F800
F800
F800
F800
F800
F800
F000
ENDCHAR
STARTCHAR 0073
ENCODING 115
SWIDTH 630 0
DWIDTH 21 0
BBX 17 18 2 -1
BITMAP
FFFF80
FFFF80
FFFF80
F80000
F80000
F80000
F80000
F80000
FFFF80
FFFF80
3FFF80
000F80
000F80
000F80
000F80
FFFF80
FFFF80
FFFF00
ENDCHAR
STARTCHAR 0074
ENCODING 116
SWIDTH 450 0
DWIDTH 15 0
BBX 14 25 0 -1
BITMAP
0F80
0F80
0F80
0F80
0F80
0F80
0F80
FFFC
FFFC
FFFC
0F80
0F80
0F80
0F80
0F80
0F80
0F80
0F80
0F80
0F80
0F80
0F80
0FF8
0FF8
07F8
ENDCHAR
STARTCHAR 0075
ENCODING 117
SWIDTH 690 0
DWIDTH 23 0
BBX 19 18 2 -1
BITMAP
F807C0
F807C0
F807C0
F807C0
F807C0
F807C0
F807C0
F807C0
F807C0
F807C0
F807C0
F807C0
F807C0
F807C0
F807C0
FFFFE0
FFFFE0
7FFFE0
ENDCHAR
STARTCHAR 0076
ENCODING 118
SWIDTH 630 0
DWIDTH 21 0
BBX 19 18 1 -1
BITMAP
F803E0
F803E0
7807C0
7C07C0
7C07C0
3C0F80
3E0F80
3E1F00
1E1F00
1F1F00
1F3E00
0FBE00
0FBE00
0FFC00
07FC00
07F800
07F800
03F000
ENDCHAR
STARTCHAR 0077
ENCODING 119
SWIDTH 930 0
DWIDTH 31 0
BBX 28 18 1 -1
BITMAP
F80F00F0
780F01F0
780F81F0
7C1F81E0
7C1F83E0
3C1FC3E0
3E3FC3E0
3E3FC3C0
3E3FC7C0
1E3DE7C0
1F79E780
1F79EF80
1F79EF80
1FF8FF00
0FF0FF00
0FF0FF00
0FE0FE00
0FC07C00
ENDCHAR
STARTCHAR 0078
ENCODING 120
SWIDTH 630 0
DWIDTH 21 0
BBX 19 18 1 -2
BITMAP
7C03E0
7E07C0
3E0F80
1F1F00
0FBF00
07FE00
07FC00
03F800
01F000
03F800
07FC00
07FE00
0FBF00
1F1F80
3F0F80
7E07C0
FC03E0
7803E0
ENDCHAR
STARTCHAR 0079
ENCODING 121
SWIDTH 600 0
DWIDTH 20 0
BBX 19 27 1 -10
BITMAP
F803E0
7C07E0
7C07C0
7C0FC0
3E0F80
3E0F80
1F1F00
1F1F00
1F3E00
0FBE00
0FFC00
07FC00
07FC00
07F800
03F800
03F000
01F000
03E000
03E000
07C000
07C000
0F8000
0F8000
1F8000
1F0000
1F0000
3E0000
ENDCHAR
STARTCHAR 007A
ENCODING 122
SWIDTH 630 0
DWIDTH 21 0
BBX 17 18 2 -1
BITMAP
FFFF00
FFFF80
FFFF80
003F00
007F00
007E00
00FC00
01F800
03F000
07E000
0FC000
1F8000
3F0000
7E0000
FC0000
FFFF80
FFFF80
FFFF80
ENDCHAR
STARTCHAR 007B
ENCODING 123
SWIDTH 390 0
DWIDTH 13 0
BBX 12 28 0 -1
BITMAP
01F0
07F0
0FF0
0F80
0F80
0F80
0F80
0F80
0F80
0F80
0F80
0F80
1F00
FF00
FE00
FF00
1F80
0F80
0F80
0F80
0F80
0F80
0F80
0F80
0F80
0FF0
07F0
03F0
ENDCHAR
STARTCHAR 007C
ENCODING 124
SWIDTH 270 0
DWIDTH 9 0
BBX 5 28 2 -2
BITMAP
F8
F8
F8
F8
F8
F8
F8
F8
F8
F8
F8
F8
F8
F8
F8
F8
F8
F8
F8
F8
F8
F8
F8
F8
F8
F8
F0
C0
ENDCHAR
STARTCHAR 007D
ENCODING 125
SWIDTH 390 0
DWIDTH 13 0
BBX 12 28 1 -1
BITMAP
F800
FE00
FF00
1F00
1F00
1F00
1F00
1F00
1F00
1F00
1F00
1F00
0F80
0FF0
07F0
0FF0
1F80
1F00
1F00
1F00
1F00
1F00
1F00
1F00
1F00
FF00
FE00
FC00
ENDCHAR
STARTCHAR 007E
ENCODING 126
SWIDTH 540 0
DWIDTH 18 0
BBX 17 6 0 11
BITMAP
070000
3FC000
7FF000
67FF80
80FF00
003C00
ENDCHAR
STARTCHAR 00A5
ENCODING 165
SWIDTH 690 0
DWIDTH 23 0
BBX 21 27 1 -2
BITMAP
FC03F0
7E03E0
3F07E0
1F0FC0
1F8F80
0FDF80
07DF00
07FE00
03FE00
FFFFF8
FFFFF8
FFFFF8
00F800
00F800
00F800
00F800
FFFFF8
FFFFF8
FFFFF8
00F800
00F800
00F800
00F800
00F800
00F800
00F800
00E000
ENDCHAR
STARTCHAR 00A9
ENCODING 169
SWIDTH 1020 0
DWIDTH 34 0
BBX 30 28 2 -1
BITMAP
7FFFFFF8
FFFFFFFC
FFFFFFFC
F800007C
F800007C
F800007C
F87FFC7C
F8FFFC7C
F8FFFC7C
F8F8007C
F8F8007C
F8F8007C
F8F8007C
F8F8007C
F8F8007C
F8F8007C
F8F8007C
F8F8007C
F8F8007C
F8FFFC7C
F8FFFC7C
F87FFC7C
F800007C
F800007C
F800007C
FFFFFFFC
FFFFFFFC
7FFFFFF8
ENDCHAR
STARTCHAR 00B0
ENCODING 176
SWIDTH 360 0
DWIDTH 12 0
BBX 8 7 2 20
BITMAP
FF
FF
FF
E7
FF
FF
FF
ENDCHAR
STARTCHAR 00B7
ENCODING 183
SWIDTH 990 0
DWIDTH 33 0
BBX 6 6 14 10
BITMAP
78
FC
FC
FC
FC
78
ENDCHAR
STARTCHAR 2014
ENCODING 8212
SWIDTH 960 0
DWIDTH 32 0
BBX 28 3 2 13
BITMAP
FFFFFFF0
FFFFFFF0
FFFFFFF0
ENDCHAR
STARTCHAR 2018
ENCODING 8216
SWIDTH 960 0
DWIDTH 32 0
BBX 6 7 24 20
BITMAP
1C
3C
78
F8
F8
F8
F8
ENDCHAR
STARTCHAR 2019
ENCODING 8217
SWIDTH 990 0
DWIDTH 33 0
BBX 6 7 2 20
BITMAP
7C
7C
7C
78
78
F0
E0
ENDCHAR
STARTCHAR 201C
ENCODING 8220
SWIDTH 960 0
DWIDTH 32 0
BBX 12 7 18 20
BITMAP
1C70
3CF0
7DE0
FBE0
FBE0
FBE0
FBE0
ENDCHAR
STARTCHAR 201D
ENCODING 8221
SWIDTH 960 0
DWIDTH 32 0
BBX 12 7 2 20
BITMAP
7DF0
7DF0
7DF0
79E0
7BE0
F3C0
E780
ENDCHAR
STARTCHAR 2022
ENCODING 8226
SWIDTH 990 0
DWIDTH 33 0
BBX 6 6 14 10
BITMAP
78
FC
FC
FC
FC
78
ENDCHAR
STARTCHAR 2026
ENCODING 8230
SWIDTH 1020 0
DWIDTH 34 0
BBX 32 6 1 11
BITMAP
7803C01E
FC07E03F
FC07E03F
FC07E03F
FC07E03F
7803C01E
ENDCHAR
STARTCHAR 205D
ENCODING 8285
SWIDTH 990 0
DWIDTH 33 0
BBX 6 28 14 -2
BITMAP
78
FC
FC
FC
FC
78
00
00
00
00
00
78
FC
FC
FC
FC
78
00
00
00
00
00
78
FC
FC
FC
FC
78
ENDCHAR
STARTCHAR 20AC
ENCODING 8364
SWIDTH 900 0
DWIDTH 30 0
BBX 27 28 1 -1
BITMAP
007FFE00
01FFFFE0
01FFFFE0
01F003E0
01F003E0
01F003E0
01F00000
01F00000
01F00000
FFFFFFE0
FFFFFFE0
FFFFFFE0
01F00000
01F00000
01F00000
01F00000
01F00000
FFFFFFE0
FFFFFFE0
FFFFFFE0
01F00000
01F00000
01F003E0
01F003E0
01F003E0
01FFFFE0
01FFFFE0
00FFFFC0
ENDCHAR
STARTCHAR 2122
ENCODING 8482
SWIDTH 1020 0
DWIDTH 34 0
BBX 31 14 1 12
BITMAP
FFF00000
FFF7E0FE
FFF7F0FE
1F07F0FE
1F07F1FE
1F07F9FE
1F07F9FE
1F07B9DE
1F07BFDE
1F07BFDE
1F079FDE
1F079F9E
1F079F9E
1C07001C
ENDCHAR
STARTCHAR 22EF
ENCODING 8943
SWIDTH 1020 0
DWIDTH 34 0
BBX 32 6 1 11
BITMAP
7803C01E
FC07E03F
FC07E03F
FC07E03F
FC07E03F
7803C01E
ENDCHAR
STARTCHAR 2F00
ENCODING 12032
SWIDTH 960 0
DWIDTH 32 0
BBX 30 3 1 10
BITMAP
FFFFFFFC
FFFFFFFC
FFFFFFFC
ENDCHAR
STARTCHAR 2F01
ENCODING 12033
SWIDTH 990 0
DWIDTH 33 0
BBX 5 28 14 -2
BITMAP
F8
F8
F8
F8
F8
F8
F8
F8
F8
F8
F8
F8
F8
F8
F8
F8
F8
F8
F8
F8
F8
F8
F8
F8
F8
F8
F8
E0
ENDCHAR
STARTCHAR 2F02
ENCODING 12034
SWIDTH 990 0
DWIDTH 33 0
BBX 8 8 13 8
BITMAP
E0
FC
7E
3F
1F
1E
0E
08
ENDCHAR
STARTCHAR 2F03
ENCODING 12035
SWIDTH 960 0
DWIDTH 32 0
BBX 8 27 12 -2
BITMAP
1F
1F
1F
1F
1F
1F
1F
1F
1F
1F
1F
1F
1F
1F
1F
1F
1F
1F
1E
3E
3E
3E
3C
3C
78
70
E0
ENDCHAR
STARTCHAR 2F04
ENCODING 12036
SWIDTH 990 0
DWIDTH 33 0
BBX 28 25 3 -1
BITMAP
FFFFFF00
FFFFFF80
FFFFFF80
00007F00
0000FE00
0001FC00
0003F800
0007F000
000FE000
001FC000
003FC000
007F8000
00FF0000
01FE0000
03FC0000
07F80000
07F00000
0FE00000
1FC00000
3F800000
7F000000
FFFFFFF0
FFFFFFE0
FFFFFFE0
7FFFFFC0
ENDCHAR
STARTCHAR 2F06
ENCODING 12038
SWIDTH 960 0
DWIDTH 32 0
BBX 28 22 2 1
BITMAP
3FFFFFC0
3FFFFFC0
3FFFFFC0
00000000
00000000
00000000
00000000
00000000
00000000
00000000
00000000
00000000
00000000
00000000
00000000
00000000
00000000
00000000
00000000
FFFFFFF0
FFFFFFF0
FFFFFFF0
ENDCHAR
STARTCHAR 2F07
ENCODING 12039
SWIDTH 990 0
DWIDTH 33 0
BBX 29 9 2 19
BITMAP
00070000
000F8000
000F8000
000F8000
00070000
00000000
FFFFFFF8
FFFFFFF8
FFFFFFF8
ENDCHAR
STARTCHAR 2F08
ENCODING 12040
SWIDTH 990 0
DWIDTH 33 0
BBX 26 28 4 -2
BITMAP
003E0000
003E0000
003E0000
003E0000
003E0000
003E0000
003E0000
003E0000
003E0000
003E0000
003E0000
003E0000
003F0000
003F0000
007F0000
007F8000
007F8000
00FFC000
00F9E000
01F9F000
01F1F800
03F0FC00
07E0FF00
0FC07FC0
1F807FC0
3F003F80
7C000F00
C0000600
ENDCHAR
STARTCHAR 2F09
ENCODING 12041
SWIDTH 960 0
DWIDTH 32 0
BBX 30 28 1 -2
BITMAP
07C07C00
07C07C00
07C07C00
07C07C00
07C07C00
07C07C00
07C07C00
07C07C00
07C07C00
07C07C00
07C07C00
07C07C00
07C07C00
07C07C00
07C07C00
07C07C00
07C07C00
07807C00
0F807C00
0F807C00
0F807C00
0F007C00
1F007C00
1E007FFC
3C007FF8
38007FF8
70003FF8
80000000
ENDCHAR
STARTCHAR 2F0A
ENCODING 12042
SWIDTH 990 0
DWIDTH 33 0
BBX 28 28 3 -1
BITMAP
00100000
00080000
00080000
00080000
000C0000
000C0000
000C0000
000E0000
000E0000
001F0000
001F0000
001F8000
003F8000
003FC000
003FE000
007FE000
007FF000
00FDF800
00FDFC00
01F8FE00
01F8FF00
03F0FF80
07E07FC0
0FC03FF0
1F803FF0
3E001FE0
7C000FC0
E0000780
ENDCHAR
STARTCHAR 2F0B
ENCODING 12043
SWIDTH 990 0
DWIDTH 33 0
BBX 29 27 2 0
BITMAP
00010000
00008000
00008000
00008000
00008000
01F0C000
01F8C000
01F8C000
01F8E000
01F8E000
03F8F000
03F0F000
03F0F000
03F0F800
03E07800
07E07C00
07E07E00
07C07E00
0FC03F00
0F803F80
0F803FC0
1F001FE0
1E001FF0
3E000FF8
3C000FF0
700007E0
E00003C0
ENDCHAR
STARTCHAR 2F0C
ENCODING 12044
SWIDTH 960 0
DWIDTH 32 0
BBX 28 27 2 -1
BITMAP
F8000000
FFFFFFE0
FFFFFFF0
FFFFFFF0
F80001F0
F80001F0
F80001F0
F80001F0
F80001F0
F80001F0
F80001F0
F80001F0
F80001F0
F80001F0
F80001F0
F80001F0
F80001F0
F80001F0
F80001F0
F80001F0
F80001F0
F80001F0
F80001F0
F80001F0
F80007F0
F80007F0
F00007F0
ENDCHAR
STARTCHAR 2F0D
ENCODING 12045
SWIDTH 990 0
DWIDTH 33 0
BBX 27 8 3 18
BITMAP
F8000000
FFFFFFE0
FFFFFFE0
FFFFFFE0
F80003E0
F80003E0
F80003E0
F0000380
ENDCHAR
STARTCHAR 2F0E
ENCODING 12046
SWIDTH 960 0
DWIDTH 32 0
BBX 7 21 1 1
BITMAP
38
7C
7C
7C
38
00
00
00
00
00
02
02
06
0E
1E
1C
3C
7C
FC
F8
38
ENDCHAR
STARTCHAR 2F0F
ENCODING 12047
SWIDTH 990 0
DWIDTH 33 0
BBX 29 27 2 -2
BITMAP
0F800000
0F800000
0FFFFF00
0FFFFF00
0FFFFF00
0F801F00
0F801F00
0F801F00
0F801F00
0F801F00
0F801F00
0F801F00
0F801F00
0F801F00
0F801F00
0F801F00
0F801F00
1F001F00
1F001F00
1F001F00
1F001F00
3E001F00
3E001F00
3C001FF8
78001FF8
70001FF8
C0000FF0
ENDCHAR
STARTCHAR 2F10
ENCODING 12048
SWIDTH 960 0
DWIDTH 32 0
BBX 27 23 3 -1
BITMAP
F80003E0
F80003E0
F80003E0
F80003E0
F80003E0
F80003E0
F80003E0
F80003E0
F80003E0
F80003E0
F80003E0
F80003E0
F80003E0
F80003E0
F80003E0
F80003E0
F80003E0
F80003E0
F80003E0
FFFFFFE0
FFFFFFE0
7FFFFFE0
000003E0
ENDCHAR
STARTCHAR 2F11
ENCODING 12049
SWIDTH 960 0
DWIDTH 32 0
BBX 27 26 3 -2
BITMAP
7FFFFF80
7FFFFFE0
7FFFFFE0
01F003E0
01F003E0
01F003E0
01F003E0
01F003E0
01F003E0
01F003E0
01F003E0
01F003E0
01F003E0
03E003E0
03E003E0
03E003E0
03E003E0
07C003E0
07C003E0
078003E0
0F8003E0
0F0003E0
1E0003E0
3C003FE0
78003FE0
E0003FC0
ENDCHAR
STARTCHAR 2F12
ENCODING 12050
SWIDTH 990 0
DWIDTH 33 0
BBX 26 28 4 -1
BITMAP
03E00000
03E00000
03E00000
03E00000
03E00000
03E00000
FFFFFC00
FFFFFFC0
FFFFFFC0
03E007C0
03E007C0
03E007C0
03E007C0
03E007C0
03E007C0
03E007C0
07C007C0
07C007C0
07C007C0
07C007C0
0F8007C0
0F8007C0
1F0007C0
1F0007C0
3E0007C0
3C007FC0
70007FC0
C0003F80
ENDCHAR
STARTCHAR 2F13
ENCODING 12051
SWIDTH 960 0
DWIDTH 32 0
BBX 26 28 3 0
BITMAP
1E000000
1F800000
1F800000
1F800000
1FFFFF80
1FFFFFC0
3FFFFFC0
3E0007C0
3E0007C0
3C0007C0
7C0007C0
780007C0
E00007C0
C00007C0
000007C0
000007C0
000007C0
000007C0
000007C0
000007C0
000007C0
000007C0
000007C0
000007C0
000007C0
00007FC0
00007FC0
00003F80
ENDCHAR
STARTCHAR 2F14
ENCODING 12052
SWIDTH 960 0
DWIDTH 32 0
BBX 24 26 4 -1
BITMAP
F80000
F80000
F80000
F80070
F800F8
F800FC
F801FC
F803FC
F80FFC
F81FF0
F87FE0
F8FFC0
FBFF00
FFF800
FF8000
F80000
F80000
F80000
F80000
F80000
F80000
F80000
FFFFFF
FFFFFF
FFFFFF
7FFFFE
ENDCHAR
STARTCHAR 2F15
ENCODING 12053
SWIDTH 960 0
DWIDTH 32 0
BBX 28 27 2 -1
BITMAP
FFFFFFE0
FFFFFFE0
FFFFFFE0
F8000000
F8000000
F8000000
F8000000
F8000000
F8000000
F8000000
F8000000
F8000000
F8000000
F8000000
F8000000
F8000000
F8000000
F8000000
F8000000
F8000000
F8000000
F8000000
F8000000
F8000000
FFFFFFF0
FFFFFFF0
7FFFFFF0
ENDCHAR
STARTCHAR 2F17
ENCODING 12055
SWIDTH 990 0
DWIDTH 33 0
BBX 29 28 2 -1
BITMAP
000F8000
000F8000
000F8000
000F8000
000F8000
000F8000
000F8000
000F8000
000F8000
000F8000
000F8000
FFFFFFF8
FFFFFFF8
FFFFFFF8
000F8000
000F8000
000F8000
000F8000
000F8000
000F8000
000F8000
000F8000
000F8000
000F8000
000F8000
000F8000
000F0000
000C0000
ENDCHAR
STARTCHAR 2F18
ENCODING 12056
SWIDTH 990 0
DWIDTH 33 0
BBX 17 28 8 -1
BITMAP
F80000
F80000
F80000
F80000
F80000
F80000
F80000
F80000
F80000
F80000
F9C000
F8F800
F87E00
F83F00
F83F80
F81F80
F80F80
F80700
F80600
F80000
F80000
F80000
F80000
F80000
F80000
F80000
F80000
C00000
ENDCHAR
STARTCHAR 2F19
ENCODING 12057
SWIDTH 990 0
DWIDTH 33 0
BBX 13 27 19 -3
BITMAP
F800
FFF0
FFF8
FFF8
F8F8
F8F8
F8F8
F8F8
F8F8
F8F8
F8F8
F8F8
F8F8
F8F8
F8F8
F8F8
F8F8
F8F8
F8F8
FBF8
FBF8
FBF8
F800
F800
F800
F800
E000
ENDCHAR
STARTCHAR 2F1A
ENCODING 12058
SWIDTH 960 0
DWIDTH 32 0
BBX 28 26 2 -2
BITMAP
3FFFFFF0
3FFFFFF0
3FFFFFF0
3E000000
3E000000
3E000000
3E000000
3E000000
3E000000
3E000000
3E000000
3E000000
3E000000
3E000000
3E000000
3E000000
3E000000
3E000000
3C000000
3C000000
3C000000
7C000000
78000000
70000000
70000000
C0000000
ENDCHAR
STARTCHAR 2F1B
ENCODING 12059
SWIDTH 990 0
DWIDTH 33 0
BBX 29 26 2 -2
BITMAP
00180000
001F0000
001FC000
003FC000
003F8000
003F8000
003F8000
007F0000
007F0000
00FE0000
00FE0000
00FC0000
01FC2000
01F81800
03F00E00
03E00F00
07C00F80
078007C0
0F00FFE0
1EFFFFF0
FFFFF3F8
FFFFE3F8
7FFF81F0
7FFC01F0
3FE001C0
3E000000
ENDCHAR
STARTCHAR 2F1C
ENCODING 12060
SWIDTH 990 0
DWIDTH 33 0
BBX 27 26 3 -2
BITMAP
3FFFFF00
3FFFFF00
3FFFFF00
08007F00
08007F00
08007F00
0C007E00
0C00FE00
0600FE00
0700FE00
0701FC00
0781FC00
03C3F800
03E3F800
03F7F000
01FFF000
00FFE000
00FFC000
007FC000
007FF000
00FFFF80
01FFFFE0
07FFFFE0
0FE1FFC0
3F003FC0
C0000300
ENDCHAR
STARTCHAR 2F1D
ENCODING 12061
SWIDTH 960 0
DWIDTH 32 0
BBX 26 25 3 -1
BITMAP
F8000000
FFFFFF80
FFFFFFC0
FFFFFFC0
F80007C0
F80007C0
F80007C0
F80007C0
F80007C0
F80007C0
F80007C0
F80007C0
F80007C0
F80007C0
F80007C0
F80007C0
F80007C0
F80007C0
F80007C0
F80007C0
FFFFC780
FFFFCF80
7FFFCF00
00001E00
00003800
ENDCHAR
STARTCHAR 2F1E
ENCODING 12062
SWIDTH 990 0
DWIDTH 33 0
BBX 27 28 3 -1
BITMAP
F8000000
FFFFFFE0
FFFFFFE0
FFFFFFE0
F80003E0
F80003E0
F80003E0
F80003E0
F80003E0
F80003E0
F80003E0
F80003E0
F80003E0
F80003E0
F80003E0
F80003E0
F80003E0
F80003E0
F80003E0
F80003E0
F80003E0
F80003E0
F80003E0
FFFFF3C0
FFFFF7C0
7FFFF780
00000700
00000800
ENDCHAR
STARTCHAR 2F1F
ENCODING 12063
SWIDTH 990 0
DWIDTH 33 0
BBX 29 26 2 1
BITMAP
000F8000
000F8000
000F8000
000F8000
000F8000
000F8000
000F8000
000F8000
000F8000
3FFFFFE0
3FFFFFE0
3FFFFFE0
000F8000
000F8000
000F8000
000F8000
000F8000
000F8000
000F8000
000F8000
000F8000
000F8000
000F8000
FFFFFFF8
FFFFFFF8
FFFFFFF8
ENDCHAR
STARTCHAR 2F20
ENCODING 12064
SWIDTH 990 0
DWIDTH 33 0
BBX 29 26 2 -1
BITMAP
000F8000
000F8000
000F8000
000F8000
000F8000
000F8000
000F8000
000F8000
FFFFFFF8
FFFFFFF8
FFFFFFF8
000F8000
000F8000
000F8000
000F8000
000F8000
000F8000
000F8000
000F8000
000F8000
000F8000
000F8000
000F8000
7FFFFFE0
7FFFFFE0
7FFFFFE0
ENDCHAR
STARTCHAR 2F21
ENCODING 12065
SWIDTH 990 0
DWIDTH 33 0
BBX 27 28 4 -1
BITMAP
07000000
0FC00000
0FE00000
0FE00000
0FC00000
0FFFFE00
1FFFFE00
1FFFFE00
1F007E00
1F00FE00
3F00FC00
3F00FC00
3B81FC00
61C1F800
01C3F800
01E3F000
00F7F000
00FFE000
007FC000
007F8000
007FE000
00FFFE00
01FFFFE0
03FBFFC0
07F1FFC0
1FC0FFC0
3F003F80
F0000700
ENDCHAR
STARTCHAR 2F23
ENCODING 12067
SWIDTH 960 0
DWIDTH 32 0
BBX 25 29 4 -2
BITMAP
03800000
03F00000
07F00000
07F00000
07E00000
07FFFF80
07FFFF80
0FFFFF80
0FC01F80
0F801F80
1F803F00
1F003F00
1E783F00
3CFC7E00
38FC7E00
70FCFE00
40FDFC00
0079F800
0003F800
0007F000
000FE000
001FC000
003F8000
007F0000
01FE0000
03F80000
0FE00000
7F000000
80000000
ENDCHAR
STARTCHAR 2F24
ENCODING 12068
SWIDTH 990 0
DWIDTH 33 0
BBX 28 28 3 -1
BITMAP
001F0000
001F0000
001F0000
001F0000
001F0000
001F0000
001F0000
001F0000
001F0000
FFFFFFF0
FFFFFFF0
FFFFFFF0
001F8000
003F8000
003FC000
003FC000
007FE000
007DF000
007CF800
00FCFC00
01F8FE00
01F07F80
03F07FE0
07E03FF0
0FC01FF0
1F000FE0
7C0007C0
80000100
ENDCHAR
STARTCHAR 2F25
ENCODING 12069
SWIDTH 960 0
DWIDTH 32 0
BBX 29 27 2 -1
BITMAP
00FC0000
00FC0000
00F80000
01F80000
01F80000
01F00000
FFFFFFF8
FFFFFFF8
FFFFFFF8
07E01F00
07E03F00
07C03F00
0FC03E00
0FC07E00
0F807E00
1F80FC00
1FC1FC00
0FFFF800
01FFF000
007FFE00
000FFFC0
003FFFE0
007FFFE0
01FE3FE0
07F80FC0
3FE007C0
FF000180
ENDCHAR
STARTCHAR 2F26
ENCODING 12070
SWIDTH 1020 0
DWIDTH 34 0
BBX 30 28 2 -1
BITMAP
00000100
000003C0
3FFFFFF0
3FFFFFF0
3FFFFFE0
00000FE0
00001FC0
00003F80
00007F00
0000FC00
0001F000
000FC000
000F8000
FFFFFFFC
FFFFFFFC
FFFFFFFC
000F8000
000F8000
000F8000
000F8000
000F8000
000F8000
000F8000
000F8000
00EF8000
00FF8000
00FF8000
001F0000
ENDCHAR
STARTCHAR 2F27
ENCODING 12071
SWIDTH 960 0
DWIDTH 32 0
BBX 28 10 2 19
BITMAP
00070000
000F8000
000F8000
FFFFFFE0
FFFFFFF0
FFFFFFF0
F80001F0
F80001F0
F80001E0
C0000100
ENDCHAR
STARTCHAR 2F28
ENCODING 12072
SWIDTH 960 0
DWIDTH 32 0
BBX 28 27 2 -1
BITMAP
00007C00
00007C00
00007C00
00007C00
00007C00
FFFFFFF0
FFFFFFF0
FFFFFFF0
00007C00
00007C00
00007C00
00007C00
03C07C00
07C07C00
07E07C00
07E07C00
07E07C00
07C07C00
03C07C00
00007C00
00007C00
00007C00
00007C00
00087C00
000FFC00
000FFC00
0003F800
ENDCHAR
STARTCHAR 2F29
ENCODING 12073
SWIDTH 960 0
DWIDTH 32 0
BBX 29 27 2 -2
BITMAP
000F8000
000F8000
000F8000
000F8000
000F8000
000F8000
000F8000
000F8000
0E0F9000
1F8F8C00
1F8F8E00
1F8F8780
1F8F87C0
1F0F83E0
3F0F83E0
3E0F83F0
3E0F83F8
3C0F81F8
780F81F0
F00F81F0
C00F81C0
000F8000
000F8000
004F8000
007F8000
007F8000
001F0000
ENDCHAR
STARTCHAR 2F2A
ENCODING 12074
SWIDTH 990 0
DWIDTH 33 0
BBX 29 28 2 -2
BITMAP
007C0000
007C0000
007C0000
007C0000
007C0000
007C0000
007C0000
FFFFFFF8
FFFFFFF8
FFFFFFF8
007CF800
007CF800
007CF800
007CF800
007CF800
00F8F800
00F8F800
00F8F800
01F8F800
01F0F800
03F0F800
03E0F800
07C0F800
0FC0FFF8
0F80FFF8
1E00FFF8
7C007FF0
C0000000
ENDCHAR
STARTCHAR 2F2B
ENCODING 12075
SWIDTH 960 0
DWIDTH 32 0
BBX 28 27 2 -1
BITMAP
1F000000
1FFFFFF0
1FFFFFF0
1FFFFFF0
1F0001F0
1F0001F0
1F0001F0
1F0001F0
1F0001F0
1F0001F0
1F0001F0
1FFFFFF0
1FFFFFF0
1FFFFFE0
1F000000
1F000000
1F000000
1F000000
1E000000
3E000000
3E000000
3C000000
3C000000
38000000
78000000
60000000
C0000000
ENDCHAR
STARTCHAR 2F2C
ENCODING 12076
SWIDTH 990 0
DWIDTH 33 0
BBX 27 28 3 -2
BITMAP
001F0000
001F0000
001F0000
001F0000
001F0000
F81F03E0
F81F03E0
F81F03E0
F81F03E0
F81F03E0
F81F03E0
F81F03E0
F81F03E0
F81F03E0
F81F03E0
F81F03E0
F81F03E0
FFFFFFE0
FFFFFFE0
7FFFFFE0
001F03E0
001F0000
001F0000
001F0000
001F0000
001F0000
001F0000
001C0000
ENDCHAR
STARTCHAR 2F2D
ENCODING 12077
SWIDTH 990 0
DWIDTH 33 0
BBX 29 27 2 0
BITMAP
000F8000
000F8000
000F8000
000F8000
000F8000
000F8000
F80F80F8
F80F80F8
F80F80F8
F80F80F8
F80F80F8
F80F80F8
F80F80F8
F80F80F8
F80F80F8
F80F80F8
F80F80F8
F80F80F8
F80F80F8
F80F80F8
F80F80F8
F80F80F8
F80F80F8
FFFFFFF8
FFFFFFF8
7FFFFFF8
000000F8
ENDCHAR
STARTCHAR 2F2E
ENCODING 12078
SWIDTH 990 0
DWIDTH 33 0
BBX 29 27 2 -1
BITMAP
0F070200
0FC7C7C0
0FC7E7E0
0FCFC7E0
1F8FC7C0
1F8F87C0
1F0F8FC0
1F1F0F80
3E1F0F80
3E1E1F00
3C3E1E00
783C1C00
70783C00
E0703800
E0F07800
70783C00
783C1E00
3C3E1F00
3E1F0F80
3E1F8FC0
1F0F8FC0
1F0FC7E0
1F8FC7E0
0F87E3F0
0FC7E3F8
0FC7C3E0
0F0381C0
ENDCHAR
STARTCHAR 2F2F
ENCODING 12079
SWIDTH 990 0
DWIDTH 33 0
BBX 29 26 2 -1
BITMAP
7FFFFFE0
7FFFFFE0
7FFFFFE0
000F8000
000F8000
000F8000
000F8000
000F8000
000F8000
000F8000
000F8000
000F8000
000F8000
000F8000
000F8000
000F8000
000F8000
000F8000
000F8000
000F8000
000F8000
000F8000
000F8000
FFFFFFF8
FFFFFFF8
FFFFFFF8
ENDCHAR
STARTCHAR 2F30
ENCODING 12080
SWIDTH 960 0
DWIDTH 32 0
BBX 28 26 2 -1
BITMAP
FFFFFE00
FFFFFF80
FFFFFF80
00000F80
00000F80
00000F80
00000F80
00000F80
00000F80
00000F80
00000F80
7FFFFF80
7FFFFF80
7FFFFF00
7C000000
7C000000
7C000000
7C000000
7C000000
7C000000
7C000000
7C000000
7FFFFFF0
7FFFFFE0
7FFFFFE0
3FFFFFC0
ENDCHAR
STARTCHAR 2F31
ENCODING 12081
SWIDTH 960 0
DWIDTH 32 0
BBX 27 28 2 -2
BITMAP
001F0000
001F0000
001F0000
001F0000
001F0000
F81F0000
FFFFFFE0
FFFFFFE0
FFFFFFE0
F81F03E0
F81F03E0
F81F03E0
F81F03E0
F81F03E0
F81F03E0
F81F03E0
F81F03E0
F81F03E0
F81F03E0
F81F1BE0
F81F1FE0
F81F1FE0
F01F03C0
001F0000
001F0000
001F0000
001F0000
001C0000
ENDCHAR
STARTCHAR 2F32
ENCODING 12082
SWIDTH 990 0
DWIDTH 33 0
BBX 29 26 2 -2
BITMAP
3FFFFFF0
3FFFFFF0
3FFFFFF0
000F8000
000F8000
000F8000
000F8000
000F8000
000F8000
000F8000
000F8000
FFFFFFF8
FFFFFFF8
FFFFFFF8
000F8000
000F8000
000F8000
000F8000
000F8000
000F8000
000F8000
000F8000
000F8000
000F8000
000F8000
000E0000
ENDCHAR
STARTCHAR 2F33
ENCODING 12083
SWIDTH 990 0
DWIDTH 33 0
BBX 28 28 2 -1
BITMAP
001C0000
001E0000
003F0000
003F0000
007F0000
00FE0000
00FC0000
01F80000
03F01C00
03E03E00
07807F00
7FFFFF00
7FFFFE00
7FFFFC00
3FFBF800
3F87F000
180FE000
001FC800
007F8600
00FE0780
01F807C0
03E003E0
FFFFFFF0
FFFFFFF0
7FFFFFF0
7FFFE1F0
7FFE01E0
3F800180
ENDCHAR
STARTCHAR 2F34
ENCODING 12084
SWIDTH 990 0
DWIDTH 33 0
BBX 29 29 2 -1
BITMAP
0001C000
0003E000
0003E000
0003E000
3FFFFFF8
3FFFFFF8
3FFFFFF8
3E000000
3E000000
3E000000
3E000000
3E000000
3E000000
3E000000
3E000000
3E000000
3E000000
3E000000
3E000000
3E000000
3E000000
3E000000
3C000000
3C000000
78000000
78000000
70000000
E0000000
80000000
ENDCHAR
STARTCHAR 2F35
ENCODING 12085
SWIDTH 960 0
DWIDTH 32 0
BBX 29 26 2 -2
BITMAP
FF800000
FFE00000
FFE00000
07E00000
0FC00000
0F800000
1F800000
1F000000
3E000000
3E000000
7C000000
FFE00000
7FE00000
03E00000
03E00000
C3E00000
E3E00000
F7E00000
7FC00000
3FC00000
1FC00000
0F800000
1FFFFFF8
1FFFFFF8
3DFFFFF8
787FFFF0
ENDCHAR
STARTCHAR 2F36
ENCODING 12086
SWIDTH 960 0
DWIDTH 32 0
BBX 30 28 1 -2
BITMAP
07C00F80
07C00F80
07C00F80
07C00F80
07C00F80
07C00F80
07C00F80
07C00F80
07C00F80
07C00F80
07C00F80
07C00F80
FFFFFFFC
FFFFFFFC
FFFFFFFC
07C00F80
07C00F80
07C00F80
07C00F80
0F800F80
0F800F80
0F800F80
0F000F80
1F000F80
1E000F80
3C000F80
78000F80
E0000E00
ENDCHAR
STARTCHAR 2F37
ENCODING 12087
SWIDTH 960 0
DWIDTH 32 0
BBX 29 28 1 -2
BITMAP
01F80E00
00FC1F00
00FC1F00
007C1F00
007E1F00
003E0E00
003F0038
001F07F8
001FFFF8
003FFFC0
0FFFF000
FFFFC000
FF87E000
F007E000
0003E000
0003F000
0001F000
0001F800
0001F800
0000FC00
0000FC00
00007C00
00007E20
00003FF0
00003FF0
00001FE0
00001F80
00000C00
ENDCHAR
STARTCHAR 2F38
ENCODING 12088
SWIDTH 990 0
DWIDTH 33 0
BBX 28 27 2 -1
BITMAP
FFFFFF80
FFFFFFC0
FFFFFFC0
000007C0
000007C0
000007C0
000007C0
7FFFFFC0
7FFFFFC0
7FFFFFC0
7C000000
7C000000
7C000000
7C000000
7C000000
7FFFFFC0
7FFFFFF0
7FFFFFF0
000001F0
000001F0
000001F0
000001F0
000001F0
000001F0
00007FF0
00007FF0
00001FE0
ENDCHAR
STARTCHAR 2F39
ENCODING 12089
SWIDTH 960 0
DWIDTH 32 0
BBX 26 25 3 0
BITMAP
FFFFFF80
FFFFFFC0
FFFFFFC0
000007C0
000007C0
000007C0
000007C0
000007C0
000007C0
000007C0
000007C0
3FFFFFC0
3FFFFFC0
3FFFFFC0
000007C0
000007C0
000007C0
000007C0
000007C0
000007C0
000007C0
000007C0
FFFFFFC0
FFFFFFC0
FFFFFFC0
ENDCHAR
STARTCHAR 2F3A
ENCODING 12090
SWIDTH 990 0
DWIDTH 33 0
BBX 24 27 5 0
BITMAP
0000C0
0001E0
0003F0
0007F8
001FF0
007FC0
01FF80
07FE00
1FE010
000078
0000FC
0003FE
000FFC
003FF8
00FFE0
0FFF00
3FF800
000018
00003C
0000FE
0001FF
0007FE
001FFC
00FFF0
07FFC0
7FFF00
FFF000
ENDCHAR
STARTCHAR 2F3B
ENCODING 12091
SWIDTH 960 0
DWIDTH 32 0
BBX 11 28 1 0
BITMAP
0300
0780
07E0
0FC0
0F80
1F00
3E00
3C00
7900
E3C0
07E0
07E0
0FC0
1F80
3F00
3F80
7F80
0F80
0F80
0F80
0F80
0F80
0F80
0F80
0F80
0F80
0F80
0C00
ENDCHAR
STARTCHAR 2F3C
ENCODING 12092
SWIDTH 990 0
DWIDTH 33 0
BBX 30 26 1 -1
BITMAP
00007800
0000FC00
0000FC00
0000FC00
007CFC00
007C7800
007C0000
007C0000
007C0000
3C7C00F8
3E7C01F8
3E7C01F8
3E7C01F8
3E7C00F8
3C7C00F8
3C7C00F8
3C7C0078
787C0038
787C001C
707C000C
C07C0000
007C0000
007FFF80
007FFF80
007FFF80
003FFF00
ENDCHAR
STARTCHAR 2F3D
ENCODING 12093
SWIDTH 960 0
DWIDTH 32 0
BBX 30 29 1 -2
BITMAP
03F01C00
03F03E00
01F83E00
00F83E00
00FC3E00
007C1C00
007E0070
003F0FF0
003FFFF0
007FFF80
0FFFF000
FFFFC000
7F8FC000
6007E018
0007E078
0003F3FC
0001FFE0
0001FF80
0001FC00
000FFC00
003FFE00
01FE7E00
0FF03F00
3FC03FB8
3E001FF8
38001FF8
00000FE0
00000F80
00000200
ENDCHAR
STARTCHAR 2F3F
ENCODING 12095
SWIDTH 990 0
DWIDTH 33 0
BBX 29 28 2 0
BITMAP
00000380
00003FC0
0007FFE0
3FFFFFE0
0FFFFFC0
003FF000
000F8000
000F8000
000F8000
000F8000
3FFFFFF0
3FFFFFF0
3FFFFFF0
000F8000
000F8000
000F8000
000F8000
FFFFFFF8
FFFFFFF8
FFFFFFF8
000F8000
000F8000
000F8000
000F8000
006F8000
007F8000
00FF8000
00060000
ENDCHAR
STARTCHAR 2F40
ENCODING 12096
SWIDTH 960 0
DWIDTH 32 0
BBX 29 28 2 -2
BITMAP
000F8000
000F8000
000F8000
000F8000
FFFFFFF8
FFFFFFF8
FFFFFFF8
000F8000
000F8000
000F8000
000F8000
3FFFFFC0
3FFFFFC0
3FFFFFC0
07000FC0
03801FC0
03C01F80
03C03F80
01F07F00
01F8FE00
00FFFE00
007FFC00
003FFF78
001FFFF8
007FFFF8
03FFFFF0
1FFDFFF0
FFF03FE0
ENDCHAR
STARTCHAR 2F41
ENCODING 12097
SWIDTH 960 0
DWIDTH 32 0
BBX 29 28 2 -2
BITMAP
000F8000
000F8000
000F8000
000F8000
000FFFF8
000FFFF8
000FFFF8
000F8000
000F8000
000F8000
000F8000
3FFFFFC0
3FFFFFC0
3FFFFFC0
07000FC0
03801F80
03C01F80
03C03F80
01F07F00
01F8FE00
00FDFE00
007FFC00
007FFC38
001FFFF8
007FFFF0
01FFFFF0
1FFDFFE0
FFE07FC0
ENDCHAR
STARTCHAR 2F42
ENCODING 12098
SWIDTH 990 0
DWIDTH 33 0
BBX 28 30 3 -2
BITMAP
00070000
000F8000
000F8000
000F8000
00070000
00000000
FFFFFFF0
FFFFFFF0
FFFFFFF0
06001F00
06003F00
07003F00
07003F00
03807E00
03807E00
03C07C00
01E0FC00
01F1FC00
00F9F800
00FFF000
007FF000
003FE000
001FF000
003FFF80
007FFFF0
01FFFFF0
03F9FFE0
1FE07FC0
7F001F80
80000000
ENDCHAR
STARTCHAR 2F43
ENCODING 12099
SWIDTH 990 0
DWIDTH 33 0
BBX 28 27 3 -2
BITMAP
0000F800
0000F800
0FF0F800
07F8F800
03FCF800
00F8F800
0078F800
0030F800
0000F800
FF00F800
3F80F800
1F80F800
0F80F800
0780F800
0300F800
0000FFF0
FFFFFFF0
FFFFFFF0
FFFFF800
0000F800
0000F800
0000F800
0000F800
0000F800
0000F800
0000F800
0000E000
ENDCHAR
STARTCHAR 2F44
ENCODING 12100
SWIDTH 960 0
DWIDTH 32 0
BBX 29 28 2 -1
BITMAP
00000380
00001FC0
1F03FFC0
1FFFFFC0
1FFFFFC0
1F3FFE00
1F000000
1F000000
1F000000
1F000000
1F000000
1F000000
1FFFFFF8
1FFFFFF8
1FFFFFF8
1F003E00
1F003E00
1F003E00
1F003E00
1F003E00
3E003E00
3E003E00
3E003E00
3C003E00
7C003E00
78003E00
F0003E00
C0003800
ENDCHAR
STARTCHAR 2F45
ENCODING 12101
SWIDTH 990 0
DWIDTH 33 0
BBX 29 29 2 -1
BITMAP
00078000
000FC000
000FC000
000FC000
000FC000
00078000
FFFFFFF8
FFFFFFF8
FFFFFFF8
07C00000
07C00000
07C00000
07C00000
07C00000
07FFFF80
07FFFFC0
07FFFFC0
07C007C0
07C007C0
07C007C0
07C007C0
0F8007C0
0F8007C0
0F8007C0
1F0007C0
1E0067C0
3E007FC0
38007FC0
60000F80
ENDCHAR
STARTCHAR 2F46
ENCODING 12102
SWIDTH 960 0
DWIDTH 32 0
BBX 29 27 2 -2
BITMAP
3FFFFFE0
3FFFFFE0
3FFFFFE0
001F0000
001F0000
001F0000
001F0000
001F0000
001F0000
001F0000
FFFFFFF0
FFFFFFF0
FFFFFFF0
001F0000
003E0000
003FE000
003FE000
007FE000
007FE000
00FBE000
01FBE000
01F3E000
03E3FFF8
0FC3FFF0
1F83FFF0
7C01FFE0
80000000
ENDCHAR
STARTCHAR 2F47
ENCODING 12103
SWIDTH 960 0
DWIDTH 32 0
BBX 24 28 4 -3
BITMAP
F80000
FFFFFF
FFFFFF
FFFFFF
F8001F
F8001F
F8001F
F8001F
F8001F
F8001F
F8001F
F8001F
FFFFFF
FFFFFF
FFFFFF
F8001F
F8001F
F8001F
F8001F
F8001F
F8001F
F8001F
F8001E
FFFF9E
FFFFBE
7FFFBC
000078
0000E0
ENDCHAR
STARTCHAR 2F48
ENCODING 12104
SWIDTH 990 0
DWIDTH 33 0
BBX 25 29 4 -2
BITMAP
F8000000
FFFFFF80
FFFFFF80
FFFFFF80
F8000F80
F8000F80
F8000F80
F8000F80
F8000F80
F8000F80
F8000F80
F8000F80
FFFF0F80
FFFF0F80
FFFF0F80
F8000F80
F8000F80
F8000F80
F8000F80
F8000F80
F8000F80
F8000F80
F8000F80
F8000F80
FFFFCF00
FFFFDF00
7FFFDE00
00003C00
00004000
ENDCHAR
STARTCHAR 2F49
ENCODING 12105
SWIDTH 990 0
DWIDTH 33 0
BBX 26 27 4 0
BITMAP
1F000000
1FFFFF80
1FFFFFC0
1FFFFFC0
1F0007C0
1F0007C0
1F0007C0
1F0007C0
1FFFFFC0
1FFFFFC0
1FFFFFC0
1F0007C0
1F0007C0
1F0007C0
1F0007C0
1F0007C0
1FFFFFC0
1FFFFFC0
1FFFFFC0
3E0007C0
3E0007C0
3E0007C0
3C0007C0
7C0007C0
78007FC0
F0007FC0
C0003F80
ENDCHAR
STARTCHAR 2F4A
ENCODING 12106
SWIDTH 960 0
DWIDTH 32 0
BBX 28 28 2 -2
BITMAP
000F8000
000F8000
000F8000
000F8000
000F8000
000F8000
000F8000
FFFFFFF0
FFFFFFF0
FFFFFFF0
07CF9F00
07CF9F00
07CF9F00
07CF9F00
07CF9F00
0F8F8F00
0F8F8F80
0F8F8F80
1F0F8780
1F0F87C0
1E0F83C0
3C0F83C0
780F81E0
E00F8070
000F8000
000F8000
000F8000
000E0000
ENDCHAR
STARTCHAR 2F4B
ENCODING 12107
SWIDTH 990 0
DWIDTH 33 0
BBX 28 29 3 -2
BITMAP
1E000000
1F800000
1F800100
1F8003E0
1FFFFFF0
1FFFFFE0
1FFFFFE0
3F0007E0
3E1F07C0
3E1F07C0
7C1F0F80
781F0F00
F01F1C00
C01F0000
001F0000
001F8000
001F8000
003FC000
003FE000
007FE000
007FF000
00FCFC00
00FCFE00
01F87FC0
03F03FF0
07E03FE0
1FC01FE0
3F000FC0
F0000300
ENDCHAR
STARTCHAR 2F4C
ENCODING 12108
SWIDTH 960 0
DWIDTH 32 0
BBX 30 27 1 0
BITMAP
0003E000
0003E000
0003E000
0003E000
0003E000
0003E000
0F83E000
0F83E000
0F83E000
0F83FFF8
0F83FFF8
0F83FFF8
0F83E000
0F83E000
0F83E000
0F83E000
0F83E000
0F83E000
0F83E000
0F83E000
0F83E000
0F83E000
0F83E000
0F83E000
FFFFFFFC
FFFFFFFC
FFFFFFFC
ENDCHAR
STARTCHAR 2F4D
ENCODING 12109
SWIDTH 990 0
DWIDTH 33 0
BBX 29 28 3 -2
BITMAP
FFFFFFF8
FFFFFFF8
FFFFFFF8
01F80000
01F80000
03F80000
03F00000
03FFFFC0
07FFFFC0
07FFFFC0
0FC00FC0
0FC01FC0
1F801F80
1F3C3F80
3E7E3F80
7C7E7F00
707E7F00
807EFE00
003DFC00
0003FC00
0007F800
000FF000
003FE000
007F8000
01FF0000
0FF80000
7FC00000
80000000
ENDCHAR
STARTCHAR 2F4E
ENCODING 12110
SWIDTH 960 0
DWIDTH 32 0
BBX 29 28 2 -1
BITMAP
07C00000
07FFFE00
07FFFF00
07FFFF00
07C01F00
07C01F00
07C01F00
0F801F00
0F801FF8
1F001FF0
1F001FF0
7C000FF0
F0000000
00000000
1FFFFF80
1FFFFF80
1FFFFF80
03801F80
03C03F80
01E07F00
01F8FF00
00FFFE00
007FFC00
003FFFF0
007FFFF0
01FFFFF0
1FFFFFE0
FFF03FC0
ENDCHAR
STARTCHAR 2F4F
ENCODING 12111
SWIDTH 960 0
DWIDTH 32 0
BBX 30 28 1 -1
BITMAP
1FFFFFC0
1FFFFFE0
1FFFFFE0
1F07C3E0
1F07C3E0
1F07C3E0
1F07C3E0
1F07C3E0
1F07C3E0
1F07C3E0
FFFFFFFC
FFFFFFFC
FFFFFFFC
1F07C3E0
1F07C3E0
1F07C3E0
1F07C3E0
1F0FC3E0
1F0F83E0
1F0F83F8
1FFFFFF8
1FFFFFF8
0FFFFFE0
007E03E0
00FC03E0
01F83FE0
03F03FE0
07001FC0
ENDCHAR
STARTCHAR 2F50
ENCODING 12112
SWIDTH 960 0
DWIDTH 32 0
BBX 29 27 2 -2
BITMAP
3E01F000
3E01F000
3E01F000
3E01F000
3E01F000
3E01F0C0
3E01F1E0
3E01F1F0
3E01F3F0
3FF9F7F0
3FF9FFE0
3FF9FF80
3E01FE00
3E01F000
3E01F000
3E01F000
3E01F000
3E01F000
3E01F000
3E01F000
3E01F000
3E3DF000
FFF9F000
FFE1FFF8
FFC1FFF8
FF01FFF0
7C00FFF0
ENDCHAR
STARTCHAR 2F51
ENCODING 12113
SWIDTH 990 0
DWIDTH 33 0
BBX 30 28 1 -1
BITMAP
00000080
00000780
00007FC0
001FFFC0
1FFFFFC0
0FFFFF80
00FFFC00
000F8000
000F8000
000F8000
000FFFF0
3FFFFFF0
3FFFFFF0
3FFF8000
000F8000
000F8000
000F8000
000FFFFC
FFFFFFFC
FFFFFFFC
FFFF8000
000F8000
000F8000
000F8000
000FFFFC
000FFFFC
000FFFFC
0007FFF8
ENDCHAR
STARTCHAR 2F52
ENCODING 12114
SWIDTH 960 0
DWIDTH 32 0
BBX 28 28 2 -1
BITMAP
00000700
00007F80
3E0FFF80
3FFFFFC0
3FFFFF00
3EFFF000
3E01E000
3E01F000
3E01F000
3E01F000
3E00F800
3E00F800
3FFFFFF0
3FFFFFF0
3FFFFFF0
3E007C00
3E007E00
3E003E00
3E003E00
3E003E00
3E001F00
3E061F00
3FFC1F00
FFF81F80
FFF00FB0
FFC00FF0
7F000FF0
7C000780
ENDCHAR
STARTCHAR 2F53
ENCODING 12115
SWIDTH 960 0
DWIDTH 32 0
BBX 30 28 1 0
BITMAP
1F000000
1F000000
1F000000
1FFFFFF0
1FFFFFF0
1FFFFFF0
3E000000
3E000000
3DFFFFC0
79FFFFC0
71FFFFC0
C0000000
00000000
0FFFFF00
0FFFFFC0
0FFFFFC0
000007C0
000007C0
000007C0
000007C0
000007C0
000007C0
000007C0
000007C0
000007D8
000007F8
000007FC
000003E0
ENDCHAR
STARTCHAR 2F54
ENCODING 12116
SWIDTH 990 0
DWIDTH 33 0
BBX 29 28 2 -1
BITMAP
000F8000
000F8000
000F8000
000F8000
000F8000
000F8000
000F81C0
000F81E0
FFCFC3F0
FFCFC7F0
FFCFEFE0
07CFFFC0
07CFFE00
07CFF000
07CFF800
0F8FFC00
0F8FBE00
0F8FBE00
0F0FBF00
1F0F9F80
1E0F9FE0
3E0F8FF0
3C0F8FF8
780F87F0
F00F83E0
C0FF81C0
00FF8000
003F0000
ENDCHAR
STARTCHAR 2F55
ENCODING 12117
SWIDTH 990 0
DWIDTH 33 0
BBX 28 28 3 -2
BITMAP
001F0000
001F0000
001F0000
001F0000
001F0000
011F0000
011F0380
031F03C0
071F07E0
0F1F07E0
1F1F07E0
7E1F0FC0
FE1F0F80
7E1F9F00
3C3FB800
183FC000
003FC000
007FE000
007DF000
00FCF800
00F8FC00
01F87E00
03F07F80
03E03FE0
07C03FF0
1F801FE0
3E000FC0
F8000380
ENDCHAR
STARTCHAR 2F56
ENCODING 12118
SWIDTH 960 0
DWIDTH 32 0
BBX 30 29 1 -1
BITMAP
00000180
000007C0
00007FE0
0F8FFFE0
0FFFFFE0
0FFFFFE0
0F9FFF00
0F87C700
0F87C700
0F87C700
0F87C700
0F87C700
0F87C780
0F87C780
0F87C780
0F87C780
0F87C780
0F87C7C0
0F87C7C0
0F07C7C0
1F07C3E0
1F07C3E0
1F07C3F0
1E07C3F8
3E07C3F8
3C07C1FC
3807C1FC
7007C0F8
E0070060
ENDCHAR
STARTCHAR 2F57
ENCODING 12119
SWIDTH 990 0
DWIDTH 33 0
BBX 30 27 1 0
BITMAP
00F07800
01F83F00
01FC1FC0
01F80FF0
03F807F8
07F003F8
07E001F8
0FC000F8
1F801CF8
3FC01F70
F0C03F80
00E03F80
00F07F00
00787F00
007EFE00
003FFC00
001FFC00
001FF800
000FF800
000FFE00
003FFFC0
007FFFFC
00FFFFFC
01FC7FFC
07F81FF8
1FC007F8
7C0000F0
ENDCHAR
STARTCHAR 2F58
ENCODING 12120
SWIDTH 990 0
DWIDTH 33 0
BBX 29 29 2 -2
BITMAP
00000800
00001E00
00001F00
00003F80
0F807F80
03FCFF00
00FFFE00
003FFC00
000FFF00
001FFFC0
007FFFF0
00FFFFF0
03FE1FF0
1FF807E0
FF8003E0
00000CC0
03001F00
01803F00
00E07F80
00F8FF00
007FFF00
003FFE00
001FFC00
000FFF00
003FFFF8
00FFFFF8
03FFFFF0
1FF81FF0
7F8007E0
ENDCHAR
STARTCHAR 2F59
ENCODING 12121
SWIDTH 960 0
DWIDTH 32 0
BBX 25 28 4 -2
BITMAP
00000F80
00000F80
3E000F80
3E000F80
3E000F80
3E000F80
3E000F80
3E000F80
3E000F80
3FFFFF80
3FFFFF80
0FFFFF80
00000F80
00000F80
00000F80
FFFFFF80
FFFFFF80
FFFFFF80
0F800F80
0F800F80
0F800F80
0F800F80
1F000F80
1F000F80
3E000F80
3E000F80
78000F80
E0000E00
ENDCHAR
STARTCHAR 2F5A
ENCODING 12122
SWIDTH 960 0
DWIDTH 32 0
BBX 29 28 2 -1
BITMAP
00007C00
1F007C00
1F007C00
1F007C00
1F007C00
1F007C00
1F007C00
1F007C00
1F007C00
1FFFFFF8
1FFFFFF8
1FFFFFF8
1F000000
1F000000
1F000000
1FFFFF00
1FFFFF80
1FFFFF80
1F000F80
1F000F80
1E000F80
3E000F80
3E000F80
3C000F80
3C000F80
78000F80
70000F00
80000800
ENDCHAR
STARTCHAR 2F5B
ENCODING 12123
SWIDTH 990 0
DWIDTH 33 0
BBX 29 27 3 -2
BITMAP
FFFFFFF0
FFFFFFF0
FFFFFFF0
00007C00
1F007C00
1F007C00
1E007C00
3E007C00
3E007C00
3E007C00
3C007C00
7FFFFFF8
7FFFFFF8
3FFFFFF8
00007C00
01E07C00
03F87C00
03F07C00
03F07C00
07E07C00
07E07C00
0FC07C00
1F807C00
1F877C00
7E07FC00
FC07FC00
0000F800
ENDCHAR
STARTCHAR 2F5C
ENCODING 12124
SWIDTH 990 0
DWIDTH 33 0
BBX 30 27 1 -2
BITMAP
0007C000
0007C000
0F07C000
0FC7C000
0F87C000
0F87C000
1FFFFFE0
1FFFFFE0
1FFFFFE0
1F07C000
3E07C000
3C07C000
3807C000
6007C000
0007C000
FFFFFFFC
FFFFFFFC
FFFFFFFC
0007C000
0007C000
0007C000
0007C000
0007C000
0007C000
0007C000
0007C000
00078000
ENDCHAR
STARTCHAR 2F5D
ENCODING 12125
SWIDTH 990 0
DWIDTH 33 0
BBX 28 27 3 -1
BITMAP
001F0000
001F0000
001F0E00
001F1F00
001F1F00
001F1F00
001F0E00
001F0000
001F0000
FFFFFFE0
FFFFFFE0
FFFFFFE0
003F8000
003F8000
003FC000
007FE000
007CE000
00FCF000
00F8F800
01F87C00
01F07F00
03F03F80
07E03FE0
0FC01FF0
1F800FE0
3E0007C0
F0000380
ENDCHAR
STARTCHAR 2F5E
ENCODING 12126
SWIDTH 990 0
DWIDTH 33 0
BBX 29 28 2 -1
BITMAP
00070000
000F8000
000F8000
000F8000
FFFFFFF8
FFFFFFF8
FFFFFFF8
003F0000
003F0000
007E0C00
00FC1E00
01F83F00
3FFFFF80
3FFFFF00
1FFFFE00
1FFFFC00
0FF3F800
060FF000
001FC000
003F8600
007E0780
01F803C0
3FFFFFE0
3FFFFFF0
3FFFFDF0
3FFFE1F0
1FFE01F0
1FC000C0
ENDCHAR
STARTCHAR 2F5F
ENCODING 12127
SWIDTH 990 0
DWIDTH 33 0
BBX 29 26 2 -1
BITMAP
7FFFFFF0
7FFFFFF0
7FFFFFF0
000F8000
000F8000
000F8000
000F8000
000F8000
000F8000
000F8000
000F8000
3FFFFFE0
3FFFFFE0
3FFFFFE0
000F8000
000F8000
000F8780
000F8FC0
000F8FC0
000F8FC0
000F8FC0
000F8780
000F8000
FFFFFFF8
FFFFFFF8
FFFFFFF8
ENDCHAR
STARTCHAR 2F60
ENCODING 12128
SWIDTH 990 0
DWIDTH 33 0
BBX 29 29 2 -1
BITMAP
00000100
00000F80
00007FC0
1F0FFFC0
1FFFFFC0
1FFFFFC0
1F3FFE00
1F000E00
1F0F8E00
1F0F8E00
1F0F8E00
1F0F8E00
1F0F8F00
1F0F8F00
1F0F0F00
1F1F0F00
1F1F0F00
1F1F0F80
1F1E0F80
1F1E0780
1E3F87C0
1E3CC7C0
1E3CF7E0
3C38FFF0
3DFFFFF0
3DFFFFF8
78FF7FF8
70FC71F0
C06000C0
ENDCHAR
STARTCHAR 2F61
ENCODING 12129
SWIDTH 960 0
DWIDTH 32 0
BBX 30 27 1 -2
BITMAP
FFFFFFF0
FFFFFFF0
FFFFFFF0
0F800000
0F800000
0F800000
0F800000
0FFFFF00
0FFFFF80
0FFFFF80
0F800F80
0F800F80
0F870F80
0F8F8F80
0F8F8F80
0F8F8F80
0F8F8F80
0F870F80
0F800F80
0F800F80
0F9F0F80
0FFC0F80
7FF80FFC
7FE00FF8
3FC00FF8
3F0007F0
08000000
ENDCHAR
STARTCHAR 2F62
ENCODING 12130
SWIDTH 960 0
DWIDTH 32 0
BBX 30 27 1 0
BITMAP
0F8007C0
0F8007C0
0F8007C0
0F8007C0
FFFFFFFC
FFFFFFFC
FFFFFFFC
0F8007C0
0F8007C0
0F8007C0
0F8007C0
0F8007C0
0F8007C0
0F8007C0
0FFFFFC0
0FFFFFC0
0FFFFFC0
0F8007C0
0F8007C0
0F8007C0
0F8007C0
0F8007C0
0F8007C0
0F8007C0
0FFFFFC0
0FFFFFC0
07FFFF80
ENDCHAR
STARTCHAR 2F63
ENCODING 12131
SWIDTH 990 0
DWIDTH 33 0
BBX 29 28 2 -1
BITMAP
0007C000
0007C000
1E07C000
1F87C000
1F87C000
1F87C000
1FFFFFF0
1FFFFFF0
3FFFFFF0
3E07C000
3E07C000
3C07C000
7807C000
7007C000
C007C000
1FFFFFC0
1FFFFFC0
1FFFFFC0
0007C000
0007C000
0007C000
0007C000
0007C000
0007C000
0007C000
FFFFFFF8
FFFFFFF8
FFFFFFF8
ENDCHAR
STARTCHAR 2F64
ENCODING 12132
SWIDTH 990 0
DWIDTH 33 0
BBX 28 27 3 -2
BITMAP
3E000000
3FFFFFE0
3FFFFFF0
3FFFFFF0
3E07C1F0
3E07C1F0
3E07C1F0
3E07C1F0
3E07C1F0
3FFFFFF0
3FFFFFF0
3FFFFFF0
3E07C1F0
3E07C1F0
3E07C1F0
3E07C1F0
3FFFFFF0
3FFFFFF0
3FFFFFF0
3E07C1F0
3C07C1F0
3C07C1F0
7C07C1F0
7807D1F0
7807DFF0
F007DFF0
C0070FE0
ENDCHAR
STARTCHAR 2F65
ENCODING 12133
SWIDTH 990 0
DWIDTH 33 0
BBX 27 26 3 -1
BITMAP
F8000000
FFFFFFE0
FFFFFFE0
FFFFFFE0
F81F03E0
F81F03E0
F81F03E0
F81F03E0
F81F03E0
F81F03E0
F81F03E0
F81F03E0
FFFFFFE0
FFFFFFE0
FFFFFFE0
F81F03E0
F81F03E0
F81F03E0
F81F03E0
F81F03E0
F81F03E0
F81F03E0
F81F03E0
FFFFFFE0
FFFFFFE0
7FFFFFC0
ENDCHAR
STARTCHAR 2F66
ENCODING 12134
SWIDTH 990 0
DWIDTH 33 0
BBX 29 28 2 -2
BITMAP
000000C0
000000F8
7FFFFFF8
7FFFFFF8
7FFFFFF8
0007C1F0
0007C3E0
0007C3E0
0007C3C0
0007C700
1F87C000
1FC7C000
1F87C000
1F87FFE0
1F87FFE0
1F87FFE0
1F87C000
1F87C000
1F87C000
1F87C000
1FC7C000
3FE7C000
3FF7C000
3DFFC000
7CFFFFF8
787FFFF8
703FFFF8
C01FFFF0
ENDCHAR
STARTCHAR 2F67
ENCODING 12135
SWIDTH 990 0
DWIDTH 33 0
BBX 31 29 1 -1
BITMAP
00001000
00007C00
00007C00
00007C00
01FFFFFE
01FFFFFE
01FFFFFE
39F00000
7DF00000
7DF00000
7DF00000
39F00000
01F00000
03F00000
07F00000
1FF00000
3FF00000
FFF00000
7DF00000
79F00000
39F00000
01E00000
03E00000
03E00000
03C00000
07800000
07000000
0E000000
10000000
ENDCHAR
STARTCHAR 2F69
ENCODING 12137
SWIDTH 990 0
DWIDTH 33 0
BBX 25 29 4 -2
BITMAP
00F00000
00F80000
00F80000
F8F00000
FFFFFF00
FFFFFF80
FFFFFF80
F8000F80
F8000F80
F8000F80
F8000F80
F8000F80
F8000F80
F8000F80
FFFFFF80
FFFFFF80
FFFFFF80
F8000F80
F8000F80
F8000F80
F8000F80
F8000F80
F8000F80
F8000F00
FFFFDF00
FFFFDF00
7FFFDE00
00003800
00004000
ENDCHAR
STARTCHAR 2F6A
ENCODING 12138
SWIDTH 960 0
DWIDTH 32 0
BBX 29 27 2 -1
BITMAP
0003E000
0003E000
1F03E0E0
1F03E0F8
1FFFFFF8
1FFFFFF0
1FFFFFF0
1F03E0E0
1F03E1E0
1F03E1C0
1F03E100
1F03E000
1FFFFFE0
1FFFFFE0
1FFFFFE0
1F7807E0
1F380FC0
1F3C1FC0
1F1F1FC0
1F1FBF80
3E0FFF00
3E07FE00
3E03FFF8
3C07FFF8
781FFFF0
70FFFFF0
C7FE0FE0
ENDCHAR
STARTCHAR 2F6B
ENCODING 12139
SWIDTH 990 0
DWIDTH 33 0
BBX 31 25 1 -1
BITMAP
1F000000
1FFFFFE0
1FFFFFF0
1FFFFFF0
1F7CF9F0
1F7CF9F0
1F7CF9F0
1F7CF9F0
1F7CF9F0
1F7CF9F0
1F7CF9F0
1F7CF9F0
1F7CF9F0
1F7CF9F0
1F7CF9F0
1F7CF9F0
1F7CF9F0
1F7CF9F0
1F7CF9F0
1F7CF9F0
1F7CF9F0
1F7CF9F0
FFFFFFFE
FFFFFFFE
FFFFFFFE
ENDCHAR
STARTCHAR 2F6C
ENCODING 12140
SWIDTH 960 0
DWIDTH 32 0
BBX 24 28 4 -3
BITMAP
F80000
FFFFFF
FFFFFF
FFFFFF
F8001F
F8001F
F8001F
F8001F
FFFFFF
FFFFFF
FFFFFF
F8001F
F8001F
F8001F
F8001F
F8001F
FFFFFF
FFFFFF
FFFFFF
F8001F
F8001F
F8001F
F8001E
FFFF9E
FFFF9E
7FFFBC
000038
000060
ENDCHAR
STARTCHAR 2F6D
ENCODING 12141
SWIDTH 990 0
DWIDTH 33 0
BBX 30 28 2 -2
BITMAP
00000300
00000380
0FFFFFC0
0FFFFFE0
0FFFFFC0
00001F80
00003F00
00007C00
00FFF000
003FC000
001FE040
0007E0F0
FFFFFFFC
FFFFFFF8
FFFFFFF8
0003E1F0
0003E1E0
03E3E1C0
03F3E380
03E3E000
07E3E000
07E3E000
0FC3E000
0F83E000
1F33E000
3E3FE000
783FE000
801FC000
ENDCHAR
STARTCHAR 2F6E
ENCODING 12142
SWIDTH 990 0
DWIDTH 33 0
BBX 29 28 2 -1
BITMAP
0F800000
0FC00000
0FC00000
0FFFFFE0
0FFFFFE0
1FFFFFE0
1F0F8000
1F0F8000
3E0F8000
380F8000
600F8000
000F8000
000F8000
000F8000
FFFFFFF8
FFFFFFF8
FFFFFFF8
001FE000
003EF000
003EF800
007CFC00
00FC7F00
01F83FC0
03F03FF8
07E01FF0
0FC00FE0
3F0007C0
40000000
ENDCHAR
STARTCHAR 2F6F
ENCODING 12143
SWIDTH 960 0
DWIDTH 32 0
BBX 29 27 2 -3
BITMAP
7FFFFFF8
7FFFFFF8
7FFFFFF8
00FC0000
00FC0000
00F80000
01F80000
01F80000
01F00000
03F00000
03E00000
07FFFFC0
07FFFFE0
0FFFFFE0
1FE003E0
3FE003E0
7FE003E0
F3E003E0
03E003E0
03E003E0
03E003E0
03E003E0
03E003E0
03FFF3C0
03FFF7C0
03FFF780
00000F00
ENDCHAR
STARTCHAR 2F70
ENCODING 12144
SWIDTH 990 0
DWIDTH 33 0
BBX 29 26 2 -1
BITMAP
0FFFFFE0
0FFFFFE0
0FFFFFE0
00000000
00000000
00000000
00000000
00000000
00000000
7FFFFFF8
7FFFFFF8
7FFFFFF8
0007C000
0007C000
0007C000
1E07C000
1F87C1E0
1F87C3F0
1F07C3F0
1F07C3F0
3E07C3F0
7C07C1E0
F807C000
007FC000
007FC000
003F8000
ENDCHAR
STARTCHAR 2F72
ENCODING 12146
SWIDTH 990 0
DWIDTH 33 0
BBX 29 28 2 -2
BITMAP
00000700
00007F00
000FFF80
3FFFFF80
0FFFFF00
01FFF000
000F8000
000F8000
000F8000
000F8000
000F8000
FFFFFFF8
FFFFFFF8
FFFFFFF8
07CF9F00
07CF9F00
07CF9F00
0FCF8F80
0F8F8F80
0F8F8F80
1F0F87C0
1F0F87C0
3E0F83E0
7C0F81F0
F00F8078
000F8000
000F8000
000E0000
ENDCHAR
STARTCHAR 2F73
ENCODING 12147
SWIDTH 960 0
DWIDTH 32 0
BBX 28 29 2 -1
BITMAP
00020000
000F0000
000F8000
000F8000
F8070000
FFFFFFF0
FFFFFFF0
FFFFFFF0
F80001F0
F80081F0
F80041F0
F9E041F0
E1F861C0
01F86000
03F86000
03F87000
03F07800
03F03800
07F03C00
07E03E00
07E03E00
0FE01F00
0FC01F80
1F801FC0
1F800FF0
3F000FF0
3C0007E0
780007C0
E0000380
ENDCHAR
STARTCHAR 2F74
ENCODING 12148
SWIDTH 960 0
DWIDTH 32 0
BBX 30 28 1 -1
BITMAP
00078000
000FC000
000FC000
000FC000
000FC000
00078000
00000000
7FFFFFF0
7FFFFFF0
7FFFFFF0
00000000
00000000
00000F00
03C01F80
07E01F80
07E01F80
07E01F00
07E03F00
03C03F00
00007E00
00007C00
0000F800
0001F000
00038000
00000000
FFFFFFFC
FFFFFFFC
FFFFFFFC
ENDCHAR
STARTCHAR 2F75
ENCODING 12149
SWIDTH 990 0
DWIDTH 33 0
BBX 31 28 1 -2
BITMAP
1C006000
3F00F800
3F00F800
3F00F800
3E00F800
3FFEFFFE
3FFEFFFE
3FFFFFFE
7FE1E7C0
7BE1E7C0
7BE1C7C0
73E187C0
63E307C0
83E007C0
03E007C0
03E007C0
03E007C0
03E007C0
03E007C0
03E007C0
03E007C0
03E007C0
03E007C0
03E007C0
03E07FC0
03E07FC0
03E07FC0
03C00F80
ENDCHAR
STARTCHAR 2F76
ENCODING 12150
SWIDTH 960 0
DWIDTH 32 0
BBX 29 28 1 -2
BITMAP
0007C000
0007C000
0007C000
0007C180
0F07C3E0
1F87C3F0
1F87C3E0
1F87C7E0
1F87C7C0
0F07CF00
0007CC00
0007C000
FFFFFFF8
FFFFFFF8
FFFFFFF8
07C7CF80
07C7CF80
07C7CF80
07C7CF80
0F87C7C0
0F87C7C0
0F87C7C0
1F07C3E0
3E07C1E0
3C07C0F0
7007C038
0007C000
00070000
ENDCHAR
STARTCHAR 2F77
ENCODING 12151
SWIDTH 990 0
DWIDTH 33 0
BBX 28 28 3 -1
BITMAP
000C0000
001E0000
003F0000
007F0000
00FE0000
01FC1800
03F03E00
7FFFFE00
7FFFFF00
7FFFFE00
3FFFFC00
3F9FF000
007FE000
00FF0700
07FC03C0
7FFFFFE0
7FFFFFF0
7FFFFDF0
3FFF81E0
3FCF8080
000F8000
3C0F81C0
3E0F83E0
3E0F83E0
3E0F83E0
7C7F83E0
F07F81C0
001F0000
ENDCHAR
STARTCHAR 2F78
ENCODING 12152
SWIDTH 990 0
DWIDTH 33 0
BBX 29 28 2 -1
BITMAP
0FC00000
0FC00000
0F800000
0FFFFFE0
0FFFFFE0
1FFFFFE0
1F07C000
1E07C000
3C07C000
3807C000
6007C000
0007C000
0007C000
FFFFFFF8
FFFFFFF8
FFFFFFF8
0007C000
0007C000
3E07C1F0
3E07C1F0
3E07C1F0
3E07C1F0
3E07C1F0
3E07C1F0
3FFFFFF0
3FFFFFF0
1FFFFFF0
000001F0
ENDCHAR
STARTCHAR 2F79
ENCODING 12153
SWIDTH 960 0
DWIDTH 32 0
BBX 28 27 2 -1
BITMAP
F8000000
FFFFFFF0
FFFFFFF0
FFFFFFF0
F80001F0
F87811F0
F87E3FF0
FA7C3FF0
FB7C3FF0
F9FE7FF0
F9FDFDF0
F9F9FDF0
F9F8FDF0
F9F0F9F0
F9F0F9F0
F9F8FDF0
FBF8FFF0
FBFDFFF0
FBFDFFF0
FFFF9FF0
FF7B1DF0
FE2601F0
F80001F0
F80001F0
F8000FF0
F8000FF0
F0000FF0
ENDCHAR
STARTCHAR 2F7A
ENCODING 12154
SWIDTH 990 0
DWIDTH 33 0
BBX 29 29 2 -1
BITMAP
00800800
01C01E00
03E01F00
03E01F00
03E03E00
7FFFFFF0
7FFFFFF0
7FFFFFF0
000F8000
000F8000
000F8000
000F8000
3FFFFFE0
3FFFFFE0
3FFFFFE0
000F8000
000F8000
000F8000
000F8000
FFFFFFF8
FFFFFFF8
FFFFFFF8
000F8000
000F8000
000F8000
000F8000
000F8000
000F8000
000E0000
ENDCHAR
STARTCHAR 2F7B
ENCODING 12155
SWIDTH 990 0
DWIDTH 33 0
BBX 29 27 2 -2
BITMAP
7FF8FFF0
7FFCFFF8
7FFCFFF8
007C00F8
007C00F8
007C00F8
387C38F8
7C7C7CF8
7C7C7CF8
7C7C7CF8
387C38F8
007C00F8
00FC01F8
01FC07F8
07FC0FF8
0FFC1FF8
3F7C7EF8
7F7DFEF8
FE7DFCF8
7C7CF8F8
787C70F8
107C00F8
007C00F8
067C0CF8
07FC0FF8
07FC0FF8
01F803F0
ENDCHAR
STARTCHAR 2F7C
ENCODING 12156
SWIDTH 990 0
DWIDTH 33 0
BBX 30 28 2 0
BITMAP
001F0000
001F0000
001F0000
1FFFFE00
1FFFFE00
1FFFFE30
001F00F0
001F03F8
001F0FE0
001F3F80
FFFFFFFC
FFFFFFFC
FFFFFFFC
003F8000
00FE0700
01F80F80
07E03F80
1FE0FFC0
7FE7FFC0
FFFFFE00
F3FFF000
E3E00000
03E00000
03E00000
03FFFFF8
03FFFFF0
03FFFFF0
01FFFFE0
ENDCHAR
STARTCHAR 2F7D
ENCODING 12157
SWIDTH 990 0
DWIDTH 33 0
BBX 29 26 2 -2
BITMAP
FFFFFFF8
FFFFFFF8
FFFFFFF8
000F8000
000F0000
7C1F0000
7FFFFFF8
7FFFFFF8
7FFFFFF8
7C7CF8F8
7C7CF8F8
7C7CF8F8
7C7CF8F8
7C7CF8F8
7C7CF8F8
7C7CF8F8
7C7CF8F8
7C7CF8F8
7C7CF8F8
7C7CF8F8
7C7CF8F8
7C7CF8F8
7C7CF8F8
7C7CFBF8
7C78F3F8
780001F0
ENDCHAR
STARTCHAR 2F7E
ENCODING 12158
SWIDTH 990 0
DWIDTH 33 0
BBX 29 28 2 -1
BITMAP
000F8000
000F8000
000F8000
7FFFFFF0
7FFFFFF0
7FFFFFF0
000F8000
000F8000
000F8000
1FFFFFE0
1FFFFFE0
1FFFFFE0
000F8000
000F8000
000F8000
FFFFFFF8
FFFFFFF8
FFFFFFF8
0FCF8F80
0F8F8FC0
0F8F8FC0
1F8F8FC0
1F0F87C0
3F0F83E0
7E0F83F0
F80F80F8
000F0000
00080000
ENDCHAR
STARTCHAR 2F7F
ENCODING 12159
SWIDTH 990 0
DWIDTH 33 0
BBX 29 28 2 -2
BITMAP
FFFFFFF0
FFFFFFF0
FFFFFFF0
0F800F80
0F800F80
0F800F80
0F800F80
0FFFFF80
0FFFFF80
0FFFFF80
0F800F80
0F800F80
0F800F80
0FFFFF80
0FFFFF80
0FFFFF80
0F800F80
0F800F80
0F800F80
0F800FF8
0FFFFFF8
FFFFFFF8
FFFFFF80
00000F80
00000F80
00000F80
00000F00
00000C00
ENDCHAR
STARTCHAR 2F80
ENCODING 12160
SWIDTH 960 0
DWIDTH 32 0
BBX 30 28 1 -2
BITMAP
000F8000
000F8000
0FFFFFE0
0FFFFFE0
0FFFFFE0
000F83E0
000F83E0
FFFFFFFC
FFFFFFFC
FFFFFFFC
000F83E0
000F83E0
0FFFFFE0
0FFFFFE0
0FFFFF80
000F8000
3FFFFFF0
3FFFFFF0
3FFFFFF0
000F8000
000F8000
FFFFFFFC
FFFFFFFC
FFFFFFFC
000F8000
000F8000
000F8000
000E0000
ENDCHAR
STARTCHAR 2F81
ENCODING 12161
SWIDTH 990 0
DWIDTH 33 0
BBX 27 28 3 -2
BITMAP
001F0000
001F0000
001F0000
F81F0000
FFFFFFC0
FFFFFFE0
FFFFFFE0
F81F03E0
F83F73E0
F83EFBE0
F87EFBE0
F8F8FBE0
FBF073E0
F80003E0
F81F03E0
F81F03E0
F81F03E0
F81F03E0
F81F03E0
F83E73E0
F83EFBE0
F87CFBE0
F8FCFBE0
FBF073E0
F80013E0
F8001FE0
F8001FE0
E00007C0
ENDCHAR
STARTCHAR 2F82
ENCODING 12162
SWIDTH 960 0
DWIDTH 32 0
BBX 26 27 3 -1
BITMAP
FFFFFFC0
FFFFFFC0
FFFFFFC0
F80F8000
F80F8000
F80F8000
F80F8000
F80F8000
FFFFFE00
FFFFFF80
FFFFFF80
F8000F80
F8000F80
F8000F80
F8000F80
F8000F80
FFFFFF80
FFFFFF80
FFFFFF00
F80F8000
F80F8000
F80F8000
F80F8000
F80F8000
FFFFFFC0
FFFFFFC0
7FFFFFC0
ENDCHAR
STARTCHAR 2F83
ENCODING 12163
SWIDTH 990 0
DWIDTH 33 0
BBX 25 30 4 -3
BITMAP
00F00000
00F80000
00F80000
F8F00000
FFFFFF00
FFFFFF80
FFFFFF80
F8000F80
F8000F80
F8000F80
F8000F80
FFFFFF80
FFFFFF80
FFFFFF80
F8000F80
F8000F80
F8000F80
F8000F80
FFFFFF80
FFFFFF80
FFFFFF80
F8000F80
F8000F80
F8000F80
F8000F00
FFFFCF00
FFFFDF00
7FFFDE00
00003C00
00007000
ENDCHAR
STARTCHAR 2F84
ENCODING 12164
SWIDTH 960 0
DWIDTH 32 0
BBX 30 27 1 -1
BITMAP
7FFFFFF8
7FFFFFF8
7FFFFFF8
001E0000
003F0000
003F0000
007E0E00
00FE0780
01F807E0
1FFFFFF0
1FFFFFF0
1FFFFDE0
1FFFC1C0
0FF80000
0007C000
0007C000
0007C000
1FFFFFF0
1FFFFFF0
1FFFFFF0
0007C000
0007C000
0007C000
0007C000
FFFFFFFC
FFFFFFFC
FFFFFFFC
ENDCHAR
STARTCHAR 2F85
ENCODING 12165
SWIDTH 960 0
DWIDTH 32 0
BBX 28 27 2 0
BITMAP
00700000
00F80000
FBF8FFE0
FFF8FFF0
FFE0FFF0
FE0001F0
F80001F0
F80001F0
F80001F0
F80001F0
F80001F0
F80001F0
FFF0FFF0
FFF0FFF0
FFF0FFF0
F80001F0
F80001F0
F80001F0
F80001F0
F80001F0
F80001F0
F80001F0
F80001F0
F80001F0
FFFFFFF0
FFFFFFF0
7FFFFFE0
ENDCHAR
STARTCHAR 2F86
ENCODING 12166
SWIDTH 990 0
DWIDTH 33 0
BBX 30 30 1 -2
BITMAP
00000300
00001F80
0001FF80
003FFFC0
3FFFFFC0
1FFFFF80
01FFFC00
000F8000
000F8000
000F8000
000F8000
FFFFFFFC
FFFFFFFC
FFFFFFFC
000F8000
000F8000
1F0F8000
1FFFFFE0
1FFFFFE0
1FFFFFE0
1F0003E0
1F0003E0
1F0003E0
1F0003E0
1F0003E0
1F0003E0
1FFFE3E0
1FFFE7C0
0FFFE780
00000E00
ENDCHAR
STARTCHAR 2F87
ENCODING 12167
SWIDTH 960 0
DWIDTH 32 0
BBX 29 28 2 0
BITMAP
3C000F80
7E000F80
7E000F80
7E000F80
7E000F80
7FFBFFF8
7FFBFFF8
7FFBFFF8
78F80F80
78F80F80
70FBCF80
70FBCF80
70FBCF80
EFFBCF80
DFF3CF80
9FF3CF80
1FF3CF80
1FF3FFF8
03E3FFF8
03E1FFF8
07C00F80
07C00F80
0F800F80
0F800F80
1F000F80
3E000F80
78000F80
E0000C00
ENDCHAR
STARTCHAR 2F88
ENCODING 12168
SWIDTH 960 0
DWIDTH 32 0
BBX 30 29 1 -1
BITMAP
000E0000
000F8000
000F8000
001F0000
0FFFFFE0
0FFFFFE0
0FFFFFE0
0F8003E0
0F8003E0
0F8F83E0
0F87E3E0
0F83E3E0
0F83C3E0
0F8183E0
0F8003E0
FFFFFFFC
FFFFFFFC
FFFFFFFC
0F8003E0
0F8F03E0
0F87E3E0
0F87E3E0
0F83E3E0
0F01C3E0
1F0003E0
1E0003E0
1E003FE0
3C003FE0
70001FC0
ENDCHAR
STARTCHAR 2F89
ENCODING 12169
SWIDTH 990 0
DWIDTH 33 0
BBX 29 28 2 -2
BITMAP
3E000000
3FFFFFC0
3FFFFFC0
3FFFFFC0
3E0007C0
3E0007C0
3FFFFFC0
3FFFFFC0
3FFFFFC0
3E0007C0
3E0007C0
3E0007C0
3FFFFFC0
3FFFFFC0
3FFFFF80
3E038080
3E03C1C0
3E03E1E0
3E01F3F0
3E01FFE0
3E00FF80
3E3C7F00
3FF87FC0
FFF03FF8
7FC01FF0
7F800FE0
7E0003C0
38000080
ENDCHAR
STARTCHAR 2F8A
ENCODING 12170
SWIDTH 990 0
DWIDTH 33 0
BBX 28 29 3 -1
BITMAP
08000000
1F000000
1F801000
1F803C00
1FFFFE00
3FFFFE00
3FFFFE00
3C00FC00
7801F800
7001F000
FC03E000
7FFFFF80
7FFFFFC0
7FFFFFC0
7C1F07C0
7C1F07C0
7C1F07C0
7C1F07C0
7FFFFFC0
7FFFFFC0
7FFFFF80
7C000000
7C000000
7C000000
7C000000
7FFFFFF0
7FFFFFF0
7FFFFFE0
3FFFFFE0
ENDCHAR
STARTCHAR 2F8C
ENCODING 12172
SWIDTH 960 0
DWIDTH 32 0
BBX 30 28 1 -1
BITMAP
0007C000
0007C000
0007FFF0
0007FFF0
0007FFF0
0007C000
0007C020
3FFFFFFC
3FFFFFFC
3FFFFFF8
3E0000F8
3E0000F0
3E03E1E0
3E03E1C0
3E03E200
3E03E000
3E03FFF0
3E7FFFF0
3EFFFFE0
3EFFE000
3EC3E000
3C03E000
3C03E000
3C03E000
7803FFFC
7803FFF8
7003FFF8
E001FFF0
ENDCHAR
STARTCHAR 2F8D
ENCODING 12173
SWIDTH 960 0
DWIDTH 32 0
BBX 28 28 2 -1
BITMAP
001F0000
001F0000
001F0000
001F0000
001F0000
7FFFFF00
7FFFFFC0
7FFFFFC0
7C1F07C0
7C1F07C0
7C1F07C0
7C1F07C0
7C1F07C0
7C1F07C0
7C1F07C0
7FFFFFC0
7FFFFFC0
3FFFFF80
001F0000
001F0400
001F0300
001F03C0
001FFFE0
FFFFFFF0
FFFFFDF0
FFFFE0F0
FFFE00E0
7F8000C0
ENDCHAR
STARTCHAR 2F8E
ENCODING 12174
SWIDTH 990 0
DWIDTH 33 0
BBX 31 28 1 -1
BITMAP
00080000
001F0000
001F0000
001E0000
001E0000
1F3C0000
1FFFFFF0
1FFFFFF0
1FFFFFF0
1F7CF9F0
1F7CF9F0
1F7CF9F0
1F7CF9F0
1F7CF9F0
1F7CF9F0
1F7CF9F0
1F7CF9F0
1F7CF9F0
1F7CF9F0
1F7CF9F0
1F7CF9F0
1F7CF9F0
1F7CF9F0
1F7CF9F0
1F7CF9F0
FFFFFFFE
FFFFFFFE
FFFFFFFE
ENDCHAR
STARTCHAR 2F8F
ENCODING 12175
SWIDTH 990 0
DWIDTH 33 0
BBX 31 28 1 -2
BITMAP
02000000
07800000
07C3FFFC
0FE3FFFC
0FC3FFFC
1F800000
3E000000
3C000000
70000000
83800000
07E00000
07F7FFFE
0FE7FFFE
1FC7FFFE
1F000F80
3E000F80
7F800F80
EF800F80
0F800F80
0F800F80
0F800F80
0F800F80
0F800F80
0F800F80
0F800F80
0F807F80
0F807F80
0F003F80
ENDCHAR
STARTCHAR 2F90
ENCODING 12176
SWIDTH 990 0
DWIDTH 33 0
BBX 29 29 2 -3
BITMAP
00070000
000F8000
000F8000
000F8000
00070000
FFFFFFF8
FFFFFFF8
FFFFFFF8
00F9C000
00FDC000
01FCC000
01FCE0E0
03F8E0F0
07F0F1F8
0FE0F1F0
1FC0FBE0
3FE07FC0
7FE07F80
FBE07C00
03E03E00
03E03F00
03E01F80
03E09FC0
03FF0FF0
1FFE0FF8
1FF807F0
1FF003F0
0FC001C0
06000000
ENDCHAR
STARTCHAR 2F93
ENCODING 12179
SWIDTH 960 0
DWIDTH 32 0
BBX 28 28 2 -2
BITMAP
03000000
07C00000
07E00C00
0FFFFF00
0FFFFF00
1FFFFE00
1E007C00
3FFFFFC0
FFFFFFF0
1FFFFFF0
1F07C1F0
1F07C1F0
1F07C1F0
1FFFFFF0
1FFFFFF0
1FFFFFF0
1F07C1F0
1F07C1F0
1F07C1F0
1FFFFFF0
1FFFFFF0
1FFFFFF0
1E07C1F0
3E07C1F0
3E07C1F0
3C07CFF0
7807CFF0
600707E0
ENDCHAR
STARTCHAR 2F94
ENCODING 12180
SWIDTH 990 0
DWIDTH 33 0
BBX 30 29 1 -1
BITMAP
00070000
000F8000
000F8000
FFFFFFFC
FFFFFFFC
FFFFFFFC
00000000
1FFFFFC0
1FFFFFC0
1FFFFFC0
00000000
00000000
1FFFFFC0
1FFFFFC0
1FFFFFC0
00000000
00000000
1FFFFF80
1FFFFFC0
1FFFFFC0
1F0007C0
1F0007C0
1F0007C0
1F0007C0
1F0007C0
1FFFE780
1FFFEF80
0FFFEF00
00001C00
ENDCHAR
STARTCHAR 2F95
ENCODING 12181
SWIDTH 990 0
DWIDTH 33 0
BBX 30 28 2 -2
BITMAP
0380E000
03E07C00
07E03F00
07E01FC0
0FC00FE0
0F8C07E0
1F1F07C0
3E3F83C0
783F8100
007F8000
00FFE000
01FFFC00
03FCFF80
07F87FFC
0FE01FF8
3F800FF8
FFFFFFF0
0FFFFFE0
0FFFFF80
0F800F80
0F800F80
0F800F80
0F800F80
0F800F80
0FFFCF80
0FFFCF00
0FFFDE00
00001C00
ENDCHAR
STARTCHAR 2F96
ENCODING 12182
SWIDTH 990 0
DWIDTH 33 0
BBX 30 27 1 -1
BITMAP
7FFFFFF0
7FFFFFF0
7FFFFFF0
00000000
00000000
1FFFFF80
1FFFFFC0
1FFFFFC0
1F0007C0
1F0007C0
1F0007C0
1F0007C0
1F0007C0
1FFFE780
1FFFEF80
0FFFEF00
00001C00
00000000
01C01800
03E03E00
03E03F00
03E03E00
01C07C00
00006000
FFFFFFFC
FFFFFFFC
FFFFFFFC
ENDCHAR
STARTCHAR 2F97
ENCODING 12183
SWIDTH 990 0
DWIDTH 33 0
BBX 30 27 2 -2
BITMAP
7FFFFFF8
7FFFFFF8
7FFFFFF8
001FC000
003F8000
007F8000
00FFC0C0
01FFC1E0
07FBE3F0
1FE3EFF0
7F83FFC0
0073FF80
00FBE600
03FBE600
07FBE700
1FF3E700
7FC3E780
FF63E780
0073E3C0
01FBE3E0
03FFE3F0
0FFBE3F8
FFF3E1FC
7FCBE1F8
001FE0E0
001FE000
0001C000
ENDCHAR
STARTCHAR 2F98
ENCODING 12184
SWIDTH 990 0
DWIDTH 33 0
BBX 23 30 5 -1
BITMAP
0000C0
0003E0
000FE0
003FE0
00FF80
03FE00
0FF700
7F0F98
000FBC
038FFE
07C7FE
07C7FC
039FF8
007FE0
03FFC0
3FFFC0
400FE0
003FE0
00FFE0
03FFE0
0FFBE0
7F87E0
001FE0
007FE0
03FFE0
3FFFE0
CE03E0
001FE0
001FE0
000FC0
ENDCHAR
STARTCHAR 2F9A
ENCODING 12186
SWIDTH 960 0
DWIDTH 32 0
BBX 29 28 2 -1
BITMAP
000F8000
000F8000
000F8000
3FFFFFE0
3FFFFFE0
3FFFFFE0
000F8000
000F8000
000F8000
000F8000
FFFFFFF8
FFFFFFF8
FFFFFFF8
00F87C00
00F87C00
38F87C00
3EF87C70
3CF87CF8
7CF87CF8
7CF87CF8
79F07CF8
F1F07C70
C1F07C00
03E07C00
03C27C00
0783FC00
0F03FC00
1C00F800
ENDCHAR
STARTCHAR 2F9B
ENCODING 12187
SWIDTH 990 0
DWIDTH 33 0
BBX 29 28 2 -1
BITMAP
0007C000
0007C000
0007C000
1FFFFFE0
1FFFFFE0
1FFFFFE0
0007C000
0007C000
0007C000
0007C000
7FFFFFF8
7FFFFFF8
7FFFFFF8
00000000
0007C000
0F07C000
1FC7C000
1F87FFE0
1F87FFE0
1F87FFE0
1F87C000
3F07C000
3FC7C000
3FE7C000
3FFFFFF8
7DFFFFF8
70FFFFF8
C03FFFF0
ENDCHAR
STARTCHAR 2F9C
ENCODING 12188
SWIDTH 990 0
DWIDTH 33 0
BBX 30 27 2 0
BITMAP
1F000000
1FFFFFE0
1FFFFFE0
1FFFFFE0
1F0003E0
1F0003E0
1F0003E0
1F0003E0
1F0003E0
1FFFFFE0
1FFFFFE0
03FFFF80
0007C000
0007C000
0E07C000
1F87C000
1F87FFE0
1F87FFE0
1F07FFE0
1F07C000
3F07C000
3F87C000
3FE7C000
7FFFFFFC
79FFFFF8
70FFFFF8
C07FFFF0
ENDCHAR
STARTCHAR 2F9D
ENCODING 12189
SWIDTH 990 0
DWIDTH 33 0
BBX 29 29 3 -1
BITMAP
001C0000
001F0000
001F0000
003E0000
1FFFFE00
1FFFFF00
1FFFFF00
1F001F00
1F001F00
1FFFFF00
1FFFFF00
1FFFFF00
1F001F00
1F001F00
1FFFFFE0
1FFFFFF0
1FFFFFF8
1F001FF0
1F001FE0
FFFFFFC0
FFFFFF80
FFFFFF00
0007FF00
001FFF00
00FFFF00
07FF1F00
FFF8FF00
7F80FF00
0000FF00
ENDCHAR
STARTCHAR 2F9E
ENCODING 12190
SWIDTH 990 0
DWIDTH 33 0
BBX 30 27 1 -1
BITMAP
000F8000
000F8000
7FFFFFF8
7FFFFFF8
7FFFFFF8
000F8000
1FFFFF80
1FFFFFC0
1FFFFFC0
1F0F87C0
1F0F87C0
1FFFFFC0
1FFFFFC0
1FFFFFC0
1F0F87C0
1F0F87C0
1FFFFFC0
1FFFFF80
07FFFF00
000F8000
FFFFFFFC
FFFFFFFC
FFFFFFFC
000F8000
000F8000
000F8000
000F0000
ENDCHAR
STARTCHAR 2F9F
ENCODING 12191
SWIDTH 990 0
DWIDTH 33 0
BBX 29 29 2 -2
BITMAP
00070000
000F8000
000F8000
000F8000
7FFFFFF0
7FFFFFF0
7FFFFFF0
01C01C00
03E03E00
03E03F00
03E07E00
01C07800
00000000
FFFFFFF8
FFFFFFF8
FFFFFFF8
000F8000
000F8000
000F8000
000F8000
3FFFFFF0
3FFFFFF0
3FFFFFF0
000F8000
000F8000
000F8000
000F8000
000F8000
000E0000
ENDCHAR
STARTCHAR 2FA0
ENCODING 12192
SWIDTH 990 0
DWIDTH 33 0
BBX 30 28 1 -2
BITMAP
3FFFFFF8
3FFFFFF8
3FFFFFF8
3E000000
3E000000
3E000000
3E7FFFF0
3E7FFFF0
3E7FFFF0
3E000000
3E000000
3E000000
3FFFFFFC
3FFFFFFC
3FFFFFFC
3E3E1800
3E3E1C30
3E3E1C78
3E3E1E7C
3E3E0FFC
3E3E0FF0
3C3E0FC0
3C3FE7E0
3DFFC7FC
79FF83FC
78FE01F8
70FC00F8
80600020
ENDCHAR
STARTCHAR 2FA2
ENCODING 12194
SWIDTH 990 0
DWIDTH 33 0
BBX 28 28 2 -1
BITMAP
7FFFFE00
7FFFFF00
7FFFFF00
7C001F00
7C001F00
7C001F00
7FFF9F00
7FFF9E00
3FFFBC00
00000000
FFFFFF00
FFFFFFC0
FFFFFFC0
F83E07C0
F83E07C0
F83E07C0
F83E07C0
FFFFFFC0
FFFFFFC0
FFFFFF80
F8000000
F8000000
F8000000
F8000000
FFFFFFF0
FFFFFFF0
FFFFFFE0
7FFFFFE0
ENDCHAR
STARTCHAR 2FA3
ENCODING 12195
SWIDTH 990 0
DWIDTH 33 0
BBX 29 28 2 -3
BITMAP
FFFFFFF8
FFFFFFF8
FFFFFFF8
007CF800
007CF800
007CF800
7C7CF800
7FFFFFE0
7FFFFFF0
7FFFFFF0
7C7CF9F0
7CFCF9F0
7CF8FFF0
7CF8FFF0
7DF0FFF0
7FF07FF0
7FC001F0
7C0001F0
7C0001F0
7FFFFFF0
7FFFFFF0
7FFFFFF0
7C0001F0
7C0001F0
7FFFF9E0
7FFFFBE0
3FFFFBC0
00000700
ENDCHAR
STARTCHAR 2FA5
ENCODING 12197
SWIDTH 990 0
DWIDTH 33 0
BBX 29 26 2 0
BITMAP
3FFFFFE0
3FFFFFE0
3FFFFFE0
3E0F83E0
3E0F83E0
3E0F83E0
3FFFFFE0
3FFFFFE0
3FFFFFE0
3E0F83E0
3E0F83E0
3E0F83E0
3FFFFFE0
3FFFFFC0
0FFFFF80
000F8000
000F8000
3FFFFFF0
3FFFFFF0
3FFFFFF0
000F8000
000F8000
000F8000
FFFFFFF8
FFFFFFF8
FFFFFFF8
ENDCHAR
STARTCHAR 2FA6
ENCODING 12198
SWIDTH 990 0
DWIDTH 33 0
BBX 30 28 1 0
BITMAP
00078000
0007C000
000FE000
001FC000
003FF800
007FFF00
00FF3FFC
01FE1FFC
07F80FFC
1FF003F8
FF8001F8
07FFFF80
07FFFF80
07FFFF80
0007C000
0007C000
0007C000
0007C000
1FFFFFE0
1FFFFFE0
1FFFFFE0
0387C300
07C7C380
07C7C7C0
07C7C7C0
7FFFFFFC
7FFFFFFC
7FFFFFFC
ENDCHAR
STARTCHAR 2FA9
ENCODING 12201
SWIDTH 1020 0
DWIDTH 34 0
BBX 30 28 2 0
BITMAP
000F0000
000F0000
000F0000
1FFFFF80
1FFFFFC0
1FFFFFC0
1F0007C0
1F0007C0
1FFFFFC0
1FFFFFC0
1FFFFF80
1F000000
1FFFFFE0
1FFFFFE0
1FFFFFE0
1F0003E0
1F0003E0
1FFFFFE0
1FFFFFE0
07FFFF80
000F8000
FFFFFFFC
FFFFFFFC
FFFFFFFC
000F8000
000F8000
000F0000
000C0000
ENDCHAR
STARTCHAR 2FAA
ENCODING 12202
SWIDTH 1020 0
DWIDTH 34 0
BBX 30 28 2 -2
BITMAP
000F8000
000F8000
000F8000
1FFFFFC0
1FFFFFE0
1FFFFFE0
000F83E0
000F83E0
FFFFFFFC
FFFFFFFC
FFFFFFFC
000F83E0
000F83E0
000F83E0
1FFFFFE0
1FFFFFE0
1FFFFFC0
1C0F81C0
1E0F81C0
3F0F83E0
3FCF87C0
000F8F80
002F8000
0FCF9FC0
FF8F8FFC
7F3F87F8
7C3F81F8
301F00F0
ENDCHAR
STARTCHAR 2FAB
ENCODING 12203
SWIDTH 960 0
DWIDTH 32 0
BBX 30 28 1 -2
BITMAP
0E000000
0FC03E00
0FC03E00
0F803E00
0F9FFFFC
1F9FFFFC
1F1FFFFC
1F003E00
1E003E00
3E003E00
3C003E00
7F9FFFFC
7F9FFFFC
EF9FFFFC
0F803E00
0F803E00
0F803E00
0F9FFFFC
0F9FFFFC
0F9FFFFC
0F803E00
0F803E00
0F803E00
0F803E00
0F9FFFFC
0F9FFFFC
0F9FFFFC
0E000000
ENDCHAR
STARTCHAR 2FAC
ENCODING 12204
SWIDTH 990 0
DWIDTH 33 0
BBX 29 27 2 -2
BITMAP
FFFFFFF8
FFFFFFF8
FFFFFFF8
000F8000
000F8000
7C0F8000
7FFFFFE0
7FFFFFF0
7FFFFFF0
7C0F81F0
7C0F81F0
7FCFF9F0
7DEFBDF0
7DEF9FF0
7CEF9DF0
7C4F89F0
7C0F81F0
7F8FF9F0
7FEFFDF0
7DEFBFF0
7CEF9DF0
7C4F8DF0
7C0F89F0
7C0F81F0
7C0F87F0
7C0F87F0
700E03E0
ENDCHAR
STARTCHAR 2FAE
ENCODING 12206
SWIDTH 990 0
DWIDTH 33 0
BBX 29 28 2 -2
BITMAP
00F8F800
00F8F800
00F8F800
00F8F800
FFF8FFF8
FFF8FFF8
FFF8FFF8
00F8F800
00F8F800
00F8F800
00F8F800
7FF8FFF0
7FF8FFF0
7FF8FFF0
00F8F800
00F8F800
00F8F800
00F8F800
00F8F800
FFF8FFF8
FFF8FFF8
FFF8FFF8
00F8F800
00F8F800
00F8F800
00F8F800
00F8F000
00C0C000
ENDCHAR
STARTCHAR 2FAF
ENCODING 12207
SWIDTH 1020 0
DWIDTH 34 0
BBX 30 27 2 -1
BITMAP
FFFFFFFC
FFFFFFFC
FFFFFFFC
0007C000
00078000
00078000
3FFFFFE0
3FFFFFF0
3FFFFFF0
3E7CF9F0
3E7CF9F0
3E7CF9F0
3E7FF9F0
3E7FF9F0
3E7FF9F0
3E7CF9F0
3E7CF9F0
3E7CF9F0
3E7FF9F0
3E7FF9F0
3E7FF9F0
3E7CF9F0
3E7CF9F0
3E7CF9F0
3FFFFFF0
3FFFFFF0
1FFFFFE0
ENDCHAR
STARTCHAR 2FB0
ENCODING 12208
SWIDTH 960 0
DWIDTH 32 0
BBX 30 28 1 -1
BITMAP
07C01F00
07C01F00
FFFFFFF8
FFFFFFF8
FFFFFFF8
07C01F00
07FFFF00
07FFFF00
03FFFE00
000F8000
1F0F8000
1FFFFFE0
1FFFFFE0
1FFFFFE0
1F0F83E0
1F0F83E0
1FFFFFE0
1FFFFFE0
0FFFFFC0
000F8000
000F8000
FFFFFFFC
FFFFFFFC
FFFFFFFC
000F8000
000F8000
000F8000
000E0000
ENDCHAR
STARTCHAR 2FB2
ENCODING 12210
SWIDTH 990 0
DWIDTH 33 0
BBX 31 27 1 0
BITMAP
007C7C00
007C7C00
007C7C00
007C7C00
7FFC7FFC
7FFC7FFC
7FFC7FFC
007C7C00
007C7C00
007C7C00
3FFC7FF8
3FFC7FF8
3FFC7FF8
007C7C00
007C7C00
007C7C00
007C7C00
7FFC7FFC
7FFC7FFC
7FFC7FFC
007C7C00
007C7C00
007C7C00
007C7C00
FFFFFFFE
FFFFFFFE
FFFFFFFE
ENDCHAR
STARTCHAR 2FB3
ENCODING 12211
SWIDTH 960 0
DWIDTH 32 0
BBX 30 29 1 -2
BITMAP
00038000
0007C000
0007C000
3FFFFFF0
3FFFFFF0
3FFFFFF0
00E01E00
01F01F00
01F01F00
01F01E00
FFFFFFFC
FFFFFFFC
FFFFFFFC
00000000
00000000
0FFFFF80
0FFFFFC0
0FFFFFC0
0F8007C0
0F8007C0
0FFFFFC0
0FFFFFC0
0FFFFFC0
0F8007C0
0F8007C0
0FFFE7C0
0FFFEF80
07FFEF00
00001E00
ENDCHAR
STARTCHAR 2FB5
ENCODING 12213
SWIDTH 960 0
DWIDTH 32 0
BBX 29 27 2 -2
BITMAP
7C000000
7FFFFFE0
7FFFFFE0
7FFFFFE0
7C0073E0
7C07F3E0
7DFFFBE0
7CFFFBE0
7C1FE3E0
7C0F83E0
7DFFF3E0
7DFFFBE0
7DFFFBE0
7DCFBBE0
7DCFBBE0
7DFFFBE0
7DFFFBE0
7CFFF3E0
7C0F83E0
7C0FB3E0
7BFFFBE0
79FFFFE0
79FF1FE0
F1F81BE0
F00003F8
E00003F8
800001F0
ENDCHAR
STARTCHAR 2FB6
ENCODING 12214
SWIDTH 990 0
DWIDTH 33 0
BBX 30 28 2 -1
BITMAP
7FFFF818
7FFFFF3C
7FFFFFFC
00001FF8
01801F30
07801F78
3FDF1F78
FFDF1F30
7F9F1F00
1F1F1FFC
1F1F1FFC
1F1F1FFC
1F1F0FF8
1F1F0000
FFFFFE08
FFFFFF3C
FFFFFFFC
1F1F1FFC
1F1F1F30
1F1F1F30
1F1F1F78
1E1F1F78
3E1F1F30
3E1F1F00
3C1F1FFC
381F1FFC
701F1FFC
E01C0FF8
ENDCHAR
STARTCHAR 2FB7
ENCODING 12215
SWIDTH 990 0
DWIDTH 33 0
BBX 29 29 2 -2
BITMAP
00040000
000F0000
001F8000
003F8000
007FE000
00FFFF80
03FCFFF8
0FF87FF8
7FE01FF0
FE0F87F0
000F80E0
0FFFFF00
0FFFFF80
0FFFFF80
0F800F80
0FFFFF80
0FFFFF80
0FFFFF80
0F800F80
0FFFFF80
0FFFFF80
0FFFFF80
0F83F1E0
0F80FFE0
0F803FC0
3FFC1FF0
3FF007F0
3FC003E0
1E0000C0
ENDCHAR
STARTCHAR 2FB8
ENCODING 12216
SWIDTH 990 0
DWIDTH 33 0
BBX 29 30 2 -2
BITMAP
01C01800
03E03E00
03E03F00
03E03F00
FFFFFFF8
FFFFFFF8
FFFFFFF8
000F0000
000F0000
3E0E0000
3FFFFFE0
3FFFFFE0
3FFFFFE0
3E0003E0
3E0003E0
3FFFFFE0
3FFFFFE0
3FFFFFE0
3E0003E0
3E0003E0
3E0003E0
3FFFFFE0
3FFFFFE0
3FFFFFE0
3E0003E0
3E0003E0
3FFFE3C0
3FFFE7C0
1FFFE780
00000E00
ENDCHAR
STARTCHAR 2FB9
ENCODING 12217
SWIDTH 1020 0
DWIDTH 34 0
BBX 30 30 2 -2
BITMAP
00000600
00003F00
0007FF00
3FFFFF80
0FFFFF80
01FFFC00
000F8000
000F8000
FFFFFFFC
FFFFFFFC
FFFFFFFC
0F8F9F80
0F8F8F80
1F0F87C0
3E0F83F0
F80E00FC
1F000000
1FFFFFC0
1FFFFFC0
1FFFFFC0
1F0007C0
1FFFFFC0
1FFFFFC0
1FFFFFC0
1F0007C0
1F0007C0
1FFFE7C0
1FFFEF80
0FFFEF00
00001C00
ENDCHAR
STARTCHAR 2FBB
ENCODING 12219
SWIDTH 960 0
DWIDTH 32 0
BBX 28 28 2 -1
BITMAP
1F000000
1FFFFF80
1FFFFF80
1FFFFF80
1F000F80
1FFF8F80
1FFF8F80
1FFF8F80
1F0F8F80
FFFFFFF0
FFFFFFF0
FFFFFFF0
F80001F0
FF8001F0
FFFFFFE0
CFFFFF80
0FFFFF80
0F800F80
0FFFFF80
0FFFFF80
0FFFFF80
0F800F80
0FFFFF80
0FFFFF80
0FFFFF80
0F807F80
0F807F80
0E007F00
ENDCHAR
STARTCHAR 2FBC
ENCODING 12220
SWIDTH 990 0
DWIDTH 33 0
BBX 29 29 2 -1
BITMAP
00070000
000F8000
000F8000
FFFFFFF8
FFFFFFF8
FFFFFFF8
00000000
0FFFFF80
0FFFFF80
0FFFFF80
0F800F80
0F800F80
0FFFCF80
0FFFCF00
07FFDE00
7C000000
7FFFFFF0
7FFFFFF0
7FFFFFF0
7C0001F0
7CFFF1F0
7CFFF9F0
7CFFF9F0
7CF8F9F0
7CFFF9F0
7CFFF9F0
7C7FF3F0
780003F0
700003E0
ENDCHAR
STARTCHAR 2FBD
ENCODING 12221
SWIDTH 960 0
DWIDTH 32 0
BBX 30 27 1 -1
BITMAP
00000070
3FFE00F8
3FFE01FC
3FFE03F8
3E0007F0
3FFE0FE0
3FFE3FC0
3FFE7E00
3E000060
3E0000F8
3FFE01FC
3FFE01FC
3FFE03F8
3E0007F0
3E000FE0
FFFF3F80
FFFFFE00
FFFF0070
0F2000F8
1F3801FC
1E1C03F8
1C3E03F8
FFFF0FF0
FFEF1FC0
7F8E3F80
7E0CFE00
30000000
ENDCHAR
STARTCHAR 2FBE
ENCODING 12222
SWIDTH 990 0
DWIDTH 33 0
BBX 29 28 2 -2
BITMAP
F80000F8
FBFDFEF8
FBFDFEF8
FBFDFEF8
F9F0F8F8
F9F0F8F8
FBF9FCF8
FBF9FCF8
FBF9FCF8
F9F0F8F8
F9F0F8F8
FBFDFEF8
FBFDFEF8
FBFDFEF8
F80000F8
F80000F8
F80000F8
F80000F8
F80000F8
F80000F8
F80000F8
F80000F8
F80000F8
F80000F8
F8000CF8
F8001FF8
F8001FF8
C00003F0
ENDCHAR
STARTCHAR 2FBF
ENCODING 12223
SWIDTH 990 0
DWIDTH 33 0
BBX 29 28 2 -1
BITMAP
000C0000
F81E71F0
FA1EF9F0
F9CDF9F0
FB7FFFF0
FFBFCFF0
FF9FCFF0
FB3FEFF0
F87FF1F0
F9F9F9F0
FFECF9F0
F81E71F0
F81E21F0
FFFFFFF0
FFFFFFF0
7FFFFFF0
000001F0
00000180
3E001FC0
3FFFFFC0
3FFFFFE0
3E7FFF00
3E000000
3E000000
3FFFFFF8
3FFFFFF0
3FFFFFF0
1FFFFFF0
ENDCHAR
STARTCHAR 2FC0
ENCODING 12224
SWIDTH 990 0
DWIDTH 33 0
BBX 29 28 2 -2
BITMAP
FFFFFFF8
FFFFFFF8
FFFFFFF8
00000000
1F000000
1FFFFFC0
1FFFFFC0
1FFFFFC0
1F0007C0
1F0007C0
1FFFE7C0
1FFFEF80
07FFEF00
00003800
7FFFFFF0
7FFFFFF8
7FFFFFF8
7C7040F8
7CF8F8F8
7CF8F8F8
7DFFFCF8
7DFFFCF8
7DFFFCF8
7C0F80F8
7C0F82F8
7C0F83F8
7C0F83F8
700E03F0
ENDCHAR
STARTCHAR 2FC1
ENCODING 12225
SWIDTH 990 0
DWIDTH 33 0
BBX 30 28 2 -1
BITMAP
001E0000
001F0000
001F0000
3FFFFFC0
3FFFFFE0
3FFFFFE0
3E0F83E0
3E0F83E0
3E0F83E0
3FFFFFE0
3FFFFFE0
3FFFFFE0
3E0F83E0
3E0F83E0
3FFFFFE0
3FFFFFE0
1FFFFFC0
001F8180
001F01C0
003FF1C0
003FF3B0
007FFFF8
007FF7D8
00FDF000
03F9FFFC
07F1FFF8
1FC1FFF8
FE00FFF0
ENDCHAR
STARTCHAR 2FC5
ENCODING 12229
SWIDTH 990 0
DWIDTH 33 0
BBX 29 29 2 -1
BITMAP
00078000
000FC000
000FC000
7FFFFFF8
7FFFFFF8
7FFFFFF8
7C7CF800
7C7CF800
7FFFFFF0
7FFFFFF8
7FFFFFF8
7C7CF8F8
7C7CF8F8
7C7CF8F8
7FFFFFF8
7FFFFFF8
7FFFFFF0
7C000000
7DF03E00
7DF03E30
7DFF3EF8
7DFF3FF8
79FF3FF0
79F03F00
79F03E00
77FF3FF8
F7FE3FF8
E3F83FF8
83E01FF0
ENDCHAR
STARTCHAR 2FC6
ENCODING 12230
SWIDTH 990 0
DWIDTH 33 0
BBX 29 28 2 -2
BITMAP
000F8000
000F8000
FFFFFFF8
FFFFFFF8
FFFFFFF8
1C0F9E00
1E0F9F00
1ECF9FC0
3DEF9FE0
3DEFBFE0
78CFB8C0
018F9800
03CFBC00
0FCFBF00
3FCE1FC0
FF600FF8
18F801C0
01FFFF00
03FFFF00
07FFFF00
0F807F00
3F00FE00
03FFFC00
003FFFC0
01FFFFE0
FFFFFFC0
1FFC0FC0
00000180
ENDCHAR
STARTCHAR 2FC7
ENCODING 12231
SWIDTH 990 0
DWIDTH 33 0
BBX 31 29 1 -1
BITMAP
00004000
0001F000
0001F000
0001F000
3FFFFFFC
3FFFFFFC
3FFFFFFC
3E000000
3E1F03E0
3E1F03E0
3E1F03E0
3E1F03E0
3EFFFFFC
3EFFFFFC
3EFFFFFC
3E1F03E0
3E5F1BFC
3EFFDFFC
3EFFFFFC
3EFFFFFC
3EFFDFFC
3EFF1FFC
3DFF1FFC
3DDF3BEC
7D9F33E4
7A1F03E2
701F03E0
601F03E0
80180300
ENDCHAR
STARTCHAR 2FC9
ENCODING 12233
SWIDTH 990 0
DWIDTH 33 0
BBX 29 29 2 -2
BITMAP
00000200
00007F00
1FFFFF00
03FFFF00
003FFE00
FFFFFFF8
FFFFFFF8
FFFFFFF8
078F8000
07CF9FC0
0FC807F0
3F8603F0
FF0F00E0
781F8040
003FC000
00FFFFF8
07FCFFF8
3FF83FF0
FF0F87F0
0F8F8F80
1FCF9FC0
0FEFBF80
000F8000
01CF9C00
FF8F8FF8
FF3F87F8
7C3F81F0
383F80E0
00020000
ENDCHAR
STARTCHAR 2FCA
ENCODING 12234
SWIDTH 990 0
DWIDTH 33 0
BBX 29 28 2 0
BITMAP
1FFFFFC0
1FFFFFF0
1FFFFFF0
1F07C1F0
1F07C1F0
1F67DDF0
1FF7DFF0
1FF7FDF0
1F67F1F0
1F07C1F0
1FFFFFF0
1FFFFFE0
0FFFFFC0
0007C000
0007C000
1FFFFFE0
1FFFFFE0
1FFFFFE0
0007C000
7FFFFFF8
7FFFFFF8
7FFFFFF8
00000000
1C383870
1E7C7CF8
1E7C7CF8
3C7C7CF8
F8383870
ENDCHAR
STARTCHAR 2FCB
ENCODING 12235
SWIDTH 1020 0
DWIDTH 34 0
BBX 30 28 2 -2
BITMAP
00F8F800
1CF8F8E0
3EF8F8F8
3EF8F8F8
3EF8F9F0
1CF8F9C0
00F8F800
FFFFFFFC
FFFFFFFC
FFFFFFFC
038F8300
07CF8780
07CF87C0
07CF8780
038F8F00
7C0FFFE0
7FFFFFF0
7FFFFFF0
7FFF81F0
7DCF9DF0
7DFFBFF0
7DEFBFF0
7DEFBFF0
7DCF9DF0
7D8F81F0
7C0F87F0
7C0F87F0
700E03E0
ENDCHAR
STARTCHAR 2FCD
ENCODING 12237
SWIDTH 990 0
DWIDTH 33 0
BBX 30 28 1 -1
BITMAP
007FFC00
007FFE00
007FFE00
007C3E00
3E7FFE7C
3E7FFE7C
3E7C3E7C
3E7FFE7C
3E7FFE7C
3E7C3E7C
3E7FFE7C
3E7FFE7C
3E3FFC7C
3E00007C
3FF87FFC
3FFC7FFC
1FFC7FF8
007C7C00
7FFC7FF0
7FFC7FFC
7FFC7FFC
1F7C7C7C
3F7C7C7C
3E7C7C7C
3E7C7C7C
3C7C7C7C
78787878
E0604000
ENDCHAR
STARTCHAR 2FCE
ENCODING 12238
SWIDTH 990 0
DWIDTH 33 0
BBX 31 28 1 -1
BITMAP
07C00F80
07C00F80
FFFE0F80
FFFE0F80
FFFE0F80
07C0FFFE
7FFCFFFE
7FFCFFFE
7FFC0F80
00000F80
7C000F80
7FF8FFFC
7FFCFFFC
7FFCFFFC
7C7C60FC
7FFC70FC
7FFC70F8
3FF871F8
006079F8
18703FF0
3C783FF0
3CF03FE0
181C1FE0
FFF81FFE
FFE03FFE
FFC0FFFC
7F03FBFC
300FE0F8
ENDCHAR
STARTCHAR 2FCF
ENCODING 12239
SWIDTH 960 0
DWIDTH 32 0
BBX 28 28 2 0
BITMAP
00600000
01F00000
FFF1FF80
FFF1FFC0
FF01FFC0
FFE1FFC0
FFE1FFC0
FFE1FFC0
F80007C0
F80007C0
FFFFFFC0
FFFFFFC0
7FFFFF00
00000000
F81F07C0
F81F07C0
FF9FF7C0
FF9FFFC0
FB9F77C0
F91F17C0
FE1FC7C0
FF9FF7C0
FF9F77C0
FB1F37C0
F81F27C0
FF1FE7F0
FF1FE7F0
7F0FE3F0
ENDCHAR
STARTCHAR 2FD0
ENCODING 12240
SWIDTH 990 0
DWIDTH 33 0
BBX 29 29 2 -1
BITMAP
001C0000
001E0000
0F9E0000
0FFFFF80
0FFFFF80
0FFFFF80
0F800F80
0FFFFF80
0F800F80
0FFFEF80
07FFEF00
00001C00
3FFFFFC0
3FFFFFE0
3FFFFFE0
3E0F83E0
3FFFFFE0
3FFFFFE0
3FFFFFE0
3FFFFFE0
07FFFF80
00000000
FFFFFFF8
FFFFFFF8
FFFFFFF8
07E03E00
0FC03E00
1F803E00
7F003800
ENDCHAR
STARTCHAR 2FD3
ENCODING 12243
SWIDTH 990 0
DWIDTH 33 0
BBX 30 29 1 -1
BITMAP
03800000
07C07C00
07C07C00
7FFE7FFC
7FFE7FFC
7FFE7FFC
18307FF8
3C3C7FFC
3C3C7FFC
3C38007C
FFFF007C
FFFF7FFC
FFFF7FFC
00007FF8
7FFC7FFC
7FFE7FFC
7FFE7FFC
7C3E7C00
7FFE7FFC
7FFE7FFC
7FFE7FFC
7C3E7FFC
7FFE7FFC
7FFE7FFC
7FFE7C00
7C3E7FFC
7CFE7FFC
7CFE7FFC
70FC3FF8
ENDCHAR
STARTCHAR 2FD5
ENCODING 12245
SWIDTH 990 0
DWIDTH 33 0
BBX 30 28 2 -1
BITMAP
00060000
001F0000
003F8000
00FFC000
03FFFFFC
3FF8FFFC
FFFFFFF8
01FFFBF0
01FFF800
783C0F00
7FFFEFF8
7FFFEFF8
7FFFEFF8
7FFFEFF8
7FFFEFF8
1F8FC3F0
3FFFFFC0
3FFFFFF0
3FFFFFF0
3E7DF1F0
3E7DF1F0
3FFFFFF0
3FFFFFF0
3FFFFFF0
3E7DF1F0
3E7DF7F0
3E79E7F0
386187E0
ENDCHAR
STARTCHAR 3000
ENCODING 12288
SWIDTH 990 0
DWIDTH 33 0
BBX 0 0 0 0
BITMAP
ENDCHAR
STARTCHAR 3001
ENCODING 12289
SWIDTH 990 0
DWIDTH 33 0
BBX 6 7 2 -3
BITMAP
E0
F0
78
78
7C
7C
7C
ENDCHAR
STARTCHAR 3002
ENCODING 12290
SWIDTH 960 0
DWIDTH 32 0
BBX 8 7 1 -3
BITMAP
FF
FF
FF
E7
FF
FF
FF
ENDCHAR
STARTCHAR 3005
ENCODING 12293
SWIDTH 990 0
DWIDTH 33 0
BBX 28 28 2 -2
BITMAP
00700000
007C0000
00FC0000
00FC0000
01FC0000
01F80000
03F001C0
03FFFFE0
07FFFFF0
07FFFFF0
0F8007E0
0F000FE0
1E000FC0
3C001F80
78003F00
E0003E00
00007E00
0000F800
0001F000
01C3E000
00FF8000
003F8000
001FE000
000FF000
0007F800
0003F000
0001F000
0000E000
ENDCHAR
STARTCHAR 3007
ENCODING 12295
SWIDTH 990 0
DWIDTH 33 0
BBX 25 25 5 0
BITMAP
007F0000
01FFC000
07FFF000
0FFFF800
1FC1FC00
3F007E00
7C001E00
7C001F00
78000F00
F8000F80
F0000780
F0000780
F0000780
F0000780
F0000780
F8000F80
78000F00
7C001F00
7C001E00
3F007E00
1FC1FC00
0FFFF800
07FFF000
03FFE000
007F0000
ENDCHAR
STARTCHAR 3008
ENCODING 12296
SWIDTH 990 0
DWIDTH 33 0
BBX 11 27 21 -1
BITMAP
03E0
07E0
07C0
0FC0
0F80
1F80
1F00
3F00
3E00
7E00
7C00
FC00
F800
F800
FC00
7C00
7E00
3E00
3F00
1F00
1F00
0F80
0F80
0FC0
07C0
07E0
03E0
ENDCHAR
STARTCHAR 3009
ENCODING 12297
SWIDTH 990 0
DWIDTH 33 0
BBX 11 27 1 -1
BITMAP
F800
FC00
7C00
7E00
3E00
3F00
1F00
1F80
0F80
0FC0
07C0
07E0
03E0
03E0
07E0
07C0
0FC0
0F80
1F80
1F00
1F00
3F00
3E00
7E00
7C00
FC00
F800
ENDCHAR
STARTCHAR 300A
ENCODING 12298
SWIDTH 960 0
DWIDTH 32 0
BBX 16 28 15 -2
BITMAP
03CF
079F
079E
0F3E
0F3C
1F7C
1E78
3E78
3CF0
3CF0
79E0
79E0
F3E0
F3C0
F3C0
F3E0
79E0
79E0
3CF0
3CF0
1E78
1E78
1F3C
0F3C
0F3E
079E
079E
03CF
ENDCHAR
STARTCHAR 300B
ENCODING 12299
SWIDTH 960 0
DWIDTH 32 0
BBX 16 28 1 -2
BITMAP
F3C0
F9E0
79E0
7CF0
3CF0
3C78
1E78
1E78
0F3C
0F3C
079E
079E
03CF
03CF
03CF
07CF
079E
079E
0F3C
0F3C
1E78
1E78
3CF8
3CF0
7CF0
79E0
F9E0
F3C0
ENDCHAR
STARTCHAR 300C
ENCODING 12300
SWIDTH 960 0
DWIDTH 32 0
BBX 9 26 22 1
BITMAP
3F80
FF80
FF80
F800
F800
F800
F800
F800
F800
F800
F800
F800
F800
F800
F800
F800
F800
F800
F800
F800
F800
F800
F800
F800
F800
F800
ENDCHAR
STARTCHAR 300D
ENCODING 12301
SWIDTH 960 0
DWIDTH 32 0
BBX 9 26 1 -2
BITMAP
0F80
0F80
0F80
0F80
0F80
0F80
0F80
0F80
0F80
0F80
0F80
0F80
0F80
0F80
0F80
0F80
0F80
0F80
0F80
0F80
0F80
0F80
0F80
FF80
FF80
FF00
ENDCHAR
STARTCHAR 300E
ENCODING 12302
SWIDTH 990 0
DWIDTH 33 0
BBX 9 26 23 0
BITMAP
7F80
C180
DF80
D800
D800
D800
D800
D800
D800
D800
D800
D800
D800
D800
D800
D800
D800
D800
D800
D800
D800
D800
D800
D800
D800
F800
ENDCHAR
STARTCHAR 300F
ENCODING 12303
SWIDTH 960 0
DWIDTH 32 0
BBX 8 26 1 -2
BITMAP
1F
1B
1B
1B
1B
1B
1B
1B
1B
1B
1B
1B
1B
1B
1B
1B
1B
1B
1B
1B
1B
1B
1B
FB
C3
FE
ENDCHAR
STARTCHAR 3010
ENCODING 12304
SWIDTH 1020 0
DWIDTH 34 0
BBX 8 28 24 -2
BITMAP
FF
FF
FE
FE
FC
FC
FC
FC
F8
F8
F8
F8
F8
F8
F8
F8
F8
F8
F8
F8
FC
FC
FC
FC
FE
FE
FF
FF
ENDCHAR
STARTCHAR 3011
ENCODING 12305
SWIDTH 990 0
DWIDTH 33 0
BBX 8 28 1 -2
BITMAP
FF
FF
7F
7F
3F
3F
3F
3F
1F
1F
1F
1F
1F
1F
1F
1F
1F
1F
1F
3F
3F
3F
3F
7F
7F
7F
FF
FF
ENDCHAR
STARTCHAR 3016
ENCODING 12310
SWIDTH 990 0
DWIDTH 33 0
BBX 10 28 22 -2
BITMAP
FFC0
FF80
FF80
C700
C700
C600
CE00
CE00
CC00
CC00
CC00
CC00
CC00
CC00
CC00
CC00
CC00
CC00
CC00
CE00
CE00
CE00
C600
C700
C700
FF80
FF80
FFC0
ENDCHAR
STARTCHAR 3017
ENCODING 12311
SWIDTH 960 0
DWIDTH 32 0
BBX 10 28 0 -2
BITMAP
FFC0
7FC0
7FC0
38C0
38C0
18C0
18C0
1CC0
0CC0
0CC0
0CC0
0CC0
0CC0
0CC0
0CC0
0CC0
0CC0
0CC0
0CC0
1CC0
1CC0
18C0
18C0
38C0
38C0
7FC0
7FC0
FFC0
ENDCHAR
STARTCHAR 306E
ENCODING 12398
SWIDTH 990 0
DWIDTH 33 0
BBX 29 28 2 -2
BITMAP
000FE000
007FFC00
01FFFF00
03FFFF80
0FF83FC0
0FE00FE0
1F8007E0
3F0103F0
3E0081F0
7E0081F0
7C0180F8
7C0180F8
F80180F8
F80380F8
F80380F8
F80380F8
F80780F8
F80780F0
FC0F01F0
FC1F01F0
7E3F01E0
7FFE03E0
3FFC03C0
1FFC07C0
0FF80F80
03E00E00
00001C00
00002000
ENDCHAR
STARTCHAR 30FB
ENCODING 12539
SWIDTH 990 0
DWIDTH 33 0
BBX 6 6 14 10
BITMAP
78
FC
FC
FC
FC
78
ENDCHAR
STARTCHAR 4E00
ENCODING 19968
SWIDTH 960 0
DWIDTH 32 0
BBX 30 3 1 10
BITMAP
FFFFFFFC
FFFFFFFC
FFFFFFFC
ENDCHAR
STARTCHAR 4E01
ENCODING 19969
SWIDTH 960 0
DWIDTH 32 0
BBX 28 25 2 -1
BITMAP
FFFFFFF0
FFFFFFF0
FFFFFFF0
000F8000
000F8000
000F8000
000F8000
000F8000
000F8000
000F8000
000F8000
000F8000
000F8000
000F8000
000F8000
000F8000
000F8000
000F8000
000F8000
000F8000
000F8000
000F8000
00FF8000
00FF8000
003F0000
ENDCHAR
STARTCHAR 4E03
ENCODING 19971
SWIDTH 960 0
DWIDTH 32 0
BBX 29 27 1 -1
BITMAP
003E0000
003E0000
003E0000
003E0000
003E0000
003E0000
003E0000
003E0000
003E07F0
003FFFF0
3FFFFFF8
FFFFF000
FFFE0000
803E0000
003E0000
003E0000
003E0000
003E0000
003E0000
003E0000
003E0000
003E0000
003E0000
003FFFF8
003FFFF8
003FFFF8
001FFFF0
ENDCHAR
STARTCHAR 4E07
ENCODING 19975
SWIDTH 990 0
DWIDTH 33 0
BBX 27 25 3 -2
BITMAP
FFFFFFE0
FFFFFFE0
FFFFFFE0
0F800000
0F800000
0F800000
0F800000
0F800000
0FFFFE00
0FFFFF80
0FFFFF80
0F800F80
0F800F80
0F800F80
0F800F80
0F800F80
1F000F80
1F000F80
1F000F80
1E000F80
1E000F80
3C004F80
3C007F80
78007F80
60003F00
ENDCHAR
STARTCHAR 4E08
ENCODING 19976
SWIDTH 990 0
DWIDTH 33 0
BBX 28 27 3 -2
BITMAP
00007C00
00007C00
00007C00
00007C00
00007C00
FFFFFFF0
FFFFFFF0
FFFFFFF0
00007C00
04007C00
02007C00
02007C00
0300FC00
0180F800
0180F800
01C1F800
00E1F000
00F3F000
007BE000
007FE000
003FC000
003FF000
007FFFE0
00FFFFE0
03FFFFE0
0FF0FFC0
FF801F80
ENDCHAR
STARTCHAR 4E09
ENCODING 19977
SWIDTH 990 0
DWIDTH 33 0
BBX 27 25 3 0
BITMAP
3FFFFFC0
3FFFFFC0
3FFFFFC0
00000000
00000000
00000000
00000000
00000000
00000000
00000000
00000000
1FFFFF00
1FFFFF00
1FFFFF00
00000000
00000000
00000000
00000000
00000000
00000000
00000000
00000000
FFFFFFE0
FFFFFFE0
FFFFFFE0
ENDCHAR
STARTCHAR 4E0A
ENCODING 19978
SWIDTH 960 0
DWIDTH 32 0
BBX 28 26 2 -1
BITMAP
001F0000
001F0000
001F0000
001F0000
001F0000
001F0000
001F0000
001F0000
001F0000
001FFFC0
001FFFC0
001FFFC0
001F0000
001F0000
001F0000
001F0000
001F0000
001F0000
001F0000
001F0000
001F0000
001F0000
001F0000
FFFFFFF0
FFFFFFF0
FFFFFFF0
ENDCHAR
STARTCHAR 4E0B
ENCODING 19979
SWIDTH 990 0
DWIDTH 33 0
BBX 27 26 3 -1
BITMAP
FFFFFFE0
FFFFFFE0
FFFFFFE0
003E0000
003E0000
003E0000
003E0000
003E0000
003E0000
003E0000
003E7800
003E3F00
003E1FC0
003E0FC0
003E0FC0
003E07C0
003E0380
003E0100
003E0000
003E0000
003E0000
003E0000
003E0000
003E0000
003C0000
00200000
ENDCHAR
STARTCHAR 4E0C
ENCODING 19980
SWIDTH 990 0
DWIDTH 33 0
BBX 27 26 3 -2
BITMAP
FFFFFFE0
FFFFFFE0
FFFFFFE0
03E07C00
03E07C00
03E07C00
03E07C00
03E07C00
03E07C00
03E07C00
03E07C00
03E07C00
03E07C00
03E07C00
03E07C00
03E07C00
07C07C00
07C07C00
07C07C00
07807C00
0F807C00
0F007C00
1E007C00
1C007C00
38007800
40000000
ENDCHAR
STARTCHAR 4E0D
ENCODING 19981
SWIDTH 1020 0
DWIDTH 34 0
BBX 27 26 4 -1
BITMAP
FFFFFFE0
FFFFFFE0
FFFFFFE0
001C0000
003E0000
003F0000
007F0000
00FE0000
01FC0000
01F87C00
03F03F80
07FF1FC0
1F9F0FE0
3E1F07E0
781F03C0
801F0180
001F0100
001F0000
001F0000
001F0000
001F0000
001F0000
001F0000
001F0000
001E0000
00100000
ENDCHAR
STARTCHAR 4E0E
ENCODING 19982
SWIDTH 990 0
DWIDTH 33 0
BBX 28 28 3 -2
BITMAP
0F800000
0F800000
0F800000
0F800000
0FFFFFF0
0FFFFFF0
0FFFFFF0
0F800000
0F800000
0F800000
0F800000
0F800000
0FFFFFC0
0FFFFFE0
07FFFFE0
000003E0
000003E0
000003E0
000003E0
FFFFF3E0
FFFFF3E0
FFFFF3E0
000003E0
000003E0
000003E0
00001FE0
00001FE0
00001FE0
ENDCHAR
STARTCHAR 4E10
ENCODING 19984
SWIDTH 960 0
DWIDTH 32 0
BBX 28 26 2 -1
BITMAP
FFFFFFF0
FFFFFFF0
FFFFFFF0
000F8000
000F8000
000F8000
3E0F8000
3E0FFFC0
3E0FFFC0
3E0FFFC0
3E0F8000
3E0F8000
3E0F8000
3E0F8000
3FFFFFC0
3FFFFFE0
1FFFFFE0
000003E0
000003E0
000003E0
000003E0
000003E0
000003E0
00001FE0
00001FE0
00001FC0
ENDCHAR
STARTCHAR 4E11
ENCODING 19985
SWIDTH 990 0
DWIDTH 33 0
BBX 29 26 2 -1
BITMAP
3FFFFF80
3FFFFFC0
3FFFFFC0
00F807C0
00F807C0
00F807C0
00F807C0
00F807C0
00F807C0
00F807C0
00F807C0
00F807C0
1FFFFFC0
1FFFFFC0
1FFFFFC0
01F007C0
01F007C0
01F007C0
01F007C0
01F007C0
01F007C0
01F007C0
01F007C0
FFFFFFF8
FFFFFFF8
FFFFFFF8
ENDCHAR
STARTCHAR 4E13
ENCODING 19987
SWIDTH 990 0
DWIDTH 33 0
BBX 29 28 2 -2
BITMAP
001F0000
001F0000
003F0000
003E0000
3FFFFFE0
3FFFFFE0
3FFFFFE0
00FC0000
00F80000
01F80000
FFFFFFF8
FFFFFFF8
FFFFFFF8
03F00000
03E00200
07E00380
07FFFFC0
07FFFFE0
03FFFFC0
00003F80
00003F00
00007C00
00FFE000
001FF800
0007F800
0003F800
0000F000
00006000
ENDCHAR
STARTCHAR 4E14
ENCODING 19988
SWIDTH 990 0
DWIDTH 33 0
BBX 29 27 2 -1
BITMAP
0F800000
0F800000
0FFFFFC0
0FFFFFC0
0FFFFFC0
0F8007C0
0F8007C0
0F8007C0
0F8007C0
0FFFFFC0
0FFFFFC0
0FFFFFC0
0F8007C0
0F8007C0
0F8007C0
0F8007C0
0F8007C0
0FFFFFC0
0FFFFFC0
0FFFFFC0
0F8007C0
0F8007C0
0F8007C0
0F8007C0
FFFFFFF8
FFFFFFF8
FFFFFFF8
ENDCHAR
STARTCHAR 4E15
ENCODING 19989
SWIDTH 990 0
DWIDTH 33 0
BBX 29 26 2 -1
BITMAP
3FFFFFF0
3FFFFFF0
3FFFFFF0
000F0000
001F8000
003F8000
003F8000
007F0000
00FE3C00
01FC1F80
03FF8FE0
07EF87E0
0F8F83E0
3E0F83E0
E00F81C0
000F8080
000F8000
000F8000
000F8000
000F8000
000F8000
000E0000
00000000
FFFFFFF8
FFFFFFF8
FFFFFFF8
ENDCHAR
STARTCHAR 4E16
ENCODING 19990
SWIDTH 990 0
DWIDTH 33 0
BBX 29 27 2 -1
BITMAP
000F8F80
1F0F8F80
1F0F8F80
1F0F8F80
1F0F8F80
1F0F8F80
FFFFFFF8
FFFFFFF8
FFFFFFF8
1F0F8F80
1F0F8F80
1F0F8F80
1F0F8F80
1F0F8F80
1F0F8F80
1F0F8F80
1F0F8F80
1F0FFF80
1F0FFF80
1F07FF00
1F000000
1F000000
1F000000
1FFFFFF0
1FFFFFF0
1FFFFFF0
0FFFFFE0
ENDCHAR
STARTCHAR 4E18
ENCODING 19992
SWIDTH 1020 0
DWIDTH 34 0
BBX 30 27 2 0
BITMAP
00000780
00001F80
07C0FFC0
07DFFFC0
07FFFFC0
07FFFFC0
07DFFE00
07C00000
07C00000
07C00000
07C00000
07C00000
07FFFFF0
07FFFFF0
07FFFFF0
07C03E00
07C03E00
07C03E00
07C03E00
07C03E00
07C03E00
07C03E00
07C03E00
07C03E00
FFFFFFFC
FFFFFFFC
FFFFFFFC
ENDCHAR
STARTCHAR 4E19
ENCODING 19993
SWIDTH 960 0
DWIDTH 32 0
BBX 28 26 2 -2
BITMAP
FFFFFFF0
FFFFFFF0
FFFFFFF0
001F0000
001F0000
7C1F0000
7FFFFFC0
7FFFFFE0
7FFFFFE0
7C1F03E0
7C1F03E0
7C1F03E0
7C1F03E0
7C3E73E0
7C3EFBE0
7C7CFBE0
7C78FBE0
7CF073E0
7DC003E0
7C0003E0
7C0003E0
7C0003E0
7C0013E0
7C001FE0
7C001FE0
700007C0
ENDCHAR
STARTCHAR 4E1A
ENCODING 19994
SWIDTH 960 0
DWIDTH 32 0
BBX 30 26 1 0
BITMAP
00F87C00
00F87C00
00F87C00
00F87C00
00F87C00
00F87C00
00F87C00
00F87C60
38F87CF8
7CF87CFC
7CF87CF8
7CF87CF0
7CF87DE0
38F87DC0
00F87C00
00F87C00
00F87C00
00F87C00
00F87C00
00F87C00
00F87C00
00F87C00
00F87C00
FFFFFFFC
FFFFFFFC
FFFFFFFC
ENDCHAR
STARTCHAR 4E1B
ENCODING 19995
SWIDTH 990 0
DWIDTH 33 0
BBX 30 27 2 0
BITMAP
03E03E00
03E03E00
03E03E00
03E03E00
03E03E00
03E03E00
03E03E00
03E03E00
03E03E00
03E03E00
03E03F00
03FC3F00
07FE7F80
07FE7F80
07FE7FC0
0F9CFBE0
0F00F9F0
1F01F1F8
1E03E1F8
3C07C0F8
700F00F0
00000000
00000000
00000000
FFFFFFFC
FFFFFFFC
FFFFFFFC
ENDCHAR
STARTCHAR 4E1C
ENCODING 19996
SWIDTH 960 0
DWIDTH 32 0
BBX 27 28 3 -1
BITMAP
03F00000
03E00000
07E00000
07E00000
FFFFFFC0
FFFFFFC0
FFFFFFC0
0F800000
1F8F8000
1F8F8000
1F0F8000
3F0F8000
3F0F8000
3E0F8000
7FFFFFC0
7FFFFFC0
3FFFFFC0
000F8000
100F8000
3C0F81C0
3E0F83E0
3E0F83E0
7E0F83E0
7C0F83E0
F86F81C0
E07F8000
007F8000
003F0000
ENDCHAR
STARTCHAR 4E1D
ENCODING 19997
SWIDTH 990 0
DWIDTH 33 0
BBX 29 27 2 0
BITMAP
03800E00
07E00F80
07C01F00
07C01F00
0F801E00
0F383E00
1E3C3CE0
1C7E79F0
387C71F0
FFFCC3F0
FFFBFFE0
FFF1FFE0
7FF1FFC0
7BE1EF80
07C01F00
07803E00
0F003C00
FFFC7838
FFF9FFF0
FFE1FFC0
7F81FF00
7E00FC00
3000E000
00000000
FFFFFFF8
FFFFFFF8
FFFFFFF8
ENDCHAR
STARTCHAR 4E1E
ENCODING 19998
SWIDTH 990 0
DWIDTH 33 0
BBX 29 28 2 -1
BITMAP
00000400
00000E00
1FFFFF80
1FFFFF80
1FFFFF00
00007F00
00007C00
000FF980
000FE1C0
000FC1C0
7FCFC3E0
7FCFE7E0
7FCFEFC0
07CFFF00
07CFBC00
0FCFBE00
0F8F9F80
0F8F9FE0
1F0F8FF0
3E0F87F0
787F87E0
007F8180
003F0000
00000000
00000000
FFFFFFF8
FFFFFFF8
FFFFFFF8
ENDCHAR
STARTCHAR 4E22
ENCODING 20002
SWIDTH 990 0
DWIDTH 33 0
BBX 29 28 2 -1
BITMAP
00000700
00003F00
0007FF80
1FFFFF80
07FFFF00
003FC000
000F8000
000F8000
3FFFFFE0
3FFFFFE0
3FFFFFE0
000F8000
000F8000
000F8000
000F8000
FFFFFFF8
FFFFFFF8
FFFFFFF8
003E0000
007E1000
00FE0C00
01F80F00
03E00780
1FFFFFE0
1FFFF3E0
1FFF83E0
0FFC03C0
0FC00180
ENDCHAR
STARTCHAR 4E24
ENCODING 20004
SWIDTH 990 0
DWIDTH 33 0
BBX 29 26 2 -2
BITMAP
FFFFFFF8
FFFFFFF8
FFFFFFF8
00F8F800
00F8F800
7CF8F800
7FFFFFE0
7FFFFFF0
7FFFFFF0
7CF8F9F0
7CF8F9F0
7CF8F9F0
7CF8F9F0
7CFCFFF0
7CFDFFF0
7DFFFFF0
7DFDFFF0
7DFFEFF0
7FC3C1F0
7F8781F0
7F0601F0
7C0801F0
7C0001F0
7C000FF0
7C000FF0
700007E0
ENDCHAR
STARTCHAR 4E25
ENCODING 20005
SWIDTH 990 0
DWIDTH 33 0
BBX 30 27 2 -2
BITMAP
3FFFFFF8
3FFFFFF8
3FFFFFF8
007C7C00
007C7C00
0E7C7C60
1F7C7CF8
1F7C7CF8
1F7C7DF0
0E7C7DC0
007C7C00
1FFFFFFC
1FFFFFFC
1FFFFFFC
1F000000
1F000000
1F000000
1F000000
1F000000
1F000000
1E000000
3E000000
3C000000
3C000000
78000000
60000000
80000000
ENDCHAR
STARTCHAR 4E27
ENCODING 20007
SWIDTH 990 0
DWIDTH 33 0
BBX 29 28 2 0
BITMAP
000F8000
000F8000
000F8000
3FFFFFF0
3FFFFFF0
3FFFFFF0
070F8300
0F8F87C0
0F8F87C0
0F8F8F80
070F8F00
000F8000
FFFFFFF8
FFFFFFF8
FFFFFFF8
07C38000
07C18180
07C1C3C0
07C1E7E0
07C0FFC0
07C0FF80
07C27F00
07FC3FE0
1FF81FF8
1FE00FF0
1FC007F0
0F0003E0
04000000
ENDCHAR
STARTCHAR 4E28
ENCODING 20008
SWIDTH 990 0
DWIDTH 33 0
BBX 5 28 14 -2
BITMAP
F8
F8
F8
F8
F8
F8
F8
F8
F8
F8
F8
F8
F8
F8
F8
F8
F8
F8
F8
F8
F8
F8
F8
F8
F8
F8
F8
E0
ENDCHAR
STARTCHAR 4E2A
ENCODING 20010
SWIDTH 990 0
DWIDTH 33 0
BBX 29 28 2 0
BITMAP
000C0000
000F0000
001F8000
003F8000
003F0000
007FC000
00FFF000
01FCFC00
03F87FC0
07F03FF8
0FC01FF8
3F0F87F0
F80F83F0
000F8040
000F8000
000F8000
000F8000
000F8000
000F8000
000F8000
000F8000
000F8000
000F8000
000F8000
000F8000
000F8000
000F0000
000C0000
ENDCHAR
STARTCHAR 4E2B
ENCODING 20011
SWIDTH 990 0
DWIDTH 33 0
BBX 24 27 5 -1
BITMAP
000018
C0003C
78003F
3F007F
1F807E
0FC0FC
0FC0F8
0781F0
0303C0
020000
000000
007C00
007C00
007C00
007C00
007C00
007C00
007C00
007C00
007C00
007C00
007C00
007C00
007C00
007C00
007C00
007800
ENDCHAR
STARTCHAR 4E2C
ENCODING 20012
SWIDTH 960 0
DWIDTH 32 0
BBX 16 28 8 -2
BITMAP
001F
001F
001F
001F
001F
1E1F
3F1F
3F1F
3F1F
3F1F
1E1F
001F
001F
001F
001F
007F
03FF
3FFF
FFFF
FFDF
7F1F
3E1F
381F
001F
001F
001F
001F
001C
ENDCHAR
STARTCHAR 4E2D
ENCODING 20013
SWIDTH 990 0
DWIDTH 33 0
BBX 27 28 3 -2
BITMAP
001F0000
001F0000
001F0000
001F0000
F81F0000
FFFFFFC0
FFFFFFE0
FFFFFFE0
F81F03E0
F81F03E0
F81F03E0
F81F03E0
F81F03E0
F81F03E0
F81F03E0
F81F03E0
FFFFFFE0
FFFFFFE0
7FFFFFC0
001F0000
001F0000
001F0000
001F0000
001F0000
001F0000
001F0000
001E0000
00100000
ENDCHAR
STARTCHAR 4E30
ENCODING 20016
SWIDTH 990 0
DWIDTH 33 0
BBX 29 28 2 -2
BITMAP
000F8000
000F8000
000F8000
000F8000
7FFFFFF0
7FFFFFF0
7FFFFFF0
000F8000
000F8000
000F8000
000F8000
000F8000
1FFFFFC0
1FFFFFC0
1FFFFFC0
000F8000
000F8000
000F8000
000F8000
FFFFFFF8
FFFFFFF8
FFFFFFF8
000F8000
000F8000
000F8000
000F8000
000F8000
000F0000
ENDCHAR
STARTCHAR 4E32
ENCODING 20018
SWIDTH 990 0
DWIDTH 33 0
BBX 27 28 3 -1
BITMAP
001F0000
001F0000
7C1F0000
7FFFFFC0
7FFFFFC0
7FFFFFC0
7C1F07C0
7C1F07C0
7C1F07C0
7FFFFFC0
7FFFFF80
0FFFFF00
001F0000
F81F0000
FFFFFFE0
FFFFFFE0
FFFFFFE0
F81F03E0
F81F03E0
F81F03E0
FFFFFFE0
FFFFFFE0
7FFFFFC0
001F0000
001F0000
001F0000
001E0000
00100000
ENDCHAR
STARTCHAR 4E34
ENCODING 20020
SWIDTH 960 0
DWIDTH 32 0
BBX 30 28 1 -1
BITMAP
0000E000
03E0F800
03E0F800
03E1F800
FBE1FFFC
FBE1FFFC
FBE3FFFC
FBE3E700
FBE3CF80
FBE70F80
FBEC0F80
FBE00700
FBE00000
FBE7C000
FBE7FFF8
FBE7FFFC
FBE7FFFC
FBE7CF7C
FBE7CF7C
FBE7CF7C
FBE7CF7C
FBE7CF7C
F3E7CF7C
83E7CF7C
03E7FFFC
03E7FFFC
03C3FFF8
03000000
ENDCHAR
STARTCHAR 4E36
ENCODING 20022
SWIDTH 990 0
DWIDTH 33 0
BBX 8 8 13 8
BITMAP
E0
FC
7E
3F
1F
1E
0E
08
ENDCHAR
STARTCHAR 4E38
ENCODING 20024
SWIDTH 960 0
DWIDTH 32 0
BBX 29 28 2 -1
BITMAP
03E00000
03E00000
03E00000
03E00000
03E00000
FFFFF000
FFFFFE00
FFFFFE00
03E03E00
03E03E00
03E03E00
03E03E00
03E03E00
7FE03E00
1FF03E00
0FFC3E00
07FE3E00
07FE3E00
07FE3E00
07FE3E00
0FBC3E00
0F983E00
0F003E00
1F003E00
1E003FF8
3C003FF0
78003FF0
C0001FE0
ENDCHAR
STARTCHAR 4E39
ENCODING 20025
SWIDTH 960 0
DWIDTH 32 0
BBX 30 27 1 -2
BITMAP
07C00000
07FFFF80
07FFFFC0
07FFFFC0
07C007C0
07CC07C0
07C707C0
07C7C7C0
07C7C7C0
07C3C7C0
07C387C0
07C207C0
07C007C0
FFFFFFFC
FFFFFFFC
FFFFFFFC
07C007C0
07C007C0
07C007C0
07C007C0
078007C0
0F8007C0
0F8007C0
0F0007C0
1E001FC0
1C003FC0
38000F80
ENDCHAR
STARTCHAR 4E3A
ENCODING 20026
SWIDTH 960 0
DWIDTH 32 0
BBX 27 27 3 -1
BITMAP
01F00000
39F00000
7DF00000
7DF00000
7DF00000
39F00000
01F00000
FFFFFFC0
FFFFFFE0
FFFFFFE0
01F003E0
01F003E0
01F003E0
01F003E0
01F3C3E0
03E7E3E0
03E7E3E0
03E7E3E0
03C7E3E0
07C3C3E0
07C003E0
0F8003E0
0F0003E0
1F0003E0
3C001FE0
78001FE0
E0000FC0
ENDCHAR
STARTCHAR 4E3B
ENCODING 20027
SWIDTH 990 0
DWIDTH 33 0
BBX 29 28 2 -1
BITMAP
00070000
000F8000
000F8000
000F8000
000F8000
00070000
7FFFFFF0
7FFFFFF0
7FFFFFF0
000F8000
000F8000
000F8000
000F8000
000F8000
000F8000
3FFFFFE0
3FFFFFE0
3FFFFFE0
000F8000
000F8000
000F8000
000F8000
000F8000
000F8000
000F8000
FFFFFFF8
FFFFFFF8
FFFFFFF8
ENDCHAR
STARTCHAR 4E3D
ENCODING 20029
SWIDTH 960 0
DWIDTH 32 0
BBX 30 26 1 -2
BITMAP
FFFFFFFC
FFFFFFFC
FFFFFFFC
00000000
7C00F800
7FFCFFF8
7FFCFFF8
7FFCFFF8
7C7CF8F8
7C7CF8F8
7C7CF8F8
7C7CF8F8
7E7CFCF8
7FFCFFF8
7FFCFFF8
7FFCFFF8
7DFCFBF8
7C7CF8F8
7C7CF8F8
7C7CF8F8
7C7CF8F8
7C7CF8F8
7C7CF8F8
7DFCFBF8
7DFCFBF8
78F8F1F0
ENDCHAR
STARTCHAR 4E3E
ENCODING 20030
SWIDTH 960 0
DWIDTH 32 0
BBX 29 29 2 -2
BITMAP
00070000
070F8780
0F8F87E0
0F8F87C0
0F870F80
07001F00
00000000
7FFFFFF0
7FFFFFF0
7FFFFFF0
03F03C00
07E01F00
0FEF9FE0
1FCF8FF8
3F8F87F8
FFFFFFF0
07FFFF70
07FFFF00
000F8000
000F8000
000F8000
3FFFFFF0
3FFFFFF0
3FFFFFF0
000F8000
000F8000
000F8000
000F0000
000C0000
ENDCHAR
STARTCHAR 4E3F
ENCODING 20031
SWIDTH 960 0
DWIDTH 32 0
BBX 8 27 12 -2
BITMAP
1F
1F
1F
1F
1F
1F
1F
1F
1F
1F
1F
1F
1F
1F
1F
1F
1F
1F
1E
3E
3E
3E
3C
3C
78
70
E0
ENDCHAR
STARTCHAR 4E43
ENCODING 20035
SWIDTH 960 0
DWIDTH 32 0
BBX 28 26 2 -2
BITMAP
FFFFFF80
FFFFFF80
FFFFFF80
0F801F80
0F803F00
0F803F00
0F807E00
0F807E00
0F80FC00
0F80FC00
0F81FFC0
0F81FFF0
0F80FFF0
0F8001F0
0F8001F0
0F8001F0
0F0001F0
1F0001F0
1F0001F0
1F0001F0
1E0001F0
3E0001F0
3C0011F0
78001FF0
70001FF0
C0000FE0
ENDCHAR
STARTCHAR 4E45
ENCODING 20037
SWIDTH 990 0
DWIDTH 33 0
BBX 29 27 2 -1
BITMAP
03E00000
03F00000
07F00000
07F00000
07FFFE00
07FFFE00
07FFFE00
0FC07E00
0F80FE00
0F00FC00
1F00FC00
1E01FC00
1C01F800
3003F800
0003F000
0007F000
000FF000
000FF800
001FFC00
003FBF00
007F1F80
00FE1FF0
01FC0FF8
07F00FF8
0FC007F0
3F0003E0
F00001C0
ENDCHAR
STARTCHAR 4E47
ENCODING 20039
SWIDTH 960 0
DWIDTH 32 0
BBX 29 27 1 0
BITMAP
00003E00
0001FE00
001FFF00
07FFFF00
1FFFFC00
03FF8000
001F0000
001F0000
001F0000
001F0000
001F0000
001F0000
001FFFF0
FFFFFFF0
FFFFFFF8
FFFF0000
001F0000
001F0000
001F0000
001F0000
001F0000
001F0000
001F0000
001FFFF8
001FFFF8
001FFFF8
000FFFF0
ENDCHAR
STARTCHAR 4E48
ENCODING 20040
SWIDTH 990 0
DWIDTH 33 0
BBX 27 28 3 -2
BITMAP
00600000
00F80000
00FC0000
00FE0000
01FC0000
01FC0000
03F80000
07F0C000
07E0F000
0FC1FC00
1F83F800
1F03F800
3E07F000
780FE000
C00FE000
001FC000
003F8000
003F0000
007E1800
00F80E00
01F00F00
03C00FC0
7FFFFFC0
3FFFF3E0
3FFFC3E0
3FFF03E0
1FF80380
0F000000
ENDCHAR
STARTCHAR 4E49
ENCODING 20041
SWIDTH 990 0
DWIDTH 33 0
BBX 29 27 2 -2
BITMAP
000F0000
001F8000
001F8000
041F87C0
041F8FE0
040F0FE0
02000FC0
02000FC0
03001FC0
03801F80
03803F80
01C03F80
01E07F00
01F07F00
00F8FE00
00FDFC00
007FFC00
003FF800
003FF000
001FF000
001FFF00
007FFFF8
00FFFFF8
03FCFFF8
0FF03FF0
3F800FE0
C0000000
ENDCHAR
STARTCHAR 4E4B
ENCODING 20043
SWIDTH 990 0
DWIDTH 33 0
BBX 30 28 1 -2
BITMAP
00038000
0007C000
0007C000
0007C000
00038000
00000000
3FFFFFE0
3FFFFFE0
3FFFFFF0
00000FE0
00001FC0
00007F80
0000FF00
0001FE00
0003FC00
0007F800
000FF000
001FE000
007F8000
00FF0000
01FE0000
03FC0000
07F80000
0FF00000
1FFFFFFC
7FFFFFFC
FF7FFFFC
3E3FFFF8
ENDCHAR
STARTCHAR 4E4C
ENCODING 20044
SWIDTH 990 0
DWIDTH 33 0
BBX 27 28 3 0
BITMAP
000E0000
000F8000
001F0000
0FFFFF00
0FFFFF80
0FFFFF80
0F800F80
0F800F80
0F800F80
0F800F80
0F80FF80
0F80FF80
0F807F00
0F800000
0F800000
0FFFFFE0
0FFFFFE0
07FFFFE0
000003E0
000003E0
FFFFE3E0
FFFFE3E0
FFFFE3E0
000003E0
000003E0
00003FE0
00003FE0
00001FC0
ENDCHAR
STARTCHAR 4E4D
ENCODING 20045
SWIDTH 960 0
DWIDTH 32 0
BBX 28 28 2 -1
BITMAP
0F000000
0FC00000
0FC00000
1FC00000
1FFFFFF0
1FFFFFF0
1FFFFFF0
3F1F0000
3E1F0000
3C1F0000
781F0000
701FFFC0
C01FFFC0
001FFFC0
001F0000
001F0000
001F0000
001F0000
001FFFE0
001FFFE0
001FFFE0
001F0000
001F0000
001F0000
001F0000
001F0000
001E0000
00100000
ENDCHAR
STARTCHAR 4E4E
ENCODING 20046
SWIDTH 990 0
DWIDTH 33 0
BBX 29 28 2 0
BITMAP
00000780
00007F80
001FFF80
3FFFFFC0
0FFFFFC0
00FFFE00
0007C000
0007C000
0707C380
0F87C3C0
0F87C3E0
0F87C7C0
0707CF80
0007C000
FFFFFFF8
FFFFFFF8
FFFFFFF8
0007C000
0007C000
0007C000
0007C000
0007C000
0007C000
0007C000
0047C000
007FC000
007FC000
001F8000
ENDCHAR
STARTCHAR 4E4F
ENCODING 20047
SWIDTH 960 0
DWIDTH 32 0
BBX 28 28 2 -1
BITMAP
00000E00
0000FF00
003FFF00
7FFFFF00
1FFFFF00
01FFFC00
000E0000
001F0000
001F0000
001F0000
000E0000
00000000
7FFFFF00
7FFFFF80
7FFFFF80
0000FF80
0001FF00
0007FE00
000FF800
003FF000
007FC000
01FF8000
03FE0000
0FF80000
1FFFFFF0
7FFFFFF0
FFFFFFE0
7E7FFFE0
ENDCHAR
STARTCHAR 4E50
ENCODING 20048
SWIDTH 960 0
DWIDTH 32 0
BBX 28 28 2 0
BITMAP
00000300
00003F80
0007FF80
3FFFFF80
3FFFFE00
3E7FF000
3E000000
3E000000
3E07C000
3E07C000
3E07C000
3E07C000
3E07C000
3E07C000
3FFFFFE0
3FFFFFE0
1FFFFFE0
0007C000
0007C000
1C07C0E0
1F07C1F0
3F07C1F0
3E07C1F0
7E07C1F0
7C27C0E0
F03FC000
003FC000
001F8000
ENDCHAR
STARTCHAR 4E52
ENCODING 20050
SWIDTH 960 0
DWIDTH 32 0
BBX 30 27 1 0
BITMAP
00000380
00003FC0
0FFFFFC0
0FFFFF80
0FBFF800
0F800000
0F800000
0F800000
0F800000
0FFFFFF0
0FFFFFF0
0FFFFFF0
0F803E00
0F803E00
0F803E00
0F803E00
0F803E00
FFFFFFFC
FFFFFFFC
FFFFFFFC
00000000
03800000
03C00000
07E00000
0FC00000
1F800000
0E000000
ENDCHAR
STARTCHAR 4E53
ENCODING 20051
SWIDTH 960 0
DWIDTH 32 0
BBX 30 27 1 0
BITMAP
00000780
00007F80
0FFFFFC0
0FFFFF80
0FBFF000
0F800000
0F800000
0F800000
0F800000
0FFFFFF0
0FFFFFF0
0FFFFFF0
0F807C00
0F807C00
0F807C00
0F807C00
0F807C00
0F807C00
FFFFFFFC
FFFFFFFC
FFFFFFFC
00000700
00000F80
00000F80
00000F80
00000F80
00000700
ENDCHAR
STARTCHAR 4E54
ENCODING 20052
SWIDTH 960 0
DWIDTH 32 0
BBX 28 30 2 -2
BITMAP
00000400
00003E00
0003FF00
007FFF00
3FFFFF00
0FFFFE00
01FFF000
001F0000
003F0000
003F0000
FFFFFFF0
FFFFFFF0
FFFFFFF0
01F87800
03F03F80
07E01FF0
1F800FF0
3FE07FE0
FFE07FE0
03E07CC0
03E07C00
03E07C00
03E07C00
03E07C00
03C07C00
07C07C00
07C07C00
0F807C00
1F007800
30000000
ENDCHAR
STARTCHAR 4E56
ENCODING 20054
SWIDTH 960 0
DWIDTH 32 0
BBX 28 29 2 -1
BITMAP
00001E00
0001FE00
007FFF00
1FFFFF00
03FFFC00
000F8000
000F8000
000F8000
FFFFFFF0
FFFFFFF0
FFFFFFF0
000F8000
000F8000
07CFBEC0
FFCFBEE0
FFCFBFF0
FFCFBFE0
07CFBF80
07CFBE00
0FCFBE00
FFCFBFF0
FFCFBFE0
FFCFBFE0
678F9FC0
060F8000
000F8000
000F8000
000F0000
00080000
ENDCHAR
STARTCHAR 4E58
ENCODING 20056
SWIDTH 960 0
DWIDTH 32 0
BBX 28 28 2 -1
BITMAP
00001E00
0001FE00
007FFF00
3FFFFF00
03FFFC00
000F8000
000F8000
FFFFFFF0
FFFFFFF0
FFFFFFF0
000F8000
07CFBE40
FFCFBEE0
FFCFBFE0
FFCFBFF0
07CFBE80
07CFBE00
7FCFBFF0
FFCFBFE0
FFCFBFE0
770F9FE0
020F8400
070F8E00
0F8F9F00
1FCFBF80
7F8F9FE0
FE0F87F0
000E0000
ENDCHAR
STARTCHAR 4E59
ENCODING 20057
SWIDTH 990 0
DWIDTH 33 0
BBX 28 25 3 -1
BITMAP
FFFFFF00
FFFFFF80
FFFFFF80
00007F00
0000FE00
0001FC00
0003F800
0007F000
000FE000
001FC000
003FC000
007F8000
00FF0000
01FE0000
03FC0000
07F80000
07F00000
0FE00000
1FC00000
3F800000
7F000000
FFFFFFF0
FFFFFFE0
FFFFFFE0
7FFFFFC0
ENDCHAR
STARTCHAR 4E5C
ENCODING 20060
SWIDTH 990 0
DWIDTH 33 0
BBX 29 26 2 -1
BITMAP
0F800000
0F800000
0F800000
0F800180
0F807FC0
0F8FFFC0
0FFFFFC0
7FFF07C0
FFE007C0
FF8007C0
0F8007C0
0F8007C0
0F8007C0
0F8007C0
0F8007C0
0F803FC0
0F803FC0
0F803FC0
0F800000
0F800000
0F800000
0F800000
0FFFFFF8
0FFFFFF8
0FFFFFF8
07FFFFF0
ENDCHAR
STARTCHAR 4E5D
ENCODING 20061
SWIDTH 990 0
DWIDTH 33 0
BBX 28 28 3 -1
BITMAP
03E00000
03E00000
03E00000
03E00000
03E00000
03E00000
FFFFF000
FFFFFE00
FFFFFE00
03E03E00
03E03E00
03E03E00
03E03E00
03E03E00
03E03E00
03E03E00
07C03E00
07C03E00
07C03E00
07803E00
0F803E00
0F803E00
0F003E00
1E003E00
3E003FF0
3C003FF0
70003FF0
C0001FE0
ENDCHAR
STARTCHAR 4E5E
ENCODING 20062
SWIDTH 990 0
DWIDTH 33 0
BBX 29 28 2 0
BITMAP
07800000
07E00000
0FE00000
0FE00000
0FFFFFF0
0FFFFFF0
1FFFFFF0
1F800000
1F000000
3E000000
3FFFFF00
7FFFFF80
8FFFFF80
0000FF80
0001FF00
0003FE00
0007FC00
001FF000
003FE000
007FC000
00FF0000
03FE0000
07FC0000
0FF80000
1FFFFFF8
1FFFFFF8
1FFFFFF0
0FFFFFF0
ENDCHAR
STARTCHAR 4E5F
ENCODING 20063
SWIDTH 960 0
DWIDTH 32 0
BBX 29 27 2 0
BITMAP
000F8000
000F8000
1F0F8000
1F0F8000
1F0F8FC0
1F0FFFC0
1FFFFFC0
3FFFE7C0
FFFF87C0
FF0F87C0
9F0F87C0
1F0F87C0
1F0F87C0
1F0F87C0
1F0F87C0
1F0FA7C0
1F0FBFC0
1F0FBFC0
1F0F9FC0
1F0F0000
1F0C0000
1F000000
1F000000
1FFFFFF8
1FFFFFF0
1FFFFFF0
0FFFFFE0
ENDCHAR
STARTCHAR 4E60
ENCODING 20064
SWIDTH 990 0
DWIDTH 33 0
BBX 25 26 4 -2
BITMAP
7FFFFF00
7FFFFF80
7FFFFF80
00000F80
00000F80
00000F80
03C00F80
07E00F80
07E00F80
07E00F80
07E00F80
03C00F80
00008F80
00030F80
000F0F80
003E0F80
00FC0F80
07F80F80
1FF00F80
FFE00F80
7FC00F80
7F800F80
3F000F80
1C00FF80
0000FF80
0000FF80
ENDCHAR
STARTCHAR 4E61
ENCODING 20065
SWIDTH 990 0
DWIDTH 33 0
BBX 28 28 3 -2
BITMAP
00180000
003C0000
003E0000
007E0000
00FC1C00
01F83E00
03F07F00
7FFFFF00
7FFFFE00
3FFFFC00
3FFFF800
3FEFF3C0
1E1FE3F0
003F87F0
00FE07E0
01FC0FE0
7FFFFFC0
7FFFFFC0
7FFFFF80
7FFFFF00
3FF9FE00
3F03FC00
000FF800
001FE000
007FC000
03FF0000
1FF80000
FF800000
ENDCHAR
STARTCHAR 4E66
ENCODING 20070
SWIDTH 960 0
DWIDTH 32 0
BBX 28 28 2 -2
BITMAP
007C0000
007C00E0
007C01F0
007C01F0
007C00E0
1FFFFF00
1FFFFF80
1FFFFF80
007C0F80
007C0F80
007C0F80
007C0F80
007C0F80
007C0F80
FFFFFFF0
FFFFFFF0
FFFFFFF0
007C01F0
007C01F0
007C01F0
007C01F0
007C01F0
007C01F0
007C0FF0
007C0FF0
007C07E0
007C0000
00780000
ENDCHAR
STARTCHAR 4E69
ENCODING 20073
SWIDTH 990 0
DWIDTH 33 0
BBX 31 28 1 -2
BITMAP
03E01F00
03E01F00
03E01F00
03E01F00
03E01F00
03FF9F00
03FF9F00
03FF9F00
03E01F00
03E01F00
03E01F00
03E01F00
F3E01F00
FFFF1F00
FFFF9F00
FFFF9F00
FC0F9F00
FC0F9F00
FC0F9F00
FC0F9F00
FC0F9F00
FC0F9F00
FC0F9F00
FC2F9FFE
FFEF1FFC
FFFF1FFC
7F9E0FF8
00300000
ENDCHAR
STARTCHAR 4E70
ENCODING 20080
SWIDTH 960 0
DWIDTH 32 0
BBX 28 27 2 -1
BITMAP
000001C0
7FFFFFE0
7FFFFFE0
7FFFFFE0
000003E0
0FC7C7C0
1FE7C780
07E7CF00
01E7CE00
00C7C000
7F07C000
1F07C000
0F07C000
0707C000
0207C000
FFFFFFF0
FFFFFFF0
FFFFFFF0
003F8000
003F8000
007FFC00
00FFFF80
01FE3FC0
03FC1FC0
07F807C0
1FE00380
FF800180
ENDCHAR
STARTCHAR 4E71
ENCODING 20081
SWIDTH 990 0
DWIDTH 33 0
BBX 31 28 1 -1
BITMAP
00040000
001C1F00
007E1F00
03FE1F00
FFFE1F00
3FFC1F00
03E01F00
03E01F00
03E01F00
03E01F00
FFFF9F00
FFFF9F00
FFFF9F00
03E01F00
03E01F00
03E01F00
7BFE1F00
7FFF1F00
7FFF1F00
7FFF1F00
7C1F1F00
7C1F1F00
7C1F1F00
7C1F1F00
7FDF1FFE
7FDE1FFC
3FDE1FFC
003C0FF8
ENDCHAR
STARTCHAR 4E73
ENCODING 20083
SWIDTH 990 0
DWIDTH 33 0
BBX 30 28 1 0
BITMAP
000C0000
007E3E00
0FFF3E00
7FFF3E00
0FF83E00
00003E00
39CE3E00
7FEFBE00
7FEF3E00
7DDF3E00
381C3E00
00063E00
7FFF3E00
7FFFBE00
7FFF3E00
003E3E00
00783E00
03E03E00
03FF3E00
FFFE3E00
7FF83E00
7FE03E00
7FE03E00
3BE03E00
03E03FFC
0FE03FFC
0FE03FFC
0FC01FF8
ENDCHAR
STARTCHAR 4E7E
ENCODING 20094
SWIDTH 990 0
DWIDTH 33 0
BBX 30 28 1 -2
BITMAP
07C07800
07C07C00
07C07C00
FFFE7C00
FFFE7FFC
FFFE7FFC
07C07FFC
E7C0F000
FFFCF000
FFFCE000
FFFCC000
F83DFFF0
FFFCFFF0
FFFCFFF0
FFFC03F0
F83C07E0
F83C07E0
FFFC0FC0
FFFC0FC0
7FF81F80
07C03F00
FFFE3F00
FFFE7E00
FFFEFC00
07C0FFFC
07C1FFFC
07C1FFFC
0700FFF8
ENDCHAR
STARTCHAR 4E86
ENCODING 20102
SWIDTH 960 0
DWIDTH 32 0
BBX 25 28 3 -1
BITMAP
00000400
00000E00
FFFFFF80
FFFFFF80
FFFFFF80
00007F00
00007E00
0000FC00
0001F800
0003F000
0007C000
003F0000
003E0000
003E0000
003E0000
003E0000
003E0000
003E0000
003E0000
003E0000
003E0000
003E0000
003E0000
003E0000
03BE0000
03FE0000
03FE0000
00FC0000
ENDCHAR
STARTCHAR 4E88
ENCODING 20104
SWIDTH 960 0
DWIDTH 32 0
BBX 29 28 1 -1
BITMAP
00000200
00000780
1FFFFFC0
1FFFFFE0
1FFFFFC0
00003F80
00007F00
0000FC00
007DF000
003FC000
001FC000
000FC0E0
FFFFFFF8
FFFFFFF8
FFFFFFF8
000F81F0
000F83E0
000F8380
000F8400
000F8000
000F8000
000F8000
000F8000
000F8000
00EF8000
00FF8000
00FF8000
001F0000
ENDCHAR
STARTCHAR 4E89
ENCODING 20105
SWIDTH 990 0
DWIDTH 33 0
BBX 29 28 2 -1
BITMAP
07800000
07E00000
07C03C00
07FFFE00
0FFFFE00
0FFFFE00
1F00FC00
1E00F000
3FFFFFC0
7FFFFFC0
8FFFFFC0
001F07C0
001F07C0
FFFFFFF8
FFFFFFF8
FFFFFFF8
001F07C0
001F07C0
0FFFFFC0
0FFFFFC0
0FFFFFC0
001F0000
001F0000
001F0000
009F0000
00FF0000
00FF0000
003E0000
ENDCHAR
STARTCHAR 4E8B
ENCODING 20107
SWIDTH 960 0
DWIDTH 32 0
BBX 30 28 1 -1
BITMAP
000F8000
000F8000
7FFFFFF8
7FFFFFF8
7FFFFFF8
1FFFFFC0
1FFFFFE0
1FFFFFE0
1F0F83E0
1F0F83E0
1FFFFFE0
1FFFFFC0
03FFFF80
3FFFFFC0
3FFFFFE0
3FFFFFE0
000F83E0
FFFFFFFC
FFFFFFFC
FFFFFFFC
000F83E0
000F83E0
3FFFFFE0
3FFFFFE0
3FFFFFC0
006F8000
007F8000
007F0000
ENDCHAR
STARTCHAR 4E8C
ENCODING 20108
SWIDTH 960 0
DWIDTH 32 0
BBX 28 22 2 1
BITMAP
3FFFFFC0
3FFFFFC0
3FFFFFC0
00000000
00000000
00000000
00000000
00000000
00000000
00000000
00000000
00000000
00000000
00000000
00000000
00000000
00000000
00000000
00000000
FFFFFFF0
FFFFFFF0
FFFFFFF0
ENDCHAR
STARTCHAR 4E8D
ENCODING 20109
SWIDTH 960 0
DWIDTH 32 0
BBX 28 26 2 -1
BITMAP
3FFFFFC0
3FFFFFC0
3FFFFFC0
00000000
00000000
00000000
00000000
00000000
00000000
FFFFFFF0
FFFFFFF0
FFFFFFF0
000F8000
000F8000
000F8000
000F8000
000F8000
000F8000
000F8000
000F8000
000F8000
000F8000
000F8000
00FF8000
00FF8000
003F0000
ENDCHAR
STARTCHAR 4E8E
ENCODING 20110
SWIDTH 960 0
DWIDTH 32 0
BBX 28 26 2 -1
BITMAP
3FFFFFC0
3FFFFFC0
3FFFFFC0
000F8000
000F8000
000F8000
000F8000
000F8000
000F8000
000F8000
FFFFFFF0
FFFFFFF0
FFFFFFF0
000F8000
000F8000
000F8000
000F8000
000F8000
000F8000
000F8000
000F8000
000F8000
008F8000
00FF8000
00FF8000
003F0000
ENDCHAR
STARTCHAR 4E8F
ENCODING 20111
SWIDTH 960 0
DWIDTH 32 0
BBX 28 26 2 -2
BITMAP
3FFFFFC0
3FFFFFC0
3FFFFFC0
00000000
00000000
00000000
00000000
00000000
FFFFFFF0
FFFFFFF0
FFFFFFF0
07C00000
07C00000
07C00000
07C00000
07FFFF80
07FFFF80
01FFFF80
00000F80
00000F80
00000F80
00000F80
00000F80
00007F80
00007F80
00007F00
ENDCHAR
STARTCHAR 4E91
ENCODING 20113
SWIDTH 960 0
DWIDTH 32 0
BBX 28 26 2 -2
BITMAP
1FFFFF80
1FFFFF80
1FFFFF80
00000000
00000000
00000000
00000000
00000000
00000000
FFFFFFF0
FFFFFFF0
FFFFFFF0
00700000
00FC0000
00FC0000
00FC0000
01F81000
01F01C00
03E00E00
03C00F00
07000780
3FFFFFC0
3FFFE7C0
3FFF87C0
1FFC03C0
0F800300
ENDCHAR
STARTCHAR 4E92
ENCODING 20114
SWIDTH 960 0
DWIDTH 32 0
BBX 28 26 2 -1
BITMAP
7FFFFFF0
7FFFFFF0
7FFFFFF0
07E00000
07C00000
07C00000
07C00000
07FFFC00
07FFFF80
0FFFFF80
0F800F80
0F800F80
0F800F80
0F801F80
0F801F00
1F801F00
1FFFFF00
1FFFFF00
07FFFF00
00003F00
00003F00
00003E00
00003E00
FFFFFFF0
FFFFFFF0
FFFFFFF0
ENDCHAR
STARTCHAR 4E93
ENCODING 20115
SWIDTH 960 0
DWIDTH 32 0
BBX 28 26 2 -2
BITMAP
1FFFFF80
1FFFFF80
1FFFFF80
00000000
00000000
00000000
00000000
00000000
00000000
FFFFFFF0
FFFFFFF0
FFFFFFF0
07C03E00
07C03E00
07C03E00
07C03E00
07C03E00
07C03E00
07C03E00
07C03E00
0F803E00
0F803E00
0F803E00
1F003E00
1E003E00
3C003C00
ENDCHAR
STARTCHAR 4E94
ENCODING 20116
SWIDTH 990 0
DWIDTH 33 0
BBX 29 26 2 -1
BITMAP
7FFFFFF0
7FFFFFF0
7FFFFFF0
00F80000
00F80000
01F80000
01F80000
01F80000
01F00000
01F00000
3FFFFF00
3FFFFF80
3FFFFF80
01F00F80
03F00F80
03F00F80
03F00F80
03E00F80
03E00F80
03E00F80
03E00F80
03E00F80
03E00F80
FFFFFFF8
FFFFFFF8
FFFFFFF8
ENDCHAR
STARTCHAR 4E95
ENCODING 20117
SWIDTH 1020 0
DWIDTH 34 0
BBX 30 28 2 -2
BITMAP
03E03E00
03E03E00
03E03E00
03E03E00
03E03E00
7FFFFFF0
7FFFFFF0
7FFFFFF0
03E03E00
03E03E00
03E03E00
03E03E00
03E03E00
03E03E00
03E03E00
FFFFFFFC
FFFFFFFC
FFFFFFFC
03E03E00
07C03E00
07C03E00
07C03E00
07803E00
0F803E00
0F003E00
1E003E00
3C003C00
70003000
ENDCHAR
STARTCHAR 4E98
ENCODING 20120
SWIDTH 990 0
DWIDTH 33 0
BBX 29 26 2 -1
BITMAP
7FFFFFF0
7FFFFFF0
7FFFFFF0
00000000
00000000
1FFFFF00
1FFFFF80
1FFFFF80
1F000F80
1F000F80
1F000F80
1F000F80
1FFFFF80
1FFFFF80
1FFFFF80
1F000F80
1F000F80
1F000F80
1FFFCF00
1FFFDF00
0FFFDE00
00001C00
00003000
FFFFFFF8
FFFFFFF8
FFFFFFF8
ENDCHAR
STARTCHAR 4E9A
ENCODING 20122
SWIDTH 960 0
DWIDTH 32 0
BBX 30 25 1 -1
BITMAP
3FFFFFF8
3FFFFFF8
3FFFFFF8
00F87C00
00F87C00
00F87C00
00F87C00
00F87C00
00F87CE0
1CF87CF8
3EF87CFC
3EF87CF8
3EF87CF0
3EF87DE0
1CF87DC0
00F87C00
00F87C00
00F87C00
00F87C00
00F87C00
00F87C00
00F87C00
FFFFFFFC
FFFFFFFC
FFFFFFFC
ENDCHAR
STARTCHAR 4E9B
ENCODING 20123
SWIDTH 990 0
DWIDTH 33 0
BBX 29 26 2 1
BITMAP
01F0F800
01F0F800
79F0F840
79F0F8E0
79FEF9F0
79FEFFF0
79FEFFF0
79F0FF80
79F0F800
79F0F800
79F0F800
79F0F800
FFFCFFF8
FFF0FFF8
FFC0FFF8
FF007FF0
70000000
1FFFFF80
1FFFFF80
1FFFFF80
00000000
00000000
00000000
7FFFFFF0
7FFFFFF0
7FFFFFF0
ENDCHAR
STARTCHAR 4E9F
ENCODING 20127
SWIDTH 1020 0
DWIDTH 34 0
BBX 30 27 2 0
BITMAP
00000600
1FFFFF00
1FFFFFC0
1FFFFF80
00003F00
00007C00
0000F000
FFC7DFF8
FFE7DFF8
FFE7DFF8
FBE7C1F8
FBE7C1F8
FBE7D9F0
FBE7CFF0
FBE7C7F0
FBE7C3E0
FFE7C7F0
FFC7C7F8
FFC7CFF8
7F87CF78
061FDC30
001FC000
000F8000
00000000
FFFFFFFC
FFFFFFFC
FFFFFFFC
ENDCHAR
STARTCHAR 4EA0
ENCODING 20128
SWIDTH 990 0
DWIDTH 33 0
BBX 29 9 2 19
BITMAP
00070000
000F8000
000F8000
000F8000
00070000
00000000
FFFFFFF8
FFFFFFF8
FFFFFFF8
ENDCHAR
STARTCHAR 4EA1
ENCODING 20129
SWIDTH 990 0
DWIDTH 33 0
BBX 29 27 2 -1
BITMAP
00070000
000F8000
000F8000
000F8000
00070000
00000000
FFFFFFF8
FFFFFFF8
FFFFFFF8
0F800000
0F800000
0F800000
0F800000
0F800000
0F800000
0F800000
0F800000
0F800000
0F800000
0F800000
0F800000
0F800000
0F800000
0FFFFFF0
0FFFFFE0
0FFFFFE0
07FFFFC0
ENDCHAR
STARTCHAR 4EA2
ENCODING 20130
SWIDTH 990 0
DWIDTH 33 0
BBX 29 29 2 -1
BITMAP
00020000
00070000
000F8000
000F8000
000F8000
FFFFFFF0
FFFFFFF0
FFFFFFF0
00000000
00000000
0F800000
0FFFFE00
0FFFFE00
0FFFFE00
0F803E00
0F803E00
0F803E00
0F803E00
0F803E00
0F803E00
0F803E00
0F003E00
1F003E00
1F003E00
1E003E00
1E003FF8
3C003FF8
38003FF8
60001FF0
ENDCHAR
STARTCHAR 4EA4
ENCODING 20132
SWIDTH 960 0
DWIDTH 32 0
BBX 28 29 2 -1
BITMAP
00070000
000F8000
000F8000
000F8000
7FFFFFF0
7FFFFFF0
7FFFFFF0
00000000
01000000
03803C00
03E01F80
07E00FE0
07E007E0
0FC003E0
1F0073C0
3E00F900
0080FC00
0041FC00
0063FC00
003BF800
003FF000
001FF000
001FE000
003FFE00
007FFFF0
01FFFFE0
03F8FFE0
1FE07FC0
FF000F80
ENDCHAR
STARTCHAR 4EA5
ENCODING 20133
SWIDTH 960 0
DWIDTH 32 0
BBX 27 28 3 -1
BITMAP
000E0000
001F0000
001F0000
FFFFFFE0
FFFFFFE0
FFFFFFE0
00F00000
01F80000
01F86000
03F0F800
07E0FC00
7FFFFC00
3FFFF800
3FFFF200
3FFFE780
1F9FCFC0
003F9FC0
007F3FE0
01FE7FC0
03F8FF80
0FE3FF00
3F87FE00
401FF800
007FFF80
01FFFFC0
07FF0FC0
3FF803C0
FF800180
ENDCHAR
STARTCHAR 4EA6
ENCODING 20134
SWIDTH 960 0
DWIDTH 32 0
BBX 29 29 2 -1
BITMAP
00070000
000F8000
000F8000
000F8000
00070000
00000000
FFFFFFF8
FFFFFFF8
FFFFFFF8
00F87C00
00F87C00
00F87C00
00F87C00
78F87C00
7CF87C70
7CF87CF8
7CF87CF8
7CF87CF8
78F87CF8
70F87C70
E0F87C00
81F07C00
01F07C00
01F07C00
01E07C00
03C37C00
03C3FC00
0703FC00
0E00F800
ENDCHAR
STARTCHAR 4EA7
ENCODING 20135
SWIDTH 960 0
DWIDTH 32 0
BBX 28 29 2 -1
BITMAP
00070000
000F8000
000F8000
000F8000
7FFFFFF0
7FFFFFF0
7FFFFFF0
01C01C00
03E01E00
03E03F00
03E03E00
01C07800
00000000
3FFFFFF0
3FFFFFF0
3FFFFFF0
3E000000
3E000000
3E000000
3E000000
3E000000
3E000000
3C000000
3C000000
7C000000
78000000
70000000
60000000
80000000
ENDCHAR
STARTCHAR 4EA8
ENCODING 20136
SWIDTH 990 0
DWIDTH 33 0
BBX 29 30 2 -2
BITMAP
00070000
000F8000
000F8000
FFFFFFF8
FFFFFFF8
FFFFFFF8
0F800000
0FFFFF00
0FFFFF80
0FFFFF80
0F800F80
0F800F80
0FFFEF00
0FFFEF00
07FFFE00
00003800
00000700
3FFFFF80
3FFFFFC0
3FFFFF80
00003F00
00007E00
000FF000
000F8000
000F8000
000F8000
00CF8000
00FF8000
00FF8000
007F0000
ENDCHAR
STARTCHAR 4EA9
ENCODING 20137
SWIDTH 990 0
DWIDTH 33 0
BBX 29 29 2 -1
BITMAP
00070000
000F8000
000F8000
000F8000
00070000
00000000
FFFFFFF8
FFFFFFF8
FFFFFFF8
00000000
00000000
3FFFFFC0
3FFFFFE0
3FFFFFE0
3E0F83E0
3E0F83E0
3E0F83E0
3E0F83E0
3E0F83E0
3FFFFFE0
3FFFFFE0
3FFFFFE0
3E0F83E0
3E0F83E0
3E0F83E0
3E0F83E0
3FFFFFE0
3FFFFFE0
1FFFFFC0
ENDCHAR
STARTCHAR 4EAB
ENCODING 20139
SWIDTH 990 0
DWIDTH 33 0
BBX 29 29 2 -2
BITMAP
00070000
000F8000
000F8000
7FFFFFF8
7FFFFFF8
7FFFFFF8
0F800000
0FFFFF00
0FFFFF80
0FFFFF80
0F800F80
0F800F80
0FFFEF00
0FFFFF00
07FFFE00
00003800
0FFFFE00
0FFFFF00
0FFFFF80
00007F00
0000FE00
FFFFFFF8
FFFFFFF8
FFFFFFF8
000F8000
000F8000
00FF8000
00FF8000
00FF8000
ENDCHAR
STARTCHAR 4EAC
ENCODING 20140
SWIDTH 990 0
DWIDTH 33 0
BBX 28 29 3 -1
BITMAP
00020000
000F8000
000F8000
000F8000
FFFFFFF0
FFFFFFF0
FFFFFFF0
00000000
1F000000
1FFFFF80
1FFFFF80
1FFFFF80
1F000F80
1F000F80
1F000F80
1F000F80
1FFFFF80
1FFFFF80
0FFFFF00
000F8000
000F8000
380F81C0
3C0F83E0
3E0F83E0
7C0F83E0
780F83E0
F0EF81C0
00FF8000
003F0000
ENDCHAR
STARTCHAR 4EAD
ENCODING 20141
SWIDTH 990 0
DWIDTH 33 0
BBX 29 29 2 -1
BITMAP
00070000
000F8000
000F8000
FFFFFFF0
FFFFFFF0
FFFFFFF0
0FFFFF00
0FFFFF80
0FFFFF80
0F800F80
0F800F80
0FFFCF00
0FFFDF00
03FFFC00
00000000
FFFFFFF0
FFFFFFF8
FFFFFFF8
F80000F8
FBFFFEF8
E3FFFEE0
03FFFE00
000F8000
000F8000
000F8000
008F8000
00FF8000
00FF8000
003F0000
ENDCHAR
STARTCHAR 4EAE
ENCODING 20142
SWIDTH 990 0
DWIDTH 33 0
BBX 29 30 2 -2
BITMAP
00020000
000F8000
000F8000
FFFFFFF0
FFFFFFF0
FFFFFFF0
0F800000
0FFFFF80
0FFFFF80
0FFFFF80
0F800F80
0FFFFF80
0FFFFF80
01FFFE00
00000000
FFFFFFF0
FFFFFFF8
FFFFFFF8
F80000F8
FBE000F8
F3FFFCF0
03FFFC00
03FFFC00
03E07C00
03E07C00
07C07FF8
0FC07FF8
0F807FF8
3F003FF0
50000000
ENDCHAR
STARTCHAR 4EB2
ENCODING 20146
SWIDTH 990 0
DWIDTH 33 0
BBX 29 29 2 -2
BITMAP
00070000
000F8000
000F8000
7FFFFFF0
7FFFFFF0
7FFFFFF0
01C01C00
03E01E00
03E03F00
03E07E00
01C07800
00000000
FFFFFFF8
FFFFFFF8
FFFFFFF8
000F8000
000F8000
000F8000
7FFFFFF0
7FFFFFF0
7FFFFFF0
000F8000
1C0F81C0
1E0F83E0
3F0F83E0
3E0F83E0
7C7F83E0
707F81C0
001F8000
ENDCHAR
STARTCHAR 4EB3
ENCODING 20147
SWIDTH 990 0
DWIDTH 33 0
BBX 29 29 2 -1
BITMAP
00070000
000F8000
000F8000
FFFFFFF0
FFFFFFF0
FFFFFFF0
1FFFFF00
1FFFFF80
1FFFFF80
1F000F80
1FFFFF80
1FFFFF00
01FFFC00
F8000000
FFFFFFF0
FFFFFFF0
FFFFFFF0
F803F9F0
FBFFF9F0
F1FFF9C0
001F0000
001FFFF8
FFFFFFF8
FFFFFFF8
FFFF0000
001FFFF0
001FFFF0
001FFFE0
000FFFE0
ENDCHAR
STARTCHAR 4EB5
ENCODING 20149
SWIDTH 990 0
DWIDTH 33 0
BBX 29 29 3 -1
BITMAP
00070000
000F8000
FFFFFFF0
FFFFFFF0
FFFFFFF0
00000000
0F81F000
FFF7FE00
FFF7FFC0
FFF7FFC0
0F81F7C0
FFE3F7C0
FF87E7C0
FF87FFC0
6F87FFF0
3F8FB7F8
3F9007F8
0F700000
00F90300
03F98380
0FFCC7C0
3FF0FFC0
FFC07F80
03E07E00
03E03FC0
1FFF1FF0
1FFC0FF0
0FF007E0
0FC003C0
ENDCHAR
STARTCHAR 4EBA
ENCODING 20154
SWIDTH 990 0
DWIDTH 33 0
BBX 26 28 4 -2
BITMAP
003E0000
003E0000
003E0000
003E0000
003E0000
003E0000
003E0000
003E0000
003E0000
003E0000
003E0000
003E0000
003F0000
003F0000
007F0000
007F8000
007F8000
00FFC000
00F9E000
01F9F000
01F1F800
03F0FC00
07E0FF00
0FC07FC0
1F807FC0
3F003F80
7C000F00
C0000600
ENDCHAR
STARTCHAR 4EBB
ENCODING 20155
SWIDTH 960 0
DWIDTH 32 0
BBX 10 28 2 -2
BITMAP
0E00
0FC0
0F80
0F80
0F80
1F00
1F00
1F00
3E00
3C00
7C00
7F00
FF00
DF00
1F00
1F00
1F00
1F00
1F00
1F00
1F00
1F00
1F00
1F00
1F00
1F00
1E00
1800
ENDCHAR
STARTCHAR 4EBF
ENCODING 20159
SWIDTH 990 0
DWIDTH 33 0
BBX 29 27 2 -2
BITMAP
07800000
07EFFFF0
07CFFFF8
07CFFFF8
0FC003F8
0F8003F0
0F8007F0
1F0007E0
1F000FC0
3E000FC0
3E001F80
7F801F80
7F803F00
CF807F00
0F807E00
0F80FE00
0F80FC00
0F81F800
0F81F800
0F83F000
0F83F000
0F87E000
0F8FE000
0F8FFFF8
0F8FFFF8
0F8FFFF8
0F0FFFF0
ENDCHAR
STARTCHAR 4EC0
ENCODING 20160
SWIDTH 990 0
DWIDTH 33 0
BBX 30 28 2 -2
BITMAP
07000000
07E03E00
07E03E00
07E03E00
07C03E00
0FC03E00
0F803E00
0F803E00
1F003E00
1F003E00
3E003E00
3F9FFFFC
7F9FFFFC
EF9FFFFC
8F803E00
0F803E00
0F803E00
0F803E00
0F803E00
0F803E00
0F803E00
0F803E00
0F803E00
0F803E00
0F803E00
0F803E00
0F803E00
0F003800
ENDCHAR
STARTCHAR 4EC1
ENCODING 20161
SWIDTH 960 0
DWIDTH 32 0
BBX 28 28 2 -2
BITMAP
0E000000
0FC00000
0F800000
0F800000
0F9FFFE0
1F1FFFE0
1F1FFFE0
1F000000
3E000000
3C000000
3C000000
7F000000
7F000000
DF000000
1F000000
1F000000
1F000000
1F000000
1F000000
1F000000
1F000000
1F000000
1F000000
1F3FFFF0
1F3FFFF0
1F3FFFF0
1E000000
10000000
ENDCHAR
STARTCHAR 4EC2
ENCODING 20162
SWIDTH 960 0
DWIDTH 32 0
BBX 30 27 1 -2
BITMAP
0781F000
07E1F000
07E1F000
07C1F000
0FC1F000
0F9FFFF8
0F9FFFFC
1F1FFFFC
1E01F07C
1E01F07C
3F81F07C
3F81F07C
6F81F07C
8F81F07C
0F81F07C
0F81F07C
0F81F07C
0F81F07C
0F83E07C
0F83E07C
0F83E07C
0F83C07C
0F87C07C
0F87827C
0F8F03FC
0F8E03FC
0E1801F8
ENDCHAR
STARTCHAR 4EC3
ENCODING 20163
SWIDTH 990 0
DWIDTH 33 0
BBX 30 27 2 -2
BITMAP
0F000000
0FCFFFFC
0FCFFFFC
0F8FFFFC
0F803E00
1F803E00
1F003E00
1F003E00
3E003E00
3C003E00
7C003E00
7F003E00
FF003E00
DF003E00
1F003E00
1F003E00
1F003E00
1F003E00
1F003E00
1F003E00
1F003E00
1F003E00
1F003E00
1F003E00
1F01FE00
1F01FE00
1E007C00
ENDCHAR
STARTCHAR 4EC4
ENCODING 20164
SWIDTH 990 0
DWIDTH 33 0
BBX 29 28 2 -1
BITMAP
1FFFFFF8
1FFFFFF8
1FFFFFF8
1F000000
1F01F000
1F01F000
1F01F000
1F01F000
1F01F000
1F01F000
1F01F000
1F01F000
1F01F000
1F01F000
1F01F000
1F01F800
1F03F800
1F03FC00
1F03FC00
1F07FE00
1E07DF00
3E0FDF80
3E0F8FE0
3C1F0FF8
783E07F8
707C03F0
E1F001E0
000000C0
ENDCHAR
STARTCHAR 4EC5
ENCODING 20165
SWIDTH 960 0
DWIDTH 32 0
BBX 29 28 2 -2
BITMAP
0F000000
1FDFFFE0
1F9FFFE0
1F9FFFE0
1F8C03E0
1F0C03E0
3F0C03E0
3E0C03E0
3E0E03E0
3C0E07E0
780E07C0
7F0707C0
FF0707C0
DF078FC0
1F078F80
1F03CF80
1F03FF80
1F03FF00
1F01FF00
1F01FE00
1F00FF00
1F00FFE0
1F01FFF8
1F07FFF0
1F0FCFF0
1F1F07E0
1E7800C0
00800000
ENDCHAR
STARTCHAR 4EC6
ENCODING 20166
SWIDTH 960 0
DWIDTH 32 0
BBX 30 27 1 -2
BITMAP
03C0F800
07E0F800
07E0F800
07C0F800
07C0F800
0FC0F800
0F80F800
0F80F800
1F00F800
1E00F800
3FC0FF80
3FC0FFE0
77C0FBF8
C7C0F9FC
07C0F8FC
07C0F878
07C0F878
07C0F830
07C0F800
07C0F800
07C0F800
07C0F800
07C0F800
07C0F800
07C0F800
07C0F800
0780F000
ENDCHAR
STARTCHAR 4EC7
ENCODING 20167
SWIDTH 990 0
DWIDTH 33 0
BBX 30 28 2 -2
BITMAP
0E0F8000
1FCF8000
1FCF8000
1F8F8000
1F8F8000
1F8F8000
1F3FFE00
3F3FFFC0
3E3FFFC0
3C0F87C0
7C0F87C0
7F0F87C0
7F0F87C0
FF0F87C0
9F0F87C0
1F0F87C0
1F0F87C0
1F0F87C0
1F0F87C0
1F0F87C0
1F0F07C0
1F1F07C0
1F1F07C0
1F1E07C0
1F1E07FC
1F3C07F8
1F3807F8
1C6003F8
ENDCHAR
STARTCHAR 4EC9
ENCODING 20169
SWIDTH 990 0
DWIDTH 33 0
BBX 31 28 1 -2
BITMAP
07000000
07800000
07E7C000
07C7FFF0
07C7FFF0
0FC7FFF0
0F87C1F0
0F87C1F0
0F07C1F0
1E07C1F0
1E07C1F0
3F87C1F0
3F87C1F0
6F87C1F0
CF87C1F0
0F87C1F0
0F87C1F0
0F87C1F0
0F87C1F0
0F87C1F0
0F8781F0
0F8F81F0
0F8F81F0
0F8F01F0
0F8F01FE
0F9E01FE
0F9C01FC
0E3000FC
ENDCHAR
STARTCHAR 4ECA
ENCODING 20170
SWIDTH 960 0
DWIDTH 32 0
BBX 29 28 2 -1
BITMAP
00180000
001E0000
003F0000
003F0000
007F0000
00FF8000
01FFE000
03FDFC00
07F8FF80
0FE07FF8
1FCE3FF0
3F1F0FF0
F81F07E0
001F00C0
000E0000
00000C00
1FFFFF00
1FFFFF80
1FFFFF80
00003F00
00007E00
00007E00
0000FC00
0001F800
0003F000
0003C000
00078000
001C0000
ENDCHAR
STARTCHAR 4ECB
ENCODING 20171
SWIDTH 990 0
DWIDTH 33 0
BBX 28 28 3 0
BITMAP
003C0000
003F0000
007F8000
007F0000
00FF8000
01FFE000
03FDF800
07F8FF80
0FE07FF0
1FC03FF0
3F001FF0
FC0007E0
800003C0
07C07C00
07C07C00
07C07C00
07C07C00
07C07C00
07C07C00
07C07C00
07C07C00
0F807C00
0F807C00
0F807C00
0F007C00
1E007C00
3C007C00
70007000
ENDCHAR
STARTCHAR 4ECD
ENCODING 20173
SWIDTH 990 0
DWIDTH 33 0
BBX 31 28 1 -2
BITMAP
0F000000
0FC00000
0FCFFFF8
0FCFFFF8
0FCFFFF8
0F8000F8
1F8000F0
1F03F1F0
1F03F1F0
1E03F1E0
3C03F3E0
3F83F3E0
7F83F3FE
7F83F7FE
8F83E3FE
0F83E03E
0F83E03E
0F83E03E
0F83C03E
0F87C03E
0F87C03E
0F87803E
0F8F803E
0F8F003E
0F8E013E
0F9E03FE
0F9803FE
0E30007C
ENDCHAR
STARTCHAR 4ECE
ENCODING 20174
SWIDTH 990 0
DWIDTH 33 0
BBX 30 28 2 -1
BITMAP
07C07C00
07C07C00
07C07C00
07C07C00
07C07C00
07C07C00
07C07C00
07C07C00
07C07C00
07C07C00
07C07C00
07C07C00
07C07C00
07C07C00
07FC7C00
07FE7E00
0FFEFE00
0FFEFF00
0FBCFF80
0F80FB80
0F01F3C0
1F01F3E0
1E03E3F0
3E03E1F8
3C07C1FC
780F81F8
701E00F0
C0380060
ENDCHAR
STARTCHAR 4ED1
ENCODING 20177
SWIDTH 960 0
DWIDTH 32 0
BBX 29 28 2 -1
BITMAP
00080000
001E0000
003F8000
003F8000
007F8000
00FFE000
01FFFC00
03FCFF80
07F87FF8
0FE03FF8
1FC00FF0
7E0007F0
E00009E0
07C01C00
07C03E00
07C0FF00
07C1FF00
07C7FE00
07FFF800
07FFC000
07C00000
07C00000
07C00000
07C00000
07FFFFE0
07FFFFE0
07FFFFC0
03FFFFC0
ENDCHAR
STARTCHAR 4ED3
ENCODING 20179
SWIDTH 990 0
DWIDTH 33 0
BBX 30 28 2 0
BITMAP
000E0000
000F8000
001FC000
003FC000
003FF000
007FFC00
00FF7FC0
01FE3FFC
07F81FF8
0FF00FF8
3F8003F0
F80001F0
07FFFF00
07FFFF80
07FFFF80
07C00F80
07C00F80
07C00F80
07C0FF80
07C0FF80
07C0FF80
07C00000
07C00000
07C00000
07FFFFF8
07FFFFF8
07FFFFF0
03FFFFF0
ENDCHAR
STARTCHAR 4ED4
ENCODING 20180
SWIDTH 960 0
DWIDTH 32 0
BBX 30 28 1 -2
BITMAP
07000000
07C00070
07C7FFF8
07C7FFF8
07C7FFF8
0FC001F0
0F8001F0
0F8003E0
0F0003C0
1F000780
1E000600
3F801F00
3F801F00
7F801F00
CF9FFFFC
0F9FFFFC
0F9FFFFC
0F801F00
0F801F00
0F801F00
0F801F00
0F801F00
0F801F00
0F801F00
0F801F00
0F80FF00
0F80FF00
0E007E00
ENDCHAR
STARTCHAR 4ED5
ENCODING 20181
SWIDTH 990 0
DWIDTH 33 0
BBX 31 28 1 -2
BITMAP
07000000
07E01F00
07E01F00
07C01F00
07C01F00
0FC01F00
0F801F00
0F801F00
1F001F00
1F0FFFFE
1E0FFFFE
3F8FFFFE
3F801F00
7F801F00
8F801F00
0F801F00
0F801F00
0F801F00
0F801F00
0F801F00
0F801F00
0F801F00
0F801F00
0F801F00
0F87FFFC
0F87FFFC
0F87FFFC
0E000000
ENDCHAR
STARTCHAR 4ED6
ENCODING 20182
SWIDTH 990 0
DWIDTH 33 0
BBX 30 28 2 -2
BITMAP
0E000000
1FC03C00
1FC03C00
1F9F3C00
1F9F3C00
1F9F3C00
1F1F3C00
3F1F3DF0
3E1FFFF8
3C7FFFF8
7C7FFC78
7F7F3C78
7F1F3C78
FF1F3C78
DF1F3C78
1F1F3C78
1F1F3C78
1F1F3CF8
1F1F3CF8
1F1F3CF8
1F1F3C00
1F1F3800
1F1F0000
1F1F0000
1F1FFFFC
1F1FFFFC
1F1FFFF8
1C0FFFF8
ENDCHAR
STARTCHAR 4ED7
ENCODING 20183
SWIDTH 990 0
DWIDTH 33 0
BBX 29 28 2 -2
BITMAP
070007C0
0FC007C0
0FC007C0
0FC007C0
0F8007C0
0FBFFFF8
1F3FFFF8
1F3FFFF8
3E0007C0
3C0007C0
3C0807C0
7F0807C0
7F0C07C0
DF040FC0
1F060F80
1F060F80
1F070F80
1F079F00
1F03DF00
1F03FF00
1F01FE00
1F00FE00
1F00FFF8
1F01FFF8
1F03FFF8
1F0FC7F0
1E3E01E0
00400000
ENDCHAR
STARTCHAR 4ED8
ENCODING 20184
SWIDTH 960 0
DWIDTH 32 0
BBX 30 28 1 -2
BITMAP
070003E0
07E003E0
07E003E0
07C003E0
0FC003E0
0FC003E0
0F8003E0
0F9FFFFC
1F1FFFFC
1E1FFFFC
3E0003E0
3F8003E0
7F8003E0
6F8003E0
8F81C3E0
0F83E3E0
0F83E3E0
0F83E3E0
0F81C3E0
0F8003E0
0F8003E0
0F8003E0
0F8003E0
0F8003E0
0F8073E0
0F807FE0
0F807FE0
0E000FC0
ENDCHAR
STARTCHAR 4ED9
ENCODING 20185
SWIDTH 990 0
DWIDTH 33 0
BBX 31 27 1 -2
BITMAP
07003E00
0FE03E00
0FC03E00
0FC03E00
0FC03E00
0F803E00
1F9F3E3E
1F1F3E3E
1E1F3E3E
3C1F3E3E
3F9F3E3E
3F9F3E3E
6F9F3E3E
8F9F3E3E
0F9F3E3E
0F9F3E3E
0F9F3E3E
0F9F3E3E
0F9F3E3E
0F9F3E3E
0F9F3E3E
0F9F3E3E
0F9F3E3E
0F9F3E3E
0F9FFFFE
0F9FFFFE
0E1FFFFE
ENDCHAR
STARTCHAR 4EDD
ENCODING 20189
SWIDTH 960 0
DWIDTH 32 0
BBX 30 27 1 0
BITMAP
00070000
000FC000
000FC000
001FC000
003FF000
007FFE00
00FF7FC0
01FE3FFC
03F80FF8
0FF007F8
1FC003F8
FC0000F0
00000000
07FFFFC0
07FFFFC0
07FFFFC0
0007C000
0007C000
0007C000
0007C000
0007C000
0007C000
0007C000
0007C000
3FFFFFF0
3FFFFFF0
3FFFFFF0
ENDCHAR
STARTCHAR 4EDE
ENCODING 20190
SWIDTH 960 0
DWIDTH 32 0
BBX 29 28 2 -2
BITMAP
0E000000
0FC00000
0FDFFFF0
0F9FFFF8
0F9FFFF8
1F80F8F8
1F00F8F8
1F00F8F8
3E00F8F8
3C00F8F8
7C00F8F8
7F3EF8F8
FF3EF8F8
DF3EF8F8
1F3EF8F8
1F3EF8F8
1F3CF8F8
1F3CF8F8
1F78F8F8
1F61F0F8
1F01F0F8
1F01F0F8
1F03E0F8
1F03E0F8
1F07C7F8
1F0F87F8
1F0F07F8
1C1800F0
ENDCHAR
STARTCHAR 4EDF
ENCODING 20191
SWIDTH 990 0
DWIDTH 33 0
BBX 31 28 1 -1
BITMAP
07000060
07E001F0
07E007F8
07C0FFF8
07CFFFF8
0FC3FFE0
0F803E00
0F803E00
1F003E00
1E003E00
1E003E00
3F803E00
3F803E00
7F9FFFFE
CF9FFFFE
0F9FFFFE
0F803E00
0F803E00
0F803E00
0F803E00
0F803E00
0F803E00
0F803E00
0F803E00
0F803E00
0F803E00
0F803E00
0E003800
ENDCHAR
STARTCHAR 4EE1
ENCODING 20193
SWIDTH 990 0
DWIDTH 33 0
BBX 30 28 1 -2
BITMAP
02040000
07CFC000
07CFC000
07CFC000
07CF8000
0FCFFFFC
0F8FFFFC
0F9FFFFC
0F1F0000
1F1E0000
1E1C0000
3FB7FFF0
3F87FFF8
7F87FFF8
CF8003F8
0F8007F0
0F800FE0
0F801FC0
0F803F80
0F807F00
0F80FE00
0F81FC00
0F81F800
0F83F000
0F87FFFC
0F8FFFFC
0F8FFFFC
0F07FFF8
ENDCHAR
STARTCHAR 4EE3
ENCODING 20195
SWIDTH 960 0
DWIDTH 32 0
BBX 29 28 2 -1
BITMAP
0E000000
0F8F8000
0F8FC380
0F87C7C0
0F87C7C0
1F87E7C0
1F03E380
1F03E000
3E03F010
3C01FFF0
7C03FFF0
7F7FFF80
FF7FF800
DF38F800
1F00FC00
1F007C00
1F007C00
1F007E00
1F003E00
1F003E00
1F003F00
1F001F00
1F001F00
1F001FB8
1F001FF8
1F000FF0
1E000FC0
18000200
ENDCHAR
STARTCHAR 4EE4
ENCODING 20196
SWIDTH 960 0
DWIDTH 32 0
BBX 29 28 2 -1
BITMAP
001C0000
001F0000
003F8000
007F0000
007F0000
00FFE000
01FDF800
03F8FF80
07F07FF8
0FEE3FF0
3F9F1FF0
7C1F07E0
801F01E0
000E0000
00000E00
1FFFFF00
1FFFFF80
1FFFFF80
00003F00
00007C00
0001F800
01FFE000
007FE000
001FE000
000FE000
0003E000
0001E000
0000C000
ENDCHAR
STARTCHAR 4EE5
ENCODING 20197
SWIDTH 990 0
DWIDTH 33 0
BBX 30 28 2 -2
BITMAP
00003E00
7C003E00
7C003E00
7C003E00
7C003E00
7C003E00
7C003E00
7C3C3E00
7C7E3E00
7C7E3E00
7C7E3E00
7C7E3E00
7C3C3E00
7C003E00
7C003E00
7C003E00
7C007C00
7C007C00
7C187E00
7CF0FF80
7FE0FBE0
7FC1FBF8
FF83F1FC
FF03E0FC
FE07C07C
7C1F8078
783E0030
00F00000
ENDCHAR
STARTCHAR 4EE8
ENCODING 20200
SWIDTH 960 0
DWIDTH 32 0
BBX 29 27 2 -1
BITMAP
0F000000
0FC00000
0F9FFFF0
1F9FFFF0
1F9FFFF0
1F000000
1F000000
3E000000
3E000000
3C000000
78000000
7F000000
FF0FFFF0
9F0FFFF0
1F0FFFF0
1F000000
1F000000
1F000000
1F000000
1F000000
1F000000
1F000000
1F000000
1F3FFFF8
1F3FFFF8
1F3FFFF8
1E000000
ENDCHAR
STARTCHAR 4EEA
ENCODING 20202
SWIDTH 990 0
DWIDTH 33 0
BBX 30 28 1 -2
BITMAP
07003800
07E07C00
07E07C00
07C07C00
07C07C00
0FC838F0
0F8400F8
0F8400F8
1F0401F8
1E0601F8
1E0601F0
3F8301F0
3F8303F0
6F8383E0
8F83C7E0
0F81C7E0
0F81EFC0
0F81FFC0
0F80FF80
0F80FF00
0F807F00
0F803F80
0F807FF0
0F80FFFC
0F81FFFC
0F87E7FC
0F8F81F8
0E3C0070
ENDCHAR
STARTCHAR 4EEB
ENCODING 20203
SWIDTH 960 0
DWIDTH 32 0
BBX 30 28 1 -2
BITMAP
07000000
07C1E000
07E1F800
07C1F800
07C1F800
0FC3F000
0F83F000
0F83E780
1F03E7E0
1E07C7E0
1E078FC0
3F8F8FC0
3F8F1F80
6F9E1F80
8F983F00
0FB03E00
0F807E00
0F807C00
0F80F900
0F80F1C0
0F81E0E0
0F83C3F0
0FBFFFF8
0F9FFF7C
0F9FFC7C
0F9FF87C
0F8FE070
0E060000
ENDCHAR
STARTCHAR 4EEC
ENCODING 20204
SWIDTH 990 0
DWIDTH 33 0
BBX 31 28 1 -2
BITMAP
07800000
07E70000
07EF9FF8
07EF9FFE
07EF9FFE
0FC7003E
0FC0003E
0F80003E
1F0F803E
1F0F803E
1E0F803E
3F8F803E
3F8F803E
7F8F803E
8F8F803E
0F8F803E
0F8F803E
0F8F803E
0F8F803E
0F8F803E
0F8F803E
0F8F803E
0F8F803E
0F8F803E
0F8F803E
0F8F81FE
0F8F81FE
0E0F01FC
ENDCHAR
STARTCHAR 4EEE
ENCODING 20206
SWIDTH 990 0
DWIDTH 33 0
BBX 31 28 1 -1
BITMAP
07000018
07C0007C
07E7C3FC
07E7FFFC
07C7FFFC
0FC7DFE0
0F87C000
0F87C000
1F07C000
1F07C000
1E07FFFC
3F87FFFC
3F87FFFC
6F87CC7C
8F87CC7C
0F87CC7C
0F87CEFC
0F87CEF8
0F87CFF8
0F878FF8
0F8F87F0
0F8F87F0
0F8F87F0
0F8F07F8
0F9F0FFE
0F9E3FFC
0FBC7E7C
0E73F038
ENDCHAR
STARTCHAR 4EF0
ENCODING 20208
SWIDTH 990 0
DWIDTH 33 0
BBX 30 28 2 -1
BITMAP
0E008000
1F81C000
1F83C000
1F87FFFC
1F3FDFFC
1F3F1FFC
3F3E1F3C
3E3E1F3C
3C3E1F3C
3C3E1F3C
783E1F3C
7E3E1F3C
FE3E1F3C
FE3E1F3C
3E3E1F3C
3E3E1F3C
3E3E1F3C
3E3EDF3C
3E3F9F3C
3EFF9F7C
3EFF1F7C
3E7E1F78
3E7C1F00
3E301F00
3E001F00
3E001F00
3E001F00
38001C00
ENDCHAR
STARTCHAR 4EF2
ENCODING 20210
SWIDTH 990 0
DWIDTH 33 0
BBX 31 28 1 -2
BITMAP
07803E00
0FE03E00
0FE03E00
0FC03E00
0FC03E00
0FDF3E00
1F9FFFF8
1F9FFFFE
1F1FFFFE
1E1F3E3E
3C1F3E3E
3F9F3E3E
7F9F3E3E
6F9F3E3E
8F9F3E3E
0F9F3E3E
0F9FFFFE
0F9FFFFE
0F8FFFFC
0F803E00
0F803E00
0F803E00
0F803E00
0F803E00
0F803E00
0F803E00
0F003E00
0C003000
ENDCHAR
STARTCHAR 4EF3
ENCODING 20211
SWIDTH 990 0
DWIDTH 33 0
BBX 31 27 1 -2
BITMAP
1E1F07C0
1F9F07C0
1F9F07C0
1F9F07C0
1F1F07C0
1F1F07C0
3E1F07C0
3E1F07C0
3C1F07DC
3C1FE7DE
781FE7FC
7F1FE7F0
FF1F07C0
1F1F07C0
1F1F07C0
1F1F07C0
1F1F07C0
1F1F07C0
1F1F07C0
1F1F07C0
1F1F07C0
1F1F17C0
1F1FE7C0
1F7FC7FE
1F3F87FC
1F3F07FC
1E1C03F8
ENDCHAR
STARTCHAR 4EF5
ENCODING 20213
SWIDTH 990 0
DWIDTH 33 0
BBX 31 28 1 -1
BITMAP
078F8000
07EFC000
07EFC000
07CFC000
07CFFFFC
0FCFFFFC
0F8FFFFC
0F8F1F00
1F0F1F00
1E1E1F00
1E1C1F00
3F981F00
3F801F00
6F801F00
8F9FFFFE
0F9FFFFE
0F9FFFFE
0F801F00
0F801F00
0F801F00
0F801F00
0F801F00
0F801F00
0F801F00
0F801F00
0F801F00
0F001E00
0C001800
ENDCHAR
STARTCHAR 4EF6
ENCODING 20214
SWIDTH 960 0
DWIDTH 32 0
BBX 30 28 1 -2
BITMAP
07001F00
07C01F00
07C71F00
07CFDF00
07CFDF00
0F8FDF00
0F8FFFF8
0F8FFFF8
1F0FFFF8
1E0F1F00
1E0F1F00
3F9E1F00
3F9C1F00
6FB81F00
CFA01F00
0F801F00
0FBFFFFC
0FBFFFFC
0FBFFFFC
0F801F00
0F801F00
0F801F00
0F801F00
0F801F00
0F801F00
0F801F00
0F801F00
0E001C00
ENDCHAR
STARTCHAR 4EF7
ENCODING 20215
SWIDTH 990 0
DWIDTH 33 0
BBX 30 28 1 -1
BITMAP
07007800
07E07E00
07C0FC00
07C0FC00
07C0FE00
0F81FF00
0F81F7C0
0F83F7F8
1F07E3FC
1E07C1FC
1E0F80F8
3F9E0078
3FB80030
6F87C3E0
8F87C3E0
0F87C3E0
0F87C3E0
0F87C3E0
0F87C3E0
0F87C3E0
0F87C3E0
0F87C3E0
0F87C3E0
0F8F83E0
0F8F83E0
0F8F03E0
0F9E03E0
0E380380
ENDCHAR
STARTCHAR 4EFB
ENCODING 20219
SWIDTH 990 0
DWIDTH 33 0
BBX 31 28 1 -1
BITMAP
07800070
07E001F8
07C00FF8
07C1FFF8
07CFFFF8
0F81FFC0
0F801F00
0F801F00
1F001F00
1E001F00
1E001F00
3F801F00
3F801F00
7F9FFFFE
8F9FFFFE
0F9FFFFE
0F801F00
0F801F00
0F801F00
0F801F00
0F801F00
0F801F00
0F801F00
0F801F00
0F8FFFFC
0F8FFFFC
0F0FFFFC
0C000000
ENDCHAR
STARTCHAR 4EFD
ENCODING 20221
SWIDTH 960 0
DWIDTH 32 0
BBX 29 27 2 0
BITMAP
0E000400
0FC1C400
0F83F600
0F83E700
0F83E380
1F07E380
1F07C3C0
1F0F83F0
3E0F01F8
3C1E01F8
7C3C00F0
7F700040
FF1FFF80
9F1FFFE0
1F1FFFE0
1F03E3E0
1F03E3E0
1F03E3E0
1F03E3E0
1F03E3E0
1F03E3E0
1F07C3E0
1F07C3E0
1F0F83E0
1F1F1FE0
1F1E1FE0
1E780FC0
ENDCHAR
STARTCHAR 4EFF
ENCODING 20223
SWIDTH 990 0
DWIDTH 33 0
BBX 30 28 2 -2
BITMAP
00003800
0F007C00
1FC07C00
1FC07C00
1FC03800
1F800000
1F9FFFFC
1F1FFFFC
3E1FFFFC
3E07C000
3C07C000
7807C000
7F07C000
FF07FFF8
DF07FFF8
1F07FFF8
1F07C0F8
1F07C0F8
1F07C0F8
1F07C0F8
1F07C0F8
1F0780F8
1F0F80F8
1F0F80F8
1F0F00F8
1F1E07F8
1F1C07F8
1E3007F0
ENDCHAR
STARTCHAR 4F01
ENCODING 20225
SWIDTH 990 0
DWIDTH 33 0
BBX 29 28 2 0
BITMAP
000C0000
001E0000
001F8000
003F8000
007F8000
00FFF000
01FFFE00
03FCFFE0
07F07FF8
0FE03FF8
3F800FF0
FC07C7F0
0007C1E0
0007C000
0007C000
0F87C000
0F87FF80
0F87FF80
0F87FF80
0F87C000
0F87C000
0F87C000
0F87C000
0F87C000
0F87C000
FFFFFFF8
FFFFFFF8
FFFFFFF8
ENDCHAR
STARTCHAR 4F09
ENCODING 20233
SWIDTH 960 0
DWIDTH 32 0
BBX 30 28 1 -1
BITMAP
00001C00
0F003E00
0FE03E00
0FC03E00
0FDFFFFC
0FDFFFFC
1F9FFFFC
1F800000
1F000000
1F000000
3E07C000
3C07FFE0
3F87FFF0
7F87FFF0
CF87C1F0
0F87C1F0
0F87C1F0
0F87C1F0
0F87C1F0
0F87C1F0
0F87C1F0
0F87C1F0
0F87C1F0
0F8F81F0
0F8F81FC
0F8F01FC
0F9E01FC
0F3C00F8
ENDCHAR
STARTCHAR 4F0A
ENCODING 20234
SWIDTH 990 0
DWIDTH 33 0
BBX 31 28 1 -2
BITMAP
07000000
07E00000
07EFFFF0
07EFFFF8
07CFFFF8
0FC1F0F8
0FC1F0F8
0F81F0F8
1F01F0F8
1F1FFFFE
1E1FFFFE
3C1FFFFE
3F81F0F8
7F81F0F8
8F81F0F8
0F8FFFF8
0F8FFFF8
0F8FFFF0
0F81E000
0F83E000
0F83E000
0F83E000
0F83C000
0F87C000
0F878000
0F8F0000
0F9E0000
0E380000
ENDCHAR
STARTCHAR 4F0D
ENCODING 20237
SWIDTH 990 0
DWIDTH 33 0
BBX 30 28 2 -2
BITMAP
0F000000
0FDFFFF8
0F9FFFF8
1F9FFFF8
1F81F000
1F01F000
1F01F000
3E01F000
3E01F000
3C01F000
7C01F000
7F1FFFC0
FF1FFFF0
DF1FFFF0
1F03E1F0
1F03E1F0
1F03E1F0
1F03E1F0
1F03E1F0
1F03E1F0
1F03E1F0
1F03E1F0
1F03E1F0
1F03E1F0
1F3FFFFC
1F3FFFFC
1E3FFFFC
10000000
ENDCHAR
STARTCHAR 4F0E
ENCODING 20238
SWIDTH 990 0
DWIDTH 33 0
BBX 31 28 1 -3
BITMAP
07001F00
07E01F00
07E01F00
07C01F00
07CFFFFE
0FCFFFFE
0F8FFFFE
0F801F00
1F001F00
1E001F00
1E001F00
3F8FFFF8
3F8FFFF8
6F8FFFF8
8F8380F8
0F81C0F8
0F81C0F0
0F81E1F0
0F80F1F0
0F80FBE0
0F807FE0
0F807FC0
0F803FC0
0F803FFE
0F807FFE
0F81FFFC
0F8FF3FC
0E3F8070
ENDCHAR
STARTCHAR 4F0F
ENCODING 20239
SWIDTH 990 0
DWIDTH 33 0
BBX 29 27 2 -2
BITMAP
0F00F800
0F80F800
1F80F8E0
1F80F9F0
1F00F9F0
1F00F9F0
1F00F8E0
3E00F800
3E00F800
3C7FFFF8
787FFFF8
7F7FFFF8
FF00F800
9F00FC00
1F00FC00
1F00FE00
1F01FE00
1F01FF00
1F01FF00
1F03F780
1F03E7C0
1F07E7E0
1F07C7E0
1F0F83F8
1F1F03F8
1F3C01F0
1E7001E0
ENDCHAR
STARTCHAR 4F10
ENCODING 20240
SWIDTH 990 0
DWIDTH 33 0
BBX 30 28 1 -3
BITMAP
0703C000
0FE3E1C0
0FE3E3E0
0FE3E3E0
0FC1F3E0
0FC1F1C0
1F81F000
1F80F800
1F1FFFF8
1E1FFFF8
3C1FFFF8
3F807C00
7F807E00
6F803E20
8F803EF0
0F803FF8
0F801FFC
0F801FF8
0F803FE0
0F80FF80
0F83FF80
0F8FCFC0
0F8007C0
0F8007EC
0F8007FC
0F8007FC
0F0003F0
0C0001C0
ENDCHAR
STARTCHAR 4F11
ENCODING 20241
SWIDTH 990 0
DWIDTH 33 0
BBX 30 27 2 -2
BITMAP
0F007C00
0FC07C00
0FC07C00
0F807C00
1F807C00
1F007C00
1F3FFFF8
3E3FFFF8
3E3FFFF8
3C007C00
7C007C00
7F007C00
FF087C20
DF1F7DF0
1F1F7DF0
1F1F7DF0
1F1F7DF0
1F1E7CF0
1F1E7CF0
1F3E7CF8
1F3C7C78
1F387C38
1F307C18
1F407C04
1F007C00
1F007C00
1E007800
ENDCHAR
STARTCHAR 4F17
ENCODING 20247
SWIDTH 960 0
DWIDTH 32 0
BBX 30 29 1 -1
BITMAP
00040000
000F0000
000FC000
001FC000
003FC000
007FF000
00FFFC00
01FE7FC0
03FC3FFC
07F81FF8
1FC00FF8
FC0003F0
03E03EF0
03E03E00
03E03E00
03E03E00
03E03E00
03E03E00
03EE3E00
03FF3E00
03FF3F00
07FF7F80
07CE7FC0
07C07BE0
0F80FBF0
0F80F1F8
1F01E1F8
1C03C0F0
300700E0
ENDCHAR
STARTCHAR 4F18
ENCODING 20248
SWIDTH 990 0
DWIDTH 33 0
BBX 30 27 2 -2
BITMAP
0F03E000
1FC3E1C0
1F83E3E0
1F83E3E0
1F83E3E0
1F03E1C0
3F03E000
3E03E000
3E7FFFF8
7C7FFFF8
787FFFF8
7F03E000
FF03E000
DF03EF80
1F03EF80
1F03EF80
1F03EF80
1F03EF80
1F07EF80
1F07CF80
1F07CF80
1F0F8F80
1F0F8F80
1F1F0FFC
1F1E0FF8
1F3C0FF8
1E7007F8
ENDCHAR
STARTCHAR 4F19
ENCODING 20249
SWIDTH 990 0
DWIDTH 33 0
BBX 30 28 2 -2
BITMAP
0E000000
0F807C00
0FC07C00
0F807C00
1F807C00
1F847C00
1F047C78
1F047C7C
3E0C7C7C
3C0E7C78
7C1E7C78
7F1E7CF0
FF3E7CE0
DF7E7CC0
1F1C7D00
1F00FE00
1F00FE00
1F00FF00
1F00FF00
1F01F780
1F01F7C0
1F03F3C0
1F03E3E0
1F07C3F0
1F0F83F8
1F0F01FC
1F1E01F8
1C3000E0
ENDCHAR
STARTCHAR 4F1A
ENCODING 20250
SWIDTH 960 0
DWIDTH 32 0
BBX 28 28 2 -1
BITMAP
000E0000
001F8000
001FC000
003FC000
007FF800
01FFFF00
03FE7FF0
07F83FF0
1FE00FF0
FF0007E0
000001E0
03FFFE00
03FFFE00
03FFFE00
00000000
00000000
7FFFFFE0
7FFFFFE0
7FFFFFE0
00F80000
00FC1800
01F80E00
03F00F00
1FFFFFC0
1FFFF7C0
1FFFC3C0
0FFE0380
0FE00300
ENDCHAR
STARTCHAR 4F1B
ENCODING 20251
SWIDTH 960 0
DWIDTH 32 0
BBX 30 28 1 -2
BITMAP
07000000
07E00000
07EFFFFC
07CFFFFC
07CFFFFC
0FCF8000
0F8F80E0
0F8F80F8
1F0FC0F8
1E0FB1F8
1E0FB9F0
3F8F9DF0
3F8F8FE0
6F8F8FE0
8F8F87C0
0F8F87E0
0F8F8FF0
0F8F8FF8
0F8F9FF8
0F8F9EFC
0F8FBCF8
0F8FF078
0F8FE060
0F8F8000
0F8F8000
0F8FFFFC
0F8FFFFC
0E07FFFC
ENDCHAR
STARTCHAR 4F1E
ENCODING 20254
SWIDTH 990 0
DWIDTH 33 0
BBX 29 29 3 -1
BITMAP
001C0000
001E0000
003F8000
007F0000
00FFC000
01FFF800
03FDFFF8
07F8FFF8
0FE03FF0
3FC00FF0
FE1F03E0
001F0040
0E1F0600
1F1F0F80
1F1F0FC0
1F1F1F00
0E1F1E00
001F0000
001F0000
FFFFFFF0
FFFFFFF0
FFFFFFF0
001F0000
001F0000
001F0000
001F0000
001F0000
001F0000
001C0000
ENDCHAR
STARTCHAR 4F1F
ENCODING 20255
SWIDTH 990 0
DWIDTH 33 0
BBX 30 27 2 -1
BITMAP
0F007C00
0FC07C00
0FC07C00
0FBFFFF8
0FBFFFF8
1FBFFFF8
1F007C00
1F007C00
3E007C00
3C1FFFF0
7C1FFFF0
7F1FFFF0
FF007C00
DF007C00
1F007C00
1F3FFFF8
1F3FFFFC
1F3FFFFC
1F007C7C
1F007C7C
1F007C7C
1F007C7C
1F007DFC
1F007DFC
1F007DF8
1F007C00
1E007800
ENDCHAR
STARTCHAR 4F20
ENCODING 20256
SWIDTH 990 0
DWIDTH 33 0
BBX 31 28 1 -2
BITMAP
03003E00
07E03E00
07E07E00
07E07E00
07CFFFFC
0FCFFFFC
0F8FFFFC
0F80FC00
1F00F800
1E00F800
1C1FFFFE
3F9FFFFE
3F9FFFFE
6F83F000
8F83F030
0F83F07C
0F83FFFE
0F83FFFC
0F81FFF8
0F8001F8
0F8003E0
0F83FBC0
0F80FF80
0F803FC0
0F801FE0
0F800FC0
0F0003C0
00000180
ENDCHAR
STARTCHAR 4F22
ENCODING 20258
SWIDTH 990 0
DWIDTH 33 0
BBX 30 28 2 -2
BITMAP
0C000000
1F000000
1FDFFFF8
1F9FFFF8
1F9FFFF8
1F8007C0
1F0007C0
3F1F07C0
3E1F07C0
3C1F07C0
781F07C0
7F1F07C0
7F1F07C0
FF1FFFFC
DF1FFFFC
1F0FFFFC
1F0007C0
1F0787C0
1F07E7C0
1F07E7C0
1F0FC7C0
1F0FC7C0
1F0F87C0
1F1F87C0
1F1F07C0
1F3E7FC0
1F3C7FC0
1C707F80
ENDCHAR
STARTCHAR 4F24
ENCODING 20260
SWIDTH 960 0
DWIDTH 32 0
BBX 30 28 1 -2
BITMAP
02030000
07C7E000
07E7E000
07E7C000
07C7C000
0FC7FFFC
0FCFFFFC
0F8FFFFC
1F0F0000
1F1F0000
1E1EF800
3FB8F800
3F80F800
7F87FFF8
8F87FFFC
0F87FFFC
0F80F87C
0F80F87C
0F80F87C
0F80F87C
0F81F07C
0F81F07C
0F81F07C
0F83E07C
0F83E07C
0F87C3FC
0F8703FC
0E1C01F8
ENDCHAR
STARTCHAR 4F25
ENCODING 20261
SWIDTH 990 0
DWIDTH 33 0
BBX 30 28 1 -2
BITMAP
07000000
07E3E000
07E3E040
07E3E0F0
07C3E0F8
0FC3E1F8
0FC3E1F8
0F83E1F0
1F83E3E0
1F03E7C0
1E03EF00
3E03E000
3F9FFFFC
7F9FFFFC
CF9FFFFC
0F83E300
0F83E300
0F83E380
0F83E380
0F83E3C0
0F83E1E0
0F83E1E0
0F83E1F0
0F83FDF8
0F8FF8FC
0F8FF0FC
0F8FE07C
0F078030
ENDCHAR
STARTCHAR 4F26
ENCODING 20262
SWIDTH 960 0
DWIDTH 32 0
BBX 29 27 2 -1
BITMAP
0E00F000
0FC0FC00
0F81F800
0F81F800
0F83FE00
1F07FF80
1F07EFF0
1F0FC7F8
3E1F03F8
3C3E01F0
7CE000E0
7F0F8000
FF0F8080
DF0F81C0
1F0F83E0
1F0F8FF0
1F0F9FE0
1F0FFF80
1F0FFC00
1F0F8000
1F0F8000
1F0F8000
1F0F8000
1F0FFFF0
1F0FFFF0
1F0FFFF0
1E07FFE0
ENDCHAR
STARTCHAR 4F27
ENCODING 20263
SWIDTH 990 0
DWIDTH 33 0
BBX 31 28 1 -1
BITMAP
07807800
07E07E00
07E07E00
07C0FE00
07C0FF00
0FC1FFC0
0F83F3F0
0F83F3FE
1F07C1FE
1E0F80FC
1E1F007C
3FB80010
3F87C000
7F87FFE0
CF87FFF0
0F87FFF0
0F87C1F0
0F87C1F0
0F87C1F0
0F87CFF0
0F87CFF0
0F87CFE0
0F87C000
0F87C000
0F87FFFE
0F87FFFC
0F87FFFC
0E03FFF8
ENDCHAR
STARTCHAR 4F2A
ENCODING 20266
SWIDTH 990 0
DWIDTH 33 0
BBX 31 28 1 -2
BITMAP
0700F800
07E0F800
07CEF800
0FDFF800
0FDFF800
0F9FF800
0F8EF800
1F00F800
1F0FFFF0
1E0FFFFE
3C0FFFFE
3F80F83E
7F80F83E
CF80F83E
0F80F83E
0F80FF3E
0F80FF3E
0F81FF3E
0F81FF3E
0F81F73E
0F81E03E
0F83E03E
0F83C03E
0F83C03E
0F8781FE
0F8F01FE
0F1C00FC
08000000
ENDCHAR
STARTCHAR 4F2B
ENCODING 20267
SWIDTH 960 0
DWIDTH 32 0
BBX 30 29 1 -2
BITMAP
00000E00
07801F00
07E01F00
07E01F00
07E00E00
07CF8000
0FCFFFFC
0F8FFFFC
0F8FFFFC
1F0F807C
1F0F807C
1E0F807C
3F8F807C
3F8F0078
6F8C0000
8F800000
0F800000
0F800000
0F800000
0F800000
0F800000
0F800000
0F800000
0F800000
0F800000
0F9FFFFC
0F9FFFFC
0F1FFFFC
0C000000
ENDCHAR
STARTCHAR 4F2F
ENCODING 20271
SWIDTH 960 0
DWIDTH 32 0
BBX 30 29 1 -2
BITMAP
03001C00
07C01F00
07E01E00
07C01E00
07CF9C00
0FCFFFFC
0F8FFFFC
0F8FFFFC
1F0F807C
1F0F807C
1E0F807C
3F8F807C
3F8F807C
6F8F807C
8F8FFFFC
0F8FFFFC
0F8FFFFC
0F8F807C
0F8F807C
0F8F807C
0F8F807C
0F8F807C
0F8F807C
0F8F807C
0F8FFF7C
0F8FFF78
0F87FFF0
0E0000E0
00000180
ENDCHAR
STARTCHAR 4F30
ENCODING 20272
SWIDTH 990 0
DWIDTH 33 0
BBX 31 28 1 -3
BITMAP
02001F00
07E01F00
07E01F00
07E01F00
07C01F00
0FC01F00
0F8FFFFE
0F8FFFFE
1F0FFFFE
1E001F00
1E001F00
3F801F00
3F801F00
6F879F00
8F87FFF8
0F87FFFC
0F87FFFC
0F87C07C
0F87C07C
0F87C07C
0F87C07C
0F87C07C
0F87C07C
0F87C17C
0F87FF7C
0F87FF78
0F03FCF0
0C0000E0
ENDCHAR
STARTCHAR 4F32
ENCODING 20274
SWIDTH 990 0
DWIDTH 33 0
BBX 30 27 2 -2
BITMAP
0F1F0000
0FDFFFF0
0F9FFFF8
0F9FFFF8
1F9F00F8
1F1F00F8
1F1F00F8
1E1F00F8
3E1FFFF8
3C1FFFF8
781FFFF0
7F1F0000
FF1F0000
DF1F3E00
1F1F3E30
1F1F3E78
1F1F3FF8
1F1F3FF8
1F1F3FE0
1F1F3E00
1F1E3E00
1F1E3E00
1F1E3E00
1F3C3FFC
1F3C3FF8
1F383FF8
1E701FF0
ENDCHAR
STARTCHAR 4F34
ENCODING 20276
SWIDTH 990 0
DWIDTH 33 0
BBX 31 28 1 -2
BITMAP
07803E00
07E03E00
0FE03E20
0FC73E38
0FCFBE7E
0FCFBE7C
0F8FBE78
1F073E70
1F003EE0
1E003E00
3C1FFFFC
3F9FFFFC
7F9FFFFC
6F803E00
8F803E00
0F803E00
0F803E00
0F9FFFFE
0F9FFFFE
0F9FFFFE
0F803E00
0F803E00
0F803E00
0F803E00
0F803E00
0F803E00
0F003C00
0C003000
ENDCHAR
STARTCHAR 4F36
ENCODING 20278
SWIDTH 990 0
DWIDTH 33 0
BBX 30 28 2 -1
BITMAP
0F007000
0FC07C00
0FC0FC00
0F80FC00
0F81FE00
1F01FF80
1F03F7E0
1E07E7F8
3E0FC3FC
3C0F39F8
7C1E7CF8
7F307C70
FF007C00
DF003800
1F0000F0
1F1FFFF8
1F1FFFF8
1F1FFFF0
1F0003E0
1F0007C0
1F000F80
1F07FE00
1F01FE00
1F00FF00
1F003F80
1F001F00
1E000E00
00000400
ENDCHAR
STARTCHAR 4F38
ENCODING 20280
SWIDTH 990 0
DWIDTH 33 0
BBX 31 28 1 -1
BITMAP
07003E00
0FE03E00
0FC03E00
0FC03E00
0FC03E00
0F9FFFF8
1F9FFFFE
1F1FFFFE
1F1F3E3E
1E1F3E3E
3C1F3E3E
3F9F3E3E
7F9FFFFE
6F9FFFFE
8F9FFFFE
0F9F3E3E
0F9F3E3E
0F9F3E3E
0F9FFFFE
0F9FFFFE
0F8FFFFC
0F803E00
0F803E00
0F803E00
0F803E00
0F803E00
0F803C00
0E003000
ENDCHAR
STARTCHAR 4F3A
ENCODING 20282
SWIDTH 960 0
DWIDTH 32 0
BBX 30 28 1 -2
BITMAP
07000000
07E00000
07EFFFF8
07EFFFFC
07CFFFFC
0FC0007C
0FC0007C
0F80007C
1F0FFE7C
1F0FFE7C
1E0FFE7C
3F80007C
3F80007C
6F8F1C7C
8F8FFE7C
0F8FFE7C
0F8FFE7C
0F8F1E7C
0F8F1E7C
0F8F1E7C
0F8FDE7C
0F8FDE7C
0F87DC7C
0F803C7C
0F80307C
0F8001FC
0F8001FC
0E0001F8
ENDCHAR
STARTCHAR 4F3C
ENCODING 20284
SWIDTH 990 0
DWIDTH 33 0
BBX 30 28 2 -2
BITMAP
1C000000
1F0007C0
1F8007C0
1FBE07C0
1FBE07C0
1F3E07C0
3F3E07C0
3F3E77C0
3E3EFFC0
3E3EFFC0
3C3EFFC0
7C3E77C0
7F3E07C0
7F3E07C0
FF3E07C0
9F3E07C0
1F3E07C0
1F3E07C0
1F3E2F80
1F3EEF80
1F3FCF80
1F3F9FE0
1F7F1FF8
1F7F1FFC
1F3E3E7C
1F387C7C
1F00F838
1E01E030
ENDCHAR
STARTCHAR 4F3D
ENCODING 20285
SWIDTH 960 0
DWIDTH 32 0
BBX 30 28 1 -1
BITMAP
1E7C0000
1F7C0000
3F7C0F00
3F7C0FFC
3EFF0FFC
3EFFEFBC
3EFFEF3C
3C7DEF3C
7C7DEF3C
787DEF3C
787DEF3C
7E7DEF3C
FE7DEF3C
FE7DEF3C
3E7DEF3C
3E7DEF3C
3E7DEF3C
3E7DEF3C
3E7DEF3C
3E7DEF3C
3E7DEF3C
3E79EF3C
3EF9EF3C
3EF9EFBC
3EF7EFBC
3EE7EFB8
3DC3C070
000000E0
ENDCHAR
STARTCHAR 4F43
ENCODING 20291
SWIDTH 960 0
DWIDTH 32 0
BBX 29 28 2 -2
BITMAP
0E000000
0FC00000
0FDFFFF8
0F9FFFF8
0F9FFFF8
1F1F3EF8
1F1F3EF8
1E1F3EF8
3E1F3EF8
3C1F3EF8
7C1F3EF8
7F1F3EF8
FF1F3EF8
DF1FFFF8
1F1FFFF8
1F1FFFF8
1F1F3EF8
1F1F3EF8
1F1F3EF8
1F1F3EF8
1F1F3EF8
1F1F3EF8
1F1F3EF8
1F1F3EF8
1F1FFFF8
1F1FFFF8
1F0FFFF0
18000000
ENDCHAR
STARTCHAR 4F46
ENCODING 20294
SWIDTH 990 0
DWIDTH 33 0
BBX 30 29 2 -2
BITMAP
0E000000
0F800000
0FDFFFE0
0F9FFFF8
0F9FFFF8
1F9F00F8
1F1F00F8
1F1F00F8
1F1F00F8
3E1F00F8
3C1F00F8
3C1FFFF8
7F1FFFF8
7F1FFFF8
DF1F00F8
1F1F00F8
1F1F00F8
1F1F00F8
1F1F00F8
1F1FFCF0
1F1FFCF0
1F0FFDE0
1F0001C0
1F000000
1F000000
1F7FFFFC
1F7FFFFC
1E7FFFFC
10000000
ENDCHAR
STARTCHAR 4F4D
ENCODING 20301
SWIDTH 960 0
DWIDTH 32 0
BBX 29 29 2 -2
BITMAP
00003800
00007C00
0E007C00
1FC07C00
1F807C00
1F803800
1F800000
1F1FFFF8
1F1FFFF8
3E1FFFF8
3E000000
3C000000
78000000
7F000100
FF0383E0
DF07C3F0
1F07C7E0
1F07C7E0
1F07C7C0
1F0387C0
1F000F80
1F000F00
1F001E00
1F000000
1F000000
1F3FFFF8
1F3FFFF8
1F3FFFF8
1E000000
ENDCHAR
STARTCHAR 4F4E
ENCODING 20302
SWIDTH 990 0
DWIDTH 33 0
BBX 30 27 2 -1
BITMAP
0F8000E0
0FC003F0
0F9F1FF0
0F9FFFF0
1F9FFF80
1F1F0F80
1F1F0F80
1E1F0F80
3C1F0F80
3C1F0F80
7F1F0FC0
7F1F07C0
FF1FFFF8
9F1FFFF8
1F1FFFF8
1F1F07C0
1F1F07C0
1F1F03E0
1F1F03E0
1F1F23E0
1F1FE3E0
1F1FC3E0
1F7FFBE0
1F7FFFF8
1F3F7DFC
1F3E7DFC
1C1839F0
ENDCHAR
STARTCHAR 4F4F
ENCODING 20303
SWIDTH 990 0
DWIDTH 33 0
BBX 31 29 1 -2
BITMAP
00001C00
07803E00
07E03E00
07E03E00
0FE01C00
0FC00000
0FCFFFFC
0F8FFFFC
1F8FFFFC
1F003E00
1E003E00
3E003E00
3F803E00
3F803E00
7F803E00
CF8FFFF8
0F8FFFF8
0F8FFFF8
0F803E00
0F803E00
0F803E00
0F803E00
0F803E00
0F803E00
0F803E00
0F9FFFFE
0F9FFFFE
0F9FFFFE
0E000000
ENDCHAR
STARTCHAR 4F50
ENCODING 20304
SWIDTH 990 0
DWIDTH 33 0
BBX 30 27 2 -1
BITMAP
0F07C000
0FC7C000
0F87C000
0F87C000
1FBFFFFC
1F3FFFFC
1F3FFFFC
3E07C000
3E07C000
3C07C000
7807C000
7F07C000
FF078000
DF0FFFF8
1F0FFFF8
1F0FFFF8
1F0F1F00
1F1F1F00
1F1E1F00
1F3C1F00
1F381F00
1F601F00
1F001F00
1F001F00
1F1FFFFC
1F1FFFFC
1E1FFFFC
ENDCHAR
STARTCHAR 4F51
ENCODING 20305
SWIDTH 960 0
DWIDTH 32 0
BBX 29 28 2 -2
BITMAP
0F03E000
0FC3E000
0F83E000
0F83E000
1F83E000
1F3FFFF8
1F3FFFF8
1E3FFFF8
3E03E000
3C03C000
7C03C000
7F03C000
FF07C000
9F07FFF0
1F07FFF8
1F0FFFF8
1F0FC0F8
1F0FC0F8
1F1FC0F8
1F3FC0F8
1F3FC0F8
1F47C0F8
1F07C0F8
1F07C0F8
1F07FCF0
1F07FDF0
1E03F9E0
00000380
ENDCHAR
STARTCHAR 4F53
ENCODING 20307
SWIDTH 990 0
DWIDTH 33 0
BBX 30 28 2 -2
BITMAP
0F007C00
0FC07C00
0FC07C00
0F807C00
1F807C00
1F807C00
1F3FFFF8
1F3FFFF8
3E3FFFF8
3C007C00
7C007C00
7F3E7DF0
FF3E7DF0
DF3E7DF0
1F3E7DF0
1F3E7DF0
1F3C7CF0
1F3C7CF0
1F3C7CF0
1F3BFF78
1F3BFF38
1F33FF38
1F607C0C
1F007C00
1F007C00
1F007C00
1E007800
10000000
ENDCHAR
STARTCHAR 4F55
ENCODING 20309
SWIDTH 990 0
DWIDTH 33 0
BBX 31 28 1 -2
BITMAP
07800000
07E00000
07EFFFFE
07EFFFFE
07CFFFFE
0FC000F8
0F8000F8
0F8000F8
0F0E00F8
1F0FFCF8
1E0FFCF8
3F8FFCF8
3F8F3CF8
7F8F3CF8
CF8F3CF8
0F8F3CF8
0F8F3CF8
0F8F3CF8
0F8F3CF8
0F8FB8F8
0F8FB8F8
0F8FF0F8
0F8060F8
0F8000F8
0F8004F8
0F8007F8
0F8007F8
0E0001F0
ENDCHAR
STARTCHAR 4F57
ENCODING 20311
SWIDTH 990 0
DWIDTH 33 0
BBX 30 28 2 -1
BITMAP
00003800
0F007C00
0FC07C00
1FBE7C00
1FBFFFFC
1FBFFFFC
1F3FFFFC
1F3E007C
3E3E007C
3E3E007C
3C3E0078
78380040
7F000000
FF07C0E0
DF07C1F0
1F07C3F0
1F07CFF0
1F07FFC0
1F07FE00
1F07C000
1F07C000
1F07C000
1F07C000
1F07C000
1F07FFFC
1F07FFF8
1F07FFF8
1E03FFF0
ENDCHAR
STARTCHAR 4F58
ENCODING 20312
SWIDTH 960 0
DWIDTH 32 0
BBX 28 29 2 -1
BITMAP
00080000
000E0000
001F8000
003F8000
007FC000
00FFF000
01FEFF00
03FC7FF0
07F83FF0
1FE00FF0
7F8007E0
87FFFEC0
07FFFE00
07FFFE00
00000000
00000000
00000000
7FFFFFE0
7FFFFFE0
7FFFFFE0
000F8000
080F8000
1E0F8380
1F0F87C0
1F0F87C0
3E0F87C0
3C7F87C0
787F8380
007F0000
ENDCHAR
STARTCHAR 4F59
ENCODING 20313
SWIDTH 990 0
DWIDTH 33 0
BBX 28 29 3 -1
BITMAP
000C0000
000F0000
001F8000
003F8000
007FC000
00FFF800
01FEFF00
03FC7FF0
0FF83FF0
1FE01FF0
FF8007E0
07FFFFC0
07FFFE00
07FFFE00
000F8000
000F8000
000F8000
000F8000
7FFFFFE0
7FFFFFE0
7FFFFFE0
000F8000
1E0F8380
1F0F87C0
1F0F87C0
3E0F87C0
3E7F87C0
787F8380
003F0000
ENDCHAR
STARTCHAR 4F5A
ENCODING 20314
SWIDTH 990 0
DWIDTH 33 0
BBX 31 27 2 -2
BITMAP
0F007C00
0FC07C00
0FDF7C00
0F9F7C00
1F9FFFF0
1F1FFFF0
1F1FFFF0
1E1E7C00
3C1C7C00
3C387C00
7F307C00
7F007C00
FF007C00
9F3FFFFC
1F3FFFFC
1F3FFFFC
1F00FE00
1F00FE00
1F00FF00
1F01FF80
1F01F7C0
1F03F3E0
1F03E3F8
1F07C3FE
1F0F81FC
1F1E00F8
1C780070
ENDCHAR
STARTCHAR 4F5B
ENCODING 20315
SWIDTH 990 0
DWIDTH 33 0
BBX 30 27 2 -1
BITMAP
1F83EF80
1F83EF80
1F83EF80
1F7FFFF0
1F7FFFF8
3F7FFFF8
3E03EFB8
3E03EFB8
3C03EFB8
7C3FFFF8
783FFFF8
7F3FFFF0
FF3BEF80
9F3BEF80
1F3BEF80
1F3FFFF0
1F3FFFFC
1F3FFFFC
1F03EFBC
1F03EFBC
1F07EFBC
1F07EFBC
1F07CFBC
1F0FCFFC
1F0F8F98
1F1F0F80
1C380E00
ENDCHAR
STARTCHAR 4F5C
ENCODING 20316
SWIDTH 990 0
DWIDTH 33 0
BBX 30 29 2 -2
BITMAP
000E0000
0F0F8000
0FCF8000
0FCF8000
0F8FFFFC
0F8FFFFC
1F8FFFFC
1F0F7C00
1F0E7C00
3E1E7C00
3C1C7C00
7C1C7C00
7F387FF8
FF207FF8
9F007FF8
1F007C00
1F007C00
1F007C00
1F007C00
1F007FF8
1F007FF8
1F007FF8
1F007C00
1F007C00
1F007C00
1F007C00
1F007C00
1E007800
00006000
ENDCHAR
STARTCHAR 4F5D
ENCODING 20317
SWIDTH 960 0
DWIDTH 32 0
BBX 30 28 1 -2
BITMAP
02020000
078FC000
07CFC000
07CFC000
07CFC000
0FCFFFF8
0F8FFFFC
0F9FFFFC
1F1F007C
1F1E007C
1E1C007C
3FBFFF7C
3F8FFF7C
6F8FFF7C
CF8F9F7C
0F8F9F7C
0F8F9F7C
0F8F9F7C
0F8F9F7C
0F8F9F7C
0F8FFF7C
0F8FFE7C
0F87FE7C
0F80187C
0F80007C
0F8003FC
0F8003FC
0E0003F8
ENDCHAR
STARTCHAR 4F5E
ENCODING 20318
SWIDTH 990 0
DWIDTH 33 0
BBX 30 27 2 -1
BITMAP
1F000000
1FDFFFF0
1FDFFFF0
1F9FFFF0
1F800000
3F000000
3F3FFFF8
3E3FFFF8
3C3FFFF8
7C000000
78000000
7F03F000
FF03E000
9F3FFFFC
1F3FFFFC
1F3FFFFC
1F0FC7E0
1F0F87C0
1F1F8FC0
1F1F1F80
1F1FFF80
1F07FFF0
1F007FF8
1F01FFF8
1F03FBF8
1F1FF0F8
1C7F8030
ENDCHAR
STARTCHAR 4F5F
ENCODING 20319
SWIDTH 990 0
DWIDTH 33 0
BBX 31 28 1 -1
BITMAP
0F878000
0FE7C000
0FC7C000
0FC7FFF0
0FCFFFF0
1F8FFFF0
1F8F83F0
1F1F87E0
1F1DE7E0
3E30FFC0
3C00FF86
3F807FFC
7F80FFFC
6F83FFFC
8FBFFFF8
0F8701F8
0F81FC00
0F83FF00
0F807F80
0F801F00
0F800700
0F800200
0F87FC00
0F80FF80
0F803F80
0F801F80
0F800F00
0E000600
ENDCHAR
STARTCHAR 4F60
ENCODING 20320
SWIDTH 990 0
DWIDTH 33 0
BBX 29 28 2 -2
BITMAP
0E000000
0F8F8000
0FCFC000
0F8FC070
0F8F8078
1F8FFFF8
1F0FFFF8
1F1FFFF8
1E1F00F0
3E1E00F0
3C1E7CE0
7F3C7DC0
7F387C00
FF607C00
9F007C00
1F007C00
1F1F7C70
1F1E7CF8
1F1E7CF8
1F3E7CF8
1F3C7C70
1F3C7C00
1F387C00
1F707C00
1F007C00
1F03FC00
1F03FC00
1C00F800
ENDCHAR
STARTCHAR 4F63
ENCODING 20323
SWIDTH 960 0
DWIDTH 32 0
BBX 30 28 1 -2
BITMAP
0F000000
0FEF8000
0FCFFFF8
0FCFFFFC
0FCFFFFC
1FCF9F7C
1F8F9F7C
1F8F9F7C
1F0F9F7C
3E0FFFFC
3C0FFFFC
3F8FFFFC
7F8F9F7C
6F8F9F7C
8F8F9F7C
0F8F9F7C
0F8FFFFC
0F8FFFFC
0F8FFFFC
0F8F9F7C
0F8F1F7C
0F9F1F7C
0F9F1F7C
0F9E1F7C
0F9E1FFC
0FBC1EFC
0F3000F8
08000000
ENDCHAR
STARTCHAR 4F64
ENCODING 20324
SWIDTH 990 0
DWIDTH 33 0
BBX 30 27 2 -2
BITMAP
1F000000
1FBFFFF8
1FBFFFF8
1FBFFFF8
1F1F0000
3F1F0000
3F1F0000
3E1F0000
3E1FFFF0
7C1FFFF0
781FFFF0
7F1F01F0
FF1F01F0
9F1F01F0
1F1F39F0
1F1F7DF0
1F1F7DF0
1F1F7DF0
1F1F39F0
1F1F01F0
1F1F01F0
1F1F01F0
1F1F01F0
1F1F01FC
1F1FE1F8
1F1FE1F8
1E0FE0F8
ENDCHAR
STARTCHAR 4F65
ENCODING 20325
SWIDTH 960 0
DWIDTH 32 0
BBX 29 28 2 -1
BITMAP
000C0000
000F0000
001F8000
003F8000
003FC000
007FF000
00FEFE00
01FC7FF8
03F83FF8
0FF01FF0
1FC007F0
7E0003E0
80000040
07FFFF00
07FFFF00
07FFFF00
00000000
00070200
0E0F8780
1F0F87E0
1F0F87C0
1F070F80
0E000F80
00001E00
00001000
7FFFFFF0
7FFFFFF0
7FFFFFF0
ENDCHAR
STARTCHAR 4F67
ENCODING 20327
SWIDTH 990 0
DWIDTH 33 0
BBX 30 28 2 -1
BITMAP
0F80F800
0FC0F800
0FC0F800
1FC0FFF8
1F80FFF8
1F80FFF8
1F00F800
3E00F800
3E00F800
3C00F800
783FFFFC
7F3FFFFC
FF3FFFFC
DF000000
1F00F800
1F00F800
1F00F800
1F00FF80
1F00FBF0
1F00F9F8
1F00F8F8
1F00F878
1F00F830
1F00F820
1F00F800
1F00F800
1E00F000
1000C000
ENDCHAR
STARTCHAR 4F69
ENCODING 20329
SWIDTH 990 0
DWIDTH 33 0
BBX 31 27 1 -2
BITMAP
1E000000
1FBE0000
1FBFFFFC
1FBFFFFC
1FBFFFFC
1F3E007C
3F3EFF7C
3E3EFF7C
3E3EFF7C
3C3E387C
783E387C
7F3E387C
7F3EFF7C
DF3EFF7C
1F3EFB7C
1F3EFB7C
1F3EFB7C
1F3EFB7C
1F3EFB7C
1F3EFB7C
1F3CFB7C
1F3CFB7C
1F3CFB7C
1F38387E
1F78387E
1F70387E
1E60307E
ENDCHAR
STARTCHAR 4F6C
ENCODING 20332
SWIDTH 990 0
DWIDTH 33 0
BBX 31 28 1 -2
BITMAP
0700F800
07E0F800
0FE0F800
0FE0F800
0FCFFFC0
0FCFFFF8
0F8FFFFC
1F80F8FC
1F00F9FC
1F00FBF8
3E1FFFFE
3C1FFFFE
7F9FFFFE
6F803F80
8F807E00
0F81FC30
0F83F0F0
0F87E1F8
0F9FE7F8
0FFFFFF0
0F83FFC0
0F83E000
0F83E000
0F83E000
0F83FFFC
0F83FFFC
0F83FFFC
0F01FFF8
ENDCHAR
STARTCHAR 4F6F
ENCODING 20335
SWIDTH 990 0
DWIDTH 33 0
BBX 31 28 1 -1
BITMAP
0701C1E0
07E3E1F8
07E3E1F0
07C3E1E0
0FC1C3C0
0FDFFFFC
0F9FFFFC
0F9FFFFC
1F003E00
1E003E00
3E003E00
3F803E00
3F8FFFF8
7F8FFFF8
8F8FFFF8
0F803E00
0F803E00
0F803E00
0F9FFFFE
0F9FFFFE
0F9FFFFE
0F803E00
0F803E00
0F803E00
0F803E00
0F803E00
0F803E00
0E003800
ENDCHAR
STARTCHAR 4F70
ENCODING 20336
SWIDTH 990 0
DWIDTH 33 0
BBX 30 29 2 -3
BITMAP
0F800000
0FDFFFFC
0FDFFFFC
0F9FFFFC
0F803E00
1F803C00
1F003C00
1F1F3800
3E1FFFF0
3C1FFFF8
781FFFF8
7F1F00F8
FF1F00F8
DF1F00F8
1F1F00F8
1F1F00F8
1F1FFFF8
1F1FFFF8
1F1FFFF8
1F1F00F8
1F1F00F8
1F1F00F8
1F1F00F8
1F1F00F8
1F1FFCF0
1F1FFDF0
1E0FFDE0
180003C0
00000400
ENDCHAR
STARTCHAR 4F73
ENCODING 20339
SWIDTH 990 0
DWIDTH 33 0
BBX 30 28 2 -1
BITMAP
0F007C00
1FC07C00
1FC07C00
1F807C00
1F9FFFF8
1F1FFFF8
1F1FFFF8
3E007C00
3E007C00
3C007C00
783FFFF8
7F3FFFF8
FF3FFFF8
DF000000
1F007C00
1F007C00
1F007C00
1F1FFFF8
1F1FFFF8
1F1FFFF8
1F007C00
1F007C00
1F007C00
1F007C00
1F3FFFFC
1F3FFFFC
1E3FFFFC
10000000
ENDCHAR
STARTCHAR 4F74
ENCODING 20340
SWIDTH 990 0
DWIDTH 33 0
BBX 30 28 2 -2
BITMAP
1C000000
1F800000
1FBFFFF8
1FBFFFF8
1FBFFFF8
1F0F81F0
3F0F81F0
3E0F81F0
3E0FFFF0
3C0FFFF0
7C0FFFF0
7F0F81F0
7F0F81F0
FF0F81F0
9F0FFFF0
1F0FFFF0
1F0FFFF0
1F0F81F0
1F0F81F0
1F0F81FC
1F0FFFFC
1F3FFFFC
1F3FFFF0
1F3FC1F0
1F0001F0
1F0001F0
1F0001F0
1C0001C0
ENDCHAR
STARTCHAR 4F76
ENCODING 20342
SWIDTH 990 0
DWIDTH 33 0
BBX 30 28 2 -3
BITMAP
0C007C00
1FC07C00
1FC07C00
1F807C00
1FBFFFFC
1FBFFFFC
3F3FFFFC
3F007C00
3E007C00
3C007C00
78007C00
7F1FFFF8
FF1FFFF8
DF1FFFF8
1F000000
1F1F0000
1F1FFFF0
1F1FFFF8
1F1FFFF8
1F1F00F8
1F1F00F8
1F1F00F8
1F1F00F8
1F1F00F8
1F1FFCF0
1F1FFDF0
1E0FFDE0
100003C0
ENDCHAR
STARTCHAR 4F7B
ENCODING 20347
SWIDTH 990 0
DWIDTH 33 0
BBX 30 28 2 -2
BITMAP
0F03EF80
0FC3EF80
0F83EF80
0F83EF80
0F9BEFB0
1F7BEFBC
1F7BEFB8
1F3BEFF8
3E3FEFF8
3C1FEFF0
7C07EFC0
7F03EF80
FF03EF80
DF03EF80
1F07EFC0
1F1FEFE0
1F7FEFF8
1F7FEFFC
1F7BEFB8
1F37EFB0
1F07CF80
1F07CF80
1F0FCF80
1F0F8FFC
1F1F8FFC
1F1F0FF8
1F3E07F8
18700000
ENDCHAR
STARTCHAR 4F7C
ENCODING 20348
SWIDTH 990 0
DWIDTH 33 0
BBX 31 29 1 -3
BITMAP
00000E00
07001F00
07C01F00
07C01F00
07DFFFFC
07DFFFFC
079FFFFC
0F800000
0F838000
0F07E0C0
1F07E0F8
1E07E07E
3F8FC03E
3F8F803E
7F9F001C
CFBC01D0
0F8101E0
0F8183E0
0F80C3E0
0F80E7E0
0F807FC0
0F807FC0
0F803F80
0F803FE0
0F807FFE
0F81FFFC
0F83FBFC
0F8FE1F8
0E7F0078
ENDCHAR
STARTCHAR 4F7E
ENCODING 20350
SWIDTH 990 0
DWIDTH 33 0
BBX 29 29 2 -1
BITMAP
00000800
0F038C00
0FC3C600
0FC7E700
0F87C780
0F8FC3C0
1F8F83E0
1F1F01F8
1F3E01F8
3E3C00F0
3CE00060
3C1F0000
7F1FFFC0
7F1FFFE0
FF1FFFE0
9F1F03E0
1F1F03E0
1F1FFFE0
1F1FFFE0
1F1FFFE0
1F1F03E0
1F1FFFE0
1F1FFFE0
1F1FFFE0
1F1F03E0
1F1F03E0
1F1F1FE0
1F1F1FE0
1C1C1FC0
ENDCHAR
STARTCHAR 4F7F
ENCODING 20351
SWIDTH 990 0
DWIDTH 33 0
BBX 31 28 1 -2
BITMAP
06003E00
0FC03E00
0FC03E00
0FDFFFFE
0FDFFFFE
0F9FFFFE
1F803E00
1F1F3E00
1F1FFFF8
1E1FFFFC
3C1FFFFC
3F9F3E7C
7F9F3E7C
6F9F3E7C
8F9F3E7C
0F9FFFFC
0F9FFFFC
0F8FFFF8
0F907E00
0F8C7C00
0F8F7C00
0F87FC00
0F83FC00
0F81FFFE
0F83FFFE
0F87FFFC
0F8F87FC
0E7E01F8
ENDCHAR
STARTCHAR 4F83
ENCODING 20355
SWIDTH 990 0
DWIDTH 33 0
BBX 30 27 2 -2
BITMAP
0F1F0000
0FDFFFF0
0FDFFFF0
1F9FFFF0
1F9F01F0
1F1F01F0
1F1F01F0
3E1F01F0
3E1F01F0
3C1FFDF0
781FFFE0
7F07FFC0
FF000380
9F000000
1F1F7FE0
1F1F7FE0
1F1F7FE0
1F1F7FE0
1F1F7FE0
1F1F7FE0
1F1F7FE0
1F1F7FE0
1F1F7FE0
1F1E7FFC
1F3E7FFC
1F3C7FF8
1E7861F8
ENDCHAR
STARTCHAR 4F84
ENCODING 20356
SWIDTH 990 0
DWIDTH 33 0
BBX 30 28 2 -2
BITMAP
0F000000
1FDFFFF8
1FDFFFF8
1F9FFFF8
1F807000
1F00F800
3F00F100
3E01E1C0
3E03C0F0
3C1FFFF0
781FFFF8
7F1FFE78
FF1FF070
DF0FC060
1F040000
1F007C00
1F007C00
1F1FFFF0
1F1FFFF0
1F1FFFF0
1F007C00
1F007C00
1F007C00
1F007C00
1F3FFFFC
1F3FFFFC
1E3FFFFC
18000000
ENDCHAR
STARTCHAR 4F88
ENCODING 20360
SWIDTH 960 0
DWIDTH 32 0
BBX 30 28 1 -1
BITMAP
0701C000
07E3F000
07E3E000
07C3FFFC
07C3FFFC
0F87FFFC
0F87807C
0F8F30FC
1F007BF8
1E007FF8
1C003FF0
3F81FFC0
3F9FFF80
6F87FC00
CF800000
0F83E000
0F83E000
0F83FFFC
0F87FFFC
0F87FFFC
0F8F80FC
0F8F30FC
0F9C79F8
0F807FF0
0F803FE0
0F83FFC0
0F1FFF00
0C07F800
ENDCHAR
STARTCHAR 4F89
ENCODING 20361
SWIDTH 990 0
DWIDTH 33 0
BBX 31 28 1 -1
BITMAP
07807800
07E07E00
07E07E00
07DFFFFC
07DFFFFC
0FDFFFFC
0F81F9C0
0F83F1E0
1F03E0F8
1E07C0FE
1E0FFFFC
3F8FFFFC
3F99FFD8
6F800000
8F800000
0F9FFFFC
0F9FFFFC
0F9FFFFC
0F83E000
0F83E000
0F83FFF8
0F83FFFC
0F81FFFC
0F80007C
0F80007C
0F8003FC
0F8003FC
0E0003F8
ENDCHAR
STARTCHAR 4F8B
ENCODING 20363
SWIDTH 990 0
DWIDTH 33 0
BBX 30 27 2 -1
BITMAP
3E00007C
3F7FF07C
3F7FF07C
3F7FF77C
3F3E077C
3E3E077C
3E3E077C
7C3C077C
7C3FF77C
783FF77C
783FF77C
FE79F77C
FE79F77C
BE71F77C
3E71F77C
3E6DF77C
3EDFE77C
3EDFE77C
3E1FE77C
3E0FC77C
3E07C77C
3E07807C
3E0F007C
3E1F027C
3E3E03FC
3E7803FC
3CE000F8
ENDCHAR
STARTCHAR 4F8D
ENCODING 20365
SWIDTH 990 0
DWIDTH 33 0
BBX 31 27 1 -1
BITMAP
0F803E00
0FE03E00
0FE03E00
0FEFFFFC
0FCFFFFC
0FCFFFFC
1F803E00
1F003E00
1F003E00
3E0FFFFE
3F8FFFFE
7F8FFFFE
6F8003E0
8F8003E0
0F9FFFFE
0F9FFFFE
0F9FFFFE
0F8003E0
0F8383E0
0F87C3E0
0F87C3E0
0F87C3E0
0F8383E0
0F800FE0
0F800FE0
0F800FE0
0E0003C0
ENDCHAR
STARTCHAR 4F8F
ENCODING 20367
SWIDTH 990 0
DWIDTH 33 0
BBX 31 27 1 -2
BITMAP
07803E00
0FE03E00
0FEF3E00
0FCFBE00
0FCFBE00
0F8FFFF8
1F8FFFF8
1F0FFFF8
1F0E3E00
3E1C3E00
3C183E00
7F803E00
7F9FFFFE
8F9FFFFE
0F9FFFFE
0F803E00
0F803E00
0F8F3E78
0F8FBEF8
0F8FBEF8
0F8FBEF8
0F8F3E78
0F8F3E7C
0F9E3E3C
0F9C3E0E
0F803E00
0E003800
ENDCHAR
STARTCHAR 4F91
ENCODING 20369
SWIDTH 990 0
DWIDTH 33 0
BBX 31 28 1 -2
BITMAP
0700F000
07E0FC00
07E0FC00
07E0F800
07CFFFFE
0FCFFFFE
0F8FFFFE
0F81F000
1F03F000
1F03E000
1E03FFF8
3F83FFFC
3F87FFFC
7F87E07C
8F8FE07C
0F8FFFFC
0F9FFFFC
0F9FFFFC
0FB3E07C
0F83E07C
0F83FFFC
0F83FFFC
0F83FFFC
0F83E07C
0F83E07C
0F83E1FC
0F83E1FC
0E0381F8
ENDCHAR
STARTCHAR 4F94
ENCODING 20372
SWIDTH 990 0
DWIDTH 33 0
BBX 30 29 2 -1
BITMAP
00006000
0F007000
0FC0FC00
0FC1FA00
0FC1F1C0
0F83E1F0
1F9FFFF8
1F1FFFFC
1F1FFFFC
3E1FFC78
3C0F8030
7C003E00
7F0FBE00
FF0FFFF8
DF0FFFF8
1F1FFFF8
1F1E3E00
1F1E3E00
1F383E00
1F003E00
1F3FFFFC
1F3FFFFC
1F3FFFFC
1F003E00
1F003E00
1F003E00
1F003E00
1E003C00
18003000
ENDCHAR
STARTCHAR 4F97
ENCODING 20375
SWIDTH 990 0
DWIDTH 33 0
BBX 30 28 2 -2
BITMAP
0C000000
1F000000
1FBE0000
1FBFFFFC
1F3FFFFC
1F3FFFFC
1F3E007C
3E3E007C
3E3EFF7C
3C3EFF7C
383EFF7C
7F3E007C
7F3EE07C
FF3EFF7C
9F3EFF7C
1F3EFF7C
1F3EE77C
1F3EE77C
1F3EE77C
1F3EF77C
1F3EF77C
1F3EF67C
1F3E0E7C
1F3E007C
1F3E037C
1F3E03FC
1F3E03FC
1C3800F8
ENDCHAR
STARTCHAR 4F9B
ENCODING 20379
SWIDTH 990 0
DWIDTH 33 0
BBX 31 27 1 -1
BITMAP
07C3E3E0
07E3E3E0
07E3E3E0
07C3E3E0
0FDFFFFC
0F9FFFFC
0F9FFFFC
1F03E3E0
1E03E3E0
1E03E3E0
3F83E3E0
3F83E3E0
7F83E3E0
CF83E3E0
0F83E3E0
0F9FFFFE
0F9FFFFE
0F9FFFFE
0F800000
0F800000
0F870000
0F87C0E0
0F87C1F0
0F87C1F0
0F8F81F0
0F8F00E0
0E1E0000
ENDCHAR
STARTCHAR 4F9D
ENCODING 20381
SWIDTH 990 0
DWIDTH 33 0
BBX 31 29 1 -2
BITMAP
00001C00
07803E00
07E03E00
0FE03E00
0FE01C00
0FC00000
0FDFFFFE
0F9FFFFE
1F9FFFFE
1F00F000
1E01FA00
3E01FA00
3F81F200
7F83F300
6F83E31C
8F87C39E
0F87E3BE
0F8FE3FC
0F8FE3F8
0F9FE1E0
0FA3E1E0
0F83E1F0
0F83E1F8
0F83E2F8
0F83FCFC
0F8FF8FE
0F8FF07E
0F87C078
0F078030
ENDCHAR
STARTCHAR 4FA0
ENCODING 20384
SWIDTH 990 0
DWIDTH 33 0
BBX 31 28 1 -2
BITMAP
07000000
07C03E00
07E03E00
07E03E00
0FDFFFFC
0FDFFFFC
0F9FFFFC
0F803E00
1F003E00
1E073E78
1E0FBE7C
3F8FBE7C
3F8FBE78
7F873EE0
CF803E00
0F9FFFFE
0F9FFFFE
0F9FFFFE
0F807F00
0F807F80
0F80FFC0
0F80FBE0
0F81F9F0
0F81F1FC
0F83E1FE
0F87C0FC
0F8F0078
0E1C0030
ENDCHAR
STARTCHAR 4FA3
ENCODING 20387
SWIDTH 960 0
DWIDTH 32 0
BBX 29 28 2 -3
BITMAP
0F000000
0FDF0000
0FDFFFF0
0FDFFFF8
0F9FFFF8
1F9F00F8
1F1F00F8
1E1F00F8
3E1F00F8
3C1FFCF8
7C1FFCF0
7F07FDE0
DF000380
9F000000
1F1F0000
1F1FFFF0
1F1FFFF8
1F1FFFF8
1F1F00F8
1F1F00F8
1F1F00F8
1F1F00F8
1F1F00F8
1F1F00F8
1F1FFEF0
1F1FFEF0
1E0FFEE0
100001C0
ENDCHAR
STARTCHAR 4FA5
ENCODING 20389
SWIDTH 990 0
DWIDTH 33 0
BBX 31 28 1 -2
BITMAP
0707C000
07E3E000
07E3F03C
07C1FFFC
07DFFFFC
0FDFFF80
0F9E7E0C
0F803FFC
1F003FFE
1E03FFE0
1E0FFFC4
3F8FC7FC
3F8C07FE
6F8003F8
8F8001F0
0F800000
0F9FFFFE
0F9FFFFE
0F9FFFFE
0F83E3E0
0F83E3E0
0F83E3E0
0F83E3E0
0F87E3E0
0F87C3FE
0F87C3FE
0F8F83FE
0E3E01FC
ENDCHAR
STARTCHAR 4FA6
ENCODING 20390
SWIDTH 990 0
DWIDTH 33 0
BBX 31 28 1 -2
BITMAP
02003E00
07C03E00
07E03E00
07E03FFC
07C03FFC
0FC03FFC
0F9F3E00
0F9F3E00
1F1FFFFC
1F1FFFFC
1E1FFFFC
3F9F3E7C
3F9F3E7C
6F9F3E7C
8F9F3E7C
0F9F3E7C
0F9F3E7C
0F9F3E7C
0F9F3E7C
0F9F3E7C
0F9F3E78
0F987C00
0F807FF0
0F80FFFE
0F81F8FE
0F83F07E
0F8FE01C
0E7F800C
ENDCHAR
STARTCHAR 4FA7
ENCODING 20391
SWIDTH 990 0
DWIDTH 33 0
BBX 31 28 1 -2
BITMAP
0000003E
1F38003E
1FBFFC3E
1FBFFC3E
1F3FFFBE
1F381FBE
1F3FDFBE
3E3FDFBE
3E3FDFBE
3C3FDFBE
383FDFBE
7F3FDFBE
7F3FDFBE
DF3FDFBE
1F3FDFBE
1F3FDFBE
1F3FDFBE
1F3FDFBE
1F37D3BE
1F07C3BE
1F0F83BE
1F0FBBBE
1F0FFE3E
1F1F7C3E
1F1E7C3E
1F3C39FE
1F7801FE
1CE001FC
ENDCHAR
STARTCHAR 4FA8
ENCODING 20392
SWIDTH 990 0
DWIDTH 33 0
BBX 31 29 1 -2
BITMAP
00000040
070001E0
07E00FE0
07E0FFF0
07EFFFF0
07C3FFE0
0FC03F00
0F803E00
0F803E00
1F1FFFFE
1F1FFFFE
1E1FFFFE
3F81FFE0
3F81F3FE
6F83E1FE
8F8FC0FC
0F9F0078
0F800000
0F87C3E0
0F87C3E0
0F87C3E0
0F87C3E0
0F87C3E0
0F87C3E0
0F8783E0
0F8F83E0
0F8F83E0
0F9F03E0
0E3E03C0
ENDCHAR
STARTCHAR 4FA9
ENCODING 20393
SWIDTH 990 0
DWIDTH 33 0
BBX 30 28 2 -1
BITMAP
0F007000
0FC0FC00
0F80FC00
0F81FC00
0F81FE00
1F03FF80
1F03E7E0
1E07C3FC
3E0F81F8
3C1FFFF0
7C3FFFE0
7F07FFC0
FF000000
9F000000
1F000000
1F1FFFF0
1F1FFFF0
1F1FFFF0
1F01E000
1F01F200
1F03E180
1F03C1C0
1F07FFF0
1F3FFFF0
1F3FFEF8
1F1FF878
1E1FC070
100C0040
ENDCHAR
STARTCHAR 4FAA
ENCODING 20394
SWIDTH 990 0
DWIDTH 33 0
BBX 31 29 1 -2
BITMAP
00001C00
0F003E00
0FE03E00
0FE01E00
0FEFFFFE
0FCFFFFE
1FCFFFFE
1F8383F0
1F81C3E0
1F01E7E0
3E00FFC0
3C00FFC0
3F807FFE
7F80FFFE
6F83FFFC
8FBFF3FC
0F810018
0F800000
0F83E1F0
0F83E1F0
0F83E1F0
0F83E1F0
0F83E1F0
0F83E1F0
0F83C1F0
0F87C1F0
0F87C1F0
0F8F81F0
0E1E01E0
ENDCHAR
STARTCHAR 4FAC
ENCODING 20396
SWIDTH 990 0
DWIDTH 33 0
BBX 30 28 2 -2
BITMAP
0E007C00
0FC07E00
0F807E00
0FBE7E00
0FBFFFFC
1F3FFFFC
1F3FFFFC
1E3EFC7C
3E3EFC7C
3C3FFC78
7C39F660
7F03E600
FF03E600
9F07C738
1F0F877C
1F0FC7FC
1F1FC3F8
1F3FC3F0
1F67C3C0
1F07C3E0
1F07C3E0
1F07DDF0
1F07F9F8
1F1FF1F8
1F1FE1FC
1F1F80F8
1E0F00F0
18040000
ENDCHAR
STARTCHAR 4FAE
ENCODING 20398
SWIDTH 990 0
DWIDTH 33 0
BBX 30 28 2 0
BITMAP
1E1E0000
1F9F0000
1FDF0000
1F9FFFF8
1F9FFFF8
1F3FFFF8
3F3F0000
3E3FFFF0
3E7FFFF0
7CFFFFF0
781F7DF0
7F1F3DF0
FF1F1DF0
DF1F09F0
1F7FFFFC
1F7FFFFC
1F7FFFFC
1F1F01F0
1F1F79F0
1F1F3DF0
1F1F1DF0
1F1F09F0
1F1FFFF8
1F1FFFF8
1F0FFFF8
1F0001F0
1F000FF0
1C000FE0
ENDCHAR
STARTCHAR 4FAF
ENCODING 20399
SWIDTH 990 0
DWIDTH 33 0
BBX 29 28 2 -1
BITMAP
0F000000
1FCFFF80
1FCFFFC0
1FCFFFC0
1F8007C0
1F8007C0
1F0007C0
3F1FFFF8
3E1FFFF8
3C1FFFF8
780F0000
7F0F0000
FF0FFFF0
DF0FFFF0
1F0FFFF0
1F1E7C00
1F1C7C00
1F307C00
1F3FFFF8
1F3FFFF8
1F3FFFF8
1F00FF00
1F00FF80
1F01F7E0
1F03F3F8
1F07E3F8
1E0F81F0
183E00E0
ENDCHAR
STARTCHAR 4FB5
ENCODING 20405
SWIDTH 990 0
DWIDTH 33 0
BBX 31 28 1 -2
BITMAP
07000000
07E7FFF0
07E7FFF8
07E7FFF8
0FC000F8
0FC3FFF8
0F83FFF8
0F8000F8
1F07FFF8
1F07FFF8
1E07FFE0
3E000000
3F9FFFFE
7F9FFFFE
CF9FFFFE
0F9F003E
0F9E0000
0F8FFFF0
0F8FFFF0
0F8FFFF0
0F8383F0
0F81C3F0
0F81E7E0
0F80FFE2
0F807FFC
0F83FFFC
0FBFFFFC
0E0FE7F8
ENDCHAR
STARTCHAR 4FBF
ENCODING 20415
SWIDTH 990 0
DWIDTH 33 0
BBX 31 28 1 -2
BITMAP
0F000000
0FDFFFFE
0FDFFFFE
0FDFFFFE
0F803E00
0F9F3E00
1F9FFFF8
1F1FFFFC
1F1FFFFC
3E1F3E7C
3C1F3E7C
3F9FFFFC
7F9FFFFC
6F9FFFFC
CF9F3E7C
0F9F3E7C
0F9FFFFC
0F9FFFFC
0F8FFFF8
0F903E00
0F9C7C00
0F8FFC00
0F87FC00
0F81FFFE
0F83FFFE
0F87FFFC
0F8FCFFC
0E3F00F8
ENDCHAR
STARTCHAR 4FC3
ENCODING 20419
SWIDTH 990 0
DWIDTH 33 0
BBX 31 28 1 -2
BITMAP
07000000
07C00000
07EFFFFC
07EFFFFC
07CFFFFC
0FCF807C
0F8F807C
0F8F807C
1F0F807C
1F0F807C
1E0FFFFC
3F8FFFF8
3F83FFF0
6F801F00
8F801F00
0F801F00
0F8F9FFC
0F8F9FFC
0F8F9FFC
0F8F9F00
0F8F9F00
0F8F1F00
0F8F9F00
0F9FDF00
0F9FFFFE
0F9FFFFC
0FBCFFFC
0E307FF8
ENDCHAR
STARTCHAR 4FC4
ENCODING 20420
SWIDTH 990 0
DWIDTH 33 0
BBX 31 28 1 -2
BITMAP
07000000
07C077C0
07E0F3C0
07C7FBCC
07DFFBFE
0FC7E3FE
0F83E3EC
0F83E3E0
1F03E3E0
1F3FFFFC
1E3FFFFC
3FBFFFFC
3F83E3E0
7F83E1E0
8F83E5E8
0F83F9FC
0F83F9FC
0FBFF1FC
0FBFE1FC
0FBFE1F8
0F9FE7F0
0F8BE7F0
0F83E1F0
0F83E0F0
0F93E0FC
0F9FE0FC
0F9FE0FC
0E07C060
ENDCHAR
STARTCHAR 4FC5
ENCODING 20421
SWIDTH 990 0
DWIDTH 33 0
BBX 30 28 2 -1
BITMAP
0E007C00
0F807CE0
0FC07DF0
0F807DF0
1F807CE0
1F807C00
1F3FFFFC
1F3FFFFC
3E3FFFFC
3C007C00
780C7C70
7F1E7C78
FF3E7CF8
DF1F7CF0
1F077DC0
1F007C00
1F007C00
1F017D00
1F037D80
1F0E7DE0
1F1E7CF0
1F7E7CFC
1F7C7CFC
1F3C7C78
1F097C20
1F03FC00
1F03FC00
1800F800
ENDCHAR
STARTCHAR 4FCA
ENCODING 20426
SWIDTH 960 0
DWIDTH 32 0
BBX 30 28 1 -1
BITMAP
07007000
07E07C00
07C0FC00
07C0F980
07C1F1E0
0F83C0F8
0F9FFFFC
0F9FFFF8
1F0FFE38
1E0FF030
1E07C700
3F83E3F8
3F87F0F8
6F8FC078
8FBFE038
0F87E000
0F87FFF0
0F87FFF0
0F87FFF0
0F8FC1F0
0F8FC1F0
0F9EE3F0
0FB8F3E0
0F807FC0
0F803FFC
0F80FFFC
0FBFFFF8
0E07F3F8
ENDCHAR
STARTCHAR 4FCE
ENCODING 20430
SWIDTH 990 0
DWIDTH 33 0
BBX 30 27 2 0
BITMAP
1F07C000
1F87FFF0
1F87FFF0
1F07FFF0
1F07C1F0
1F07C1F0
3F07C1F0
3EE7C1F0
3FF7C1F0
3DF7FFF0
7DF7FFF0
78E7FFF0
F007C1F0
C807C1F0
1F07C1F0
1F07C1F0
1F07C1F0
1F07FFF0
3E07FFF0
3EE7FFF0
3FF7C1F0
3DF7C1F0
3DF7C1F0
78E7C1F0
780FFFFC
E00FFFFC
C00FFFFC
ENDCHAR
STARTCHAR 4FCF
ENCODING 20431
SWIDTH 960 0
DWIDTH 32 0
BBX 30 28 1 -1
BITMAP
07801F00
07E01F00
07E71F38
07EF9F3C
07CF9F3C
0FCF9F38
0F871F60
0F801F00
0F0FFFF8
1E0FFFFC
1E0FFFFC
3F8F807C
3F8F807C
6F8F807C
8F8FFFFC
0F8FFFFC
0F8FFFFC
0F8F807C
0F8F807C
0F8F807C
0F8FFFFC
0F8FFFFC
0F8FFFFC
0F8F807C
0F8F807C
0F8F83FC
0F8F83FC
0E0E01F8
ENDCHAR
STARTCHAR 4FD0
ENCODING 20432
SWIDTH 990 0
DWIDTH 33 0
BBX 30 28 2 -2
BITMAP
1C004000
3F01E07C
3F07E07C
3F1FE07C
3F7FE07C
3E1F877C
3E0F877C
3E0F877C
3C0F877C
7C0F877C
78FFF77C
7EFFF77C
FEFFF77C
FE0F877C
BE0F877C
3E0F877C
3EFFF77C
3EFFF77C
3EFFF77C
3EFFF77C
3EFF877C
3EFF877C
3EEF867C
3ECF807C
3E0F807C
3E0F83FC
3E0F83FC
380E03F8
ENDCHAR
STARTCHAR 4FD1
ENCODING 20433
SWIDTH 960 0
DWIDTH 32 0
BBX 30 28 1 -1
BITMAP
03000030
07800038
07EFFFF8
07EFFFFC
07CFFFF0
07C1FFE0
0F80FF00
0F803F00
0F0FFFF0
1E0FFFFC
1E0FFFFC
3F8FBE7C
3F8FBE7C
6F8FFFFC
8F8FFFFC
0F8FFFFC
0F8FBE7C
0F8FBE7C
0F8FBE7C
0F8FFFFC
0F8FFFFC
0F8FFFFC
0F8FBE7C
0F8FBE7C
0F8FBE7C
0F8FBEFC
0F8FBCFC
0E0E00FC
ENDCHAR
STARTCHAR 4FD7
ENCODING 20439
SWIDTH 990 0
DWIDTH 33 0
BBX 31 29 1 -3
BITMAP
07000000
07C00000
07E1C700
07E1F3E0
07C3E1F8
0FC7E0FC
0F87C07C
0F8F1C38
0F1C3F00
1F007F00
1E007F00
3F80FFE0
3F81FFFC
6F83F3FE
8F87C1FC
0F8F00FC
0FBC0038
0F87C000
0F87FFF0
0F87FFF8
0F87FFF8
0F87C0F8
0F87C0F8
0F87C0F8
0F87C0F8
0F87FCF8
0F87FDF0
0E03FDE0
000003C0
ENDCHAR
STARTCHAR 4FD8
ENCODING 20440
SWIDTH 990 0
DWIDTH 33 0
BBX 31 29 1 -1
BITMAP
00000020
078001F0
07E03FF8
07EFFFF8
07C3FFF8
0FC0FFC0
0FC71C70
0F8FBE7C
0F0FBE7C
1F0FBEF8
1E071CF0
3E0001C0
3F8FFFF8
7F8FFFFC
CF8FFFFC
0F8001F8
0F8003F0
0F8007C0
0F803E00
0F9FFFFE
0F9FFFFE
0F9FFFFE
0F803E00
0F803E00
0F803E00
0F81BE00
0F81FE00
0F01FE00
0800FC00
ENDCHAR
STARTCHAR 4FDA
ENCODING 20442
SWIDTH 990 0
DWIDTH 33 0
BBX 31 28 1 -2
BITMAP
07000000
07FF0000
07FFFFFC
07DFFFFC
07DFFFFC
0FDF3E7C
0F9F3E7C
0F9FFFFC
1F1FFFFC
1E1FFFFC
1E1F3E7C
3F9F3E7C
3F9F3E7C
6F9FFFFC
8F9FFFFC
0F8FFFF8
0F803E00
0F803E00
0F9FFFFC
0F9FFFFC
0F9FFFFC
0F803E00
0F803E00
0F803E00
0F9FFFFE
0F9FFFFE
0F1FFFFE
08000000
ENDCHAR
STARTCHAR 4FDC
ENCODING 20444
SWIDTH 990 0
DWIDTH 33 0
BBX 30 28 2 0
BITMAP
0F807C00
0FC07C00
0FDF7C00
0FDFFFF8
0F9FFFF8
1F9FFFF8
1F1F7CF8
1F1FFFF8
3E1FFFF8
3C1FFFF8
7C1F7CF8
7F1FFFF8
FF1FFFF8
DF0FFFF0
1F000000
1F3FFFFC
1F3FFFFC
1F3FFFFC
1F0F8000
1F0F8000
1F0FFFF0
1F0FFFF8
1F03FFF8
1F0000F8
1F0000F8
1F0007F8
1F0007F8
1C0007F0
ENDCHAR
STARTCHAR 4FDD
ENCODING 20445
SWIDTH 990 0
DWIDTH 33 0
BBX 31 27 1 -1
BITMAP
07CF8000
07EFFFFC
07EFFFFC
07EFFFFC
0FCF807C
0FCF807C
0F8F807C
1F0F807C
1F0F807C
1E0FFFFC
3C0FFFFC
3F83FFF0
7F803E00
CF803E00
0F9FFFFE
0F9FFFFE
0F9FFFFE
0F803E00
0F8E3E1C
0F8FBE7C
0F8FBE7C
0F8FBE7C
0F8F3E3C
0F9F3E3C
0F9E3E1E
0FB83E06
0E003800
ENDCHAR
STARTCHAR 4FDE
ENCODING 20446
SWIDTH 990 0
DWIDTH 33 0
BBX 29 28 2 -1
BITMAP
00060000
000F8000
001FC000
003F8000
007FF000
00FFFF00
01FE7FF8
07FC3FF8
1FF01FF8
FFFFFFF0
03FFFEF0
03FFFE00
00000000
3FF801F0
3FFF79F0
3FFF79F0
3E1F79F0
3FFF79F0
3FFF79F0
3FFF79F0
3E1F79F0
3FFF79F0
3FFF79F0
3FFF71F0
3E1F01F0
3E3F0FF0
3E3F0FF0
383E0FE0
ENDCHAR
STARTCHAR 4FDF
ENCODING 20447
SWIDTH 960 0
DWIDTH 32 0
BBX 30 28 1 -1
BITMAP
07007800
07E07C00
07E0FC00
07C1F980
07C3F0E0
0FDFE0F8
0F9FFFFC
0F8FFFFC
1F0FFC38
1E0F0030
1E0F0000
3F8F8000
3F8FFFF8
6F8FFFF8
8F8FFFF8
0F8F3E00
0F9E3E00
0F9C3E00
0F9FFFFC
0F9FFFFC
0F9FFFFC
0F807F00
0F80FF80
0F80FFE0
0F81FBFC
0F83F1FC
0F8FE0F8
0E7F8078
ENDCHAR
STARTCHAR 4FE1
ENCODING 20449
SWIDTH 990 0
DWIDTH 33 0
BBX 30 29 2 -2
BITMAP
00003800
0E007C00
1FC07C00
1F807C00
1FBFFFFC
1FBFFFFC
1F3FFFFC
3F000000
3E000000
3E0FFFF0
7C0FFFF0
780FFFF0
7F000000
FF0FFFF0
9F0FFFF0
1F0FFFF0
1F000000
1F0F8000
1F0FFFE0
1F0FFFF0
1F0FFFF0
1F0F81F0
1F0F81F0
1F0F81F0
1F0F81F0
1F0FFDF0
1F0FFDE0
1E07FFE0
000003C0
ENDCHAR
STARTCHAR 4FE3
ENCODING 20451
SWIDTH 960 0
DWIDTH 32 0
BBX 29 27 2 -1
BITMAP
0F1F0000
0FDFFFF8
0FDFFFF8
0F9FFFF8
0F9F00F8
1F1F00F8
1F1F00F8
1E1FFCF8
3E1FFCF0
3C0FFDE0
7C000300
7F000000
FF1FFFF0
DF1FFFF0
1F1FFFF0
1F007C00
1F007C00
1F007C00
1F3FFFF8
1F3FFFF8
1F3FFFF8
1F00FF80
1F01FFC0
1F03F3F0
1F07E3F8
1F0FC1F0
1E3F00E0
ENDCHAR
STARTCHAR 4FE6
ENCODING 20454
SWIDTH 960 0
DWIDTH 32 0
BBX 29 28 2 -1
BITMAP
0F007E00
0FC07E00
0F807E00
0F9FFFF8
0F9FFFF8
1F1FFFF8
1F00FC00
1E1FFFF0
3E1FFFF0
3C1FFFF0
3801F800
7F01F800
7F3FFFF8
DF3FFFF8
1F3FFFF8
1F03E000
1F07E3E0
1F07FFF8
1F0FFFF8
1F0FFFF8
1F1F03E0
1F1EE3E0
1F39F3E0
1F41F3E0
1F01F3E0
1F00E7E0
1F0007E0
1C000FC0
ENDCHAR
STARTCHAR 4FE8
ENCODING 20456
SWIDTH 990 0
DWIDTH 33 0
BBX 31 27 1 -2
BITMAP
07800000
07CFFFFC
0FCFFFFC
0FCFFFFC
0FC1F3E0
0F8DF3EC
1F9FF3EE
1F1FF3FE
1F1FF3FE
3E0DF3FC
3C01F3F8
3F81F3E0
7F8FFFFE
CF8FFFFE
0F8FFFFE
0F8F8000
0F8F8000
0F8F8000
0F8F8000
0F8F8000
0F8F8000
0F8F8000
0F9F0000
0F9F0000
0F9E0000
0FBC0000
0F300000
ENDCHAR
STARTCHAR 4FE9
ENCODING 20457
SWIDTH 960 0
DWIDTH 32 0
BBX 30 28 1 -2
BITMAP
0C000000
1F000000
1FBFFFFC
1FBFFFFC
1FBFFFFC
1F01F7C0
1F01F7C0
3F39F7C0
3E3FFFF8
3E3FFFFC
3C3FFFFC
7F3E777C
7F3E777C
FF3E777C
1F3E777C
1F3E777C
1F3E7FFC
1F3EFFFC
1F3EFFFC
1F3FCC7C
1F3F8C7C
1F3E187C
1F3E007C
1F3E007C
1F3E037C
1F3E03FC
1F3E03FC
1C3801F8
ENDCHAR
STARTCHAR 4FEA
ENCODING 20458
SWIDTH 990 0
DWIDTH 33 0
BBX 30 28 2 -2
BITMAP
38000000
3C000000
3F7FFFFC
3E7FFFFC
3E7FFFFC
3E000000
3E780F00
7C7FEFF8
7C7FEFF8
7C7FEFF8
7879EF78
7879EF78
FE79EF78
FE79EF78
FE79EF78
3E7FEFF8
3E7FEFF8
3E7FEFF8
3E7FEFF8
3E79EF78
3E79EF78
3E79EF78
3E79EF78
3E79EF78
3E79EF78
3E7BEFF8
3E7BEFF8
3C73CEF8
ENDCHAR
STARTCHAR 4FED
ENCODING 20461
SWIDTH 960 0
DWIDTH 32 0
BBX 30 27 1 -1
BITMAP
07803000
07E07C00
07C07E00
07C07E00
0FC0FE00
0F80FF00
0F81FFC0
0F03F3F0
1F03E1FC
1E07C0FC
3F8FFFFC
3F9FFFF8
7FB9FFF0
8F800000
0F800000
0F801C00
0F803E60
0F873E78
0F8FBEF0
0F8F9CF0
0F8F80E0
0F8701E0
0F800380
0F800000
0F9FFFF8
0F9FFFF8
0F1FFFF8
ENDCHAR
STARTCHAR 4FEE
ENCODING 20462
SWIDTH 990 0
DWIDTH 33 0
BBX 30 28 2 -2
BITMAP
1E01E000
1F81F000
1F81F000
1F81FFF0
1F01FFF0
1F01FFF0
3F03C1F0
3E7BE3F0
3C7BFFE0
7C7A3FC0
78783FFC
7E787FFC
FE79FFFC
FE7FFFFC
3E781F78
3E783F80
3E787F00
3E7BFD80
3E7803C0
3E7807E0
3E781FC0
3E78FFB0
3E7BFEF0
3E6003F8
3E000FFC
3E00FFF8
3E0FFFE0
3803FF00
ENDCHAR
STARTCHAR 4FEF
ENCODING 20463
SWIDTH 960 0
DWIDTH 32 0
BBX 29 29 2 -2
BITMAP
00001C00
00003E00
0F003E00
1FC03E00
1FBFFFF8
1FBFFFF8
1FBFFFF8
1F3E0000
3F3E7000
3E3E78F8
3E3EF8F8
7C3EF8F8
783EF7F8
FF3FF7F8
DF3FE7F8
1F3FF0F8
1F3FF0F8
1F3FF3F8
1F3EF7F8
1F3EF7F8
1F3EF3F8
1F3EF0F8
1F3EF0F8
1F3CF0F8
1F3CF0F8
1F78F3F8
1F78F3F8
1F70F3F8
1C40C0F0
ENDCHAR
STARTCHAR 4FF1
ENCODING 20465
SWIDTH 990 0
DWIDTH 33 0
BBX 30 28 2 -2
BITMAP
0E000000
0F9F0000
0FDFFFF0
0FDFFFF0
1F9FFFF0
1F9F01F0
1F1FFFF0
1F1FFFF0
3E1FFFF0
3C1F01F0
3C1FFFF0
7F1FFFF0
7F1FFFF0
DF1F01F0
9F1F01F0
1F1FFFF0
1F1FFFF0
1F1FFFF0
1F1F01F0
1F1F01F0
1F3FFFFC
1F3FFFFC
1F3FFFFC
1F0600E0
1F0F01F0
1F0F81F0
1F1F01F0
1C1E00E0
ENDCHAR
STARTCHAR 4FF3
ENCODING 20467
SWIDTH 990 0
DWIDTH 33 0
BBX 31 28 1 -2
BITMAP
07000000
07C1F3E0
07E1F3E0
07E1F3E0
07C1F3E0
0FDFF3FE
0F9FF3FE
0F9FF3FE
1F01F3E0
1E01F3E0
1E01F3E0
3F81F3E0
3F8FF3FC
7F8FF3FC
8F8FF3FC
0F81F3E0
0F81F3E0
0F81F3E0
0F81F3E0
0F9FF3FE
0F9FF3FE
0F9FF3FE
0F81F3E0
0F81F3E0
0F81F3E0
0F81F3E0
0F81F3E0
0E01C380
ENDCHAR
STARTCHAR 4FF8
ENCODING 20472
SWIDTH 990 0
DWIDTH 33 0
BBX 29 27 2 -1
BITMAP
0F007C00
0FC07C00
0FDFFFF8
0F9FFFF8
0F9FFFF8
1F80F800
1F1FFFF0
1E1FFFF0
3E1FFFF0
3C01F000
783FFFF8
7F3FFFF8
FF3FFFF8
9F0FC3F8
1F1F81F8
1F3E7CF8
1F7FFFF8
1FCFFFF0
1F0FFFF0
1F007C00
1F3FFFF8
1F3FFFF8
1F3FFFF8
1F007C00
1F007C00
1F007C00
1C007000
ENDCHAR
STARTCHAR 4FFA
ENCODING 20474
SWIDTH 960 0
DWIDTH 32 0
BBX 30 28 1 -1
BITMAP
0E00F000
0FC0FC00
0FC0FC00
0F81FC00
0FBFFFF8
1FBFFFF8
1F3FFFF8
1F07E380
1E07C3E0
3E0F81F8
3C1F7DFC
3C1E7CF8
7F7FFFF8
7F1FFFF0
DF1FFFF0
1F1E7CF0
1F1FFFF0
1F1FFFF0
1F1FFFF0
1F1E7CF0
1F1FFFF0
1F1FFFE0
1F07FFC0
1F007C00
1F007FFC
1F007FFC
1F007FF8
1E003FF8
ENDCHAR
STARTCHAR 4FFE
ENCODING 20478
SWIDTH 990 0
DWIDTH 33 0
BBX 30 29 2 -2
BITMAP
00003000
00003C00
0F803C00
0FC03800
0FDFFFF8
0F9FFFFC
0F9FFFFC
1F9F3E7C
1F1F3E7C
1E1FFFFC
3E1FFFFC
3C1FFFFC
781F3E7C
7F1F3E7C
FF1FFFFC
DF1FFFF8
1F07FFF0
1F00F800
1F03FF80
1F3FEF80
1F000F80
1F3FFFFC
1F3FFFFC
1F3FFFFC
1F000F80
1F000F80
1F000F80
1F000F80
1E000E00
ENDCHAR
STARTCHAR 500C
ENCODING 20492
SWIDTH 990 0
DWIDTH 33 0
BBX 31 29 1 -2
BITMAP
00000800
07003E00
0FE03E00
0FE03E00
0FDFFFFE
0FDFFFFE
0FDFFFFE
0F9F003E
1F9F003C
1F1C0000
1E000000
3E07FFF8
3F87FFF8
3F87FFF8
6F87C0F8
CF87C0F8
0F87FFF8
0F87FFF8
0F87FFF0
0F87C000
0F87C000
0F87FFFC
0F87FFFC
0F87FFFC
0F87C07C
0F87C07C
0F87FFFC
0F87FFFC
0E03FFF8
ENDCHAR
STARTCHAR 500D
ENCODING 20493
SWIDTH 990 0
DWIDTH 33 0
BBX 30 29 2 -2
BITMAP
00003800
0F007C00
1FC07C00
1FDFFFF8
1F9FFFF8
1F9FFFF8
1F000000
3F038380
3E07C3E0
3E07C3F0
7C07C3E0
780387C0
7F000780
FF3FFFFC
DF3FFFFC
1F3FFFFC
1F000000
1F0F8000
1F0FFFF0
1F0FFFF8
1F0FFFF8
1F0F80F8
1F0F80F8
1F0F80F8
1F0F80F8
1F0FFCF8
1F0FFDF0
1E07FDE0
180003C0
ENDCHAR
STARTCHAR 500F
ENCODING 20495
SWIDTH 990 0
DWIDTH 33 0
BBX 31 28 1 -1
BITMAP
0F00F000
0F80F000
0F80FFF8
0F80FFF8
0F81FFF8
1F01E1F8
1F79F3F0
1F7BBBF0
1E783FF0
3C781FFE
3F787FFE
7F7BFFFE
7F7FF9FC
DF780000
1F781F10
1F781F38
1F781F38
1F7BFFFE
1F7BFFFE
1F7BFFFE
1F781F00
1F783E00
1F703FFC
1F007FFE
1F00FC7E
1F01F83C
1E03E00C
00040000
ENDCHAR
STARTCHAR 5012
ENCODING 20498
SWIDTH 990 0
DWIDTH 33 0
BBX 30 27 2 -1
BITMAP
1E00007C
1F7FF07C
1F7FF07C
1F7FF07C
3F0F07FC
3E1F07FC
3E1E07FC
3C1E87FC
3C38E7FC
78FFF7FC
7EFFF7FC
FEFF77FC
FE7E67FC
3E7007FC
3E0F87FC
3E0F87FC
3E7FF7FC
3E7FF7FC
3E7FF7FC
3E0F87FC
3E0F87FC
3E0FF47C
3EFFE07C
3EFFC07C
3E7F03FC
3E7E03FC
383003F8
ENDCHAR
STARTCHAR 5014
ENCODING 20500
SWIDTH 990 0
DWIDTH 33 0
BBX 30 28 2 -2
BITMAP
1E000000
1FBFFFFC
1FBFFFFC
1FBFFFFC
1F3E007C
3F3E007C
3F3FFFFC
3E3FFFFC
3E3FFFF8
3C3E0000
783E0F80
7F3EEFBC
FF3EEFBC
DF3EEFBC
1F3EEFBC
1F3EFFFC
1F3EFFFC
1F3EFFFC
1F3E0FBC
1F3E0F80
1F3EEF9C
1F3EEF9C
1F3CEF9C
1F3CEF9C
1F78FFFC
1F78FFFC
1E60FFFC
18C0001C
ENDCHAR
STARTCHAR 5018
ENCODING 20504
SWIDTH 990 0
DWIDTH 33 0
BBX 31 28 1 -1
BITMAP
07003E00
0FE03E00
0FE73E38
0FCFBE3C
0FCFBE3C
0FCFBE38
0F873E60
1F003E00
1F1FFFFC
1E1FFFFE
3C1FFFFE
3F9F003E
7F9F003E
7F9F7F3E
8F9F7FBE
0F9F7FBE
0F9F73BE
0F9F73BE
0F9F73BE
0F9F73BE
0F9F73BE
0F9F7FBE
0F9F7FBE
0F9F3F3E
0F9F003E
0F9F03FE
0F9F03FE
0E1C01FC
ENDCHAR
STARTCHAR 5019
ENCODING 20505
SWIDTH 990 0
DWIDTH 33 0
BBX 31 28 1 -1
BITMAP
0F800000
0FC0FFE0
0FC0FFF0
0FC0FFF0
0F8001F0
1F8001F0
1FBC01F0
1F3DFFFE
1E3DFFFE
3E3DFFFE
3C3C6000
3F3CF800
7F3CFFFC
7F3CFFFC
9F3CFFFC
1F3CE7C0
1F3DC7C0
1F3C07C0
1F3DFFFE
1F3DFFFE
1F3DFFFE
1F3C0FE0
1F3C0FF0
1F381FF8
1F003E7E
1F007C7E
1E00F03C
1807C010
ENDCHAR
STARTCHAR 501A
ENCODING 20506
SWIDTH 990 0
DWIDTH 33 0
BBX 31 28 1 -2
BITMAP
07003F00
0FE03F00
0FE03F00
0FDFFFFC
0FDFFFFC
0FDFFFFC
1F80FC00
1F01FFFC
1F03F9FC
1E07E07C
3C0FC038
3F900000
7F9FFFFE
6F9FFFFE
8F9FFFFE
0F8001F0
0F8F39F0
0F8FFDF0
0F8FFDF0
0F8F3DF0
0F8F3DF0
0F8F3DF0
0F8FBDF0
0F8FBDF0
0F87B9F0
0F8073F0
0F8003F0
0E0003E0
ENDCHAR
STARTCHAR 501C
ENCODING 20508
SWIDTH 960 0
DWIDTH 32 0
BBX 30 28 1 -2
BITMAP
0E000000
0FBE0000
0FBFFFF8
0FBFFFFC
1FBFFFFC
1F3E007C
1F3E3C7C
1E3E7F7C
3E3E7F7C
3C3E7F7C
3C3E3C7C
7F3E3C7C
7F3E7F7C
7F3E7F7C
9F3E7F7C
1F3E007C
1F3E777C
1F3E7F7C
1F3E7F7C
1F3E777C
1F3E777C
1F3C7F7C
1F3C7F7C
1F3C7E7C
1F78067C
1F7801FC
1F7001FC
1CC001F8
ENDCHAR
STARTCHAR 501F
ENCODING 20511
SWIDTH 990 0
DWIDTH 33 0
BBX 31 29 1 -2
BITMAP
07000000
07E3E3E0
07E3E3E0
0FE3E3E0
0FCFFFFC
0FCFFFFC
0F8FFFFC
0F83E3E0
1F03E3E0
1E03E3E0
3E1FFFFE
3F9FFFFE
3F9FFFFE
6F800000
CF8F8000
0F8FFFF0
0F8FFFF8
0F8FFFF8
0F8F80F8
0F8F80F8
0F8FFFF8
0F8FFFF8
0F8FFFF8
0F8F80F8
0F8F80F8
0F8FFCF8
0F8FFCF0
0E07FDE0
00000300
ENDCHAR
STARTCHAR 5021
ENCODING 20513
SWIDTH 960 0
DWIDTH 32 0
BBX 29 28 2 -3
BITMAP
0F000000
0F8FFFF0
0F8FFFF8
0F8FFFF8
0F8F80F8
1F0FFFF8
1F0FFFF8
1E0FFFF8
3E0F80F8
3C0F80F8
7C0FFEF0
7F0FFFF0
FF07FFE0
DF000200
1F3E0000
1F3FFFF0
1F3FFFF8
1F3FFFF8
1F3E00F8
1F3E00F8
1F3FFFF8
1F3FFFF8
1F3FFFF8
1F3E00F8
1F3FFEF8
1F3FFEF0
1E1FFEF0
100001E0
ENDCHAR
STARTCHAR 5025
ENCODING 20517
SWIDTH 990 0
DWIDTH 33 0
BBX 30 29 2 -1
BITMAP
00003800
0F007C00
0FC07C00
0FFE7C00
1FBFFFFC
1FBFFFFC
1FBFFFFC
1F3E007C
3E3E0078
3E3D0C00
3C03C7C0
7C07E3F0
7F07C1F8
FF0F8070
DF1E0070
1F000000
1F1FFFF0
1F1FFFF0
1F1FFFF0
1F007C00
1F007C00
1F007C00
1F007C00
1F007C00
1F007C00
1F3FFFFC
1F3FFFFC
1E3FFFFC
10000000
ENDCHAR
STARTCHAR 5026
ENCODING 20518
SWIDTH 990 0
DWIDTH 33 0
BBX 31 27 1 -1
BITMAP
07803E00
0FE63E70
0FCF3E78
0FCF3E70
0FC67EE0
0F9FFFF8
0F9FFFF8
1F1FFFF8
1E00F800
3C3FFFFC
3FBFFFFC
3FBFFFFC
6F83E1F0
8F87C0FE
0F8FC0FC
0F9FFFFC
0FB7FFF8
0F87FFF0
0F87C1F0
0F87CFF0
0F87CFF0
0F87C7E0
0F87C000
0F87FFFC
0F87FFFC
0F87FFF8
0E03FFF8
ENDCHAR
STARTCHAR 5028
ENCODING 20520
SWIDTH 960 0
DWIDTH 32 0
BBX 30 30 1 -3
BITMAP
06000000
0FC00000
0FDFFFFC
0FDFFFFC
0FDFFFFC
0F9F007C
0F9F007C
1F1FFFFC
1F1FFFFC
1E1FFFF8
3C1F0000
3F9F07C0
3F9F07C0
7F9FFFFC
CF9FFFFC
0F9FFFFC
0F9F07C0
0F9F07C0
0F9F77F8
0F9F7FFC
0F9F7FFC
0F9E7FFC
0F9E7C7C
0F9E7C7C
0FBC7C7C
0FB87F7C
0FB87F7C
0F603F78
00000070
00000080
ENDCHAR
STARTCHAR 5029
ENCODING 20521
SWIDTH 990 0
DWIDTH 33 0
BBX 31 28 1 -2
BITMAP
07003E00
07E03E00
07EFFFFC
07CFFFFC
0FCFFFFC
0FC03E00
0F8FFFF8
0F8FFFF8
1F0FFFF8
1E003E00
1E1FFFFE
3F9FFFFE
3F9FFFFE
6F800000
8F8FFFE0
0F8FFFF8
0F8FFFF8
0F8F80F8
0F8FFFF8
0F8FFFF8
0F8FFFF8
0F8FFFF8
0F8FFFF8
0F8FFFF8
0F8F80F8
0F8F83F8
0F8F83F8
0E0E03F0
ENDCHAR
STARTCHAR 502A
ENCODING 20522
SWIDTH 960 0
DWIDTH 32 0
BBX 30 28 1 -1
BITMAP
07002000
07E07000
07E0F800
07EFFBF8
07CFF3FC
0FCF83FC
0F8F807C
0F8F807C
1F0FFBFC
1F0FFBFC
1E0FFBFC
3F8F807C
3F8F807C
6F8F807C
8F8FFFFC
0F8FFFFC
0F87FFF8
0F81F3E0
0F81F3E0
0F81F3E0
0F81F3E0
0F81F3E0
0F81F3E0
0F83E3E0
0F83E3FC
0F87C3FC
0F8783FC
0E1F01FC
ENDCHAR
STARTCHAR 502C
ENCODING 20524
SWIDTH 990 0
DWIDTH 33 0
BBX 31 28 1 0
BITMAP
07003E00
07C03E00
07E03FFC
07C03FFC
07C03FFC
0FC03E00
0F9FFFF8
0F9FFFFC
1F1FFFFC
1F1F007C
1E1F007C
3C1FFFFC
3F9FFFFC
6F9FFFFC
CF9F007C
0F9F007C
0F9FFFFC
0F9FFFFC
0F87FFF8
0F803E00
0FBFFFFE
0FBFFFFE
0FBFFFFE
0F803E00
0F803E00
0F803E00
0F003E00
0C003800
ENDCHAR
STARTCHAR 502D
ENCODING 20525
SWIDTH 960 0
DWIDTH 32 0
BBX 29 29 2 -3
BITMAP
00000180
0E0007C0
0FC0FFC0
0F9FFFC0
0F87FFC0
0F80FE00
1F007C00
1F3FFFF8
1F3FFFF8
3E3FFFF8
3C0F7DC0
7C1F7DF0
7F1E7DF8
7F3C7CF8
DF787070
1F000020
1F03E000
1F7FFFF8
1F7FFFF8
1F7FFFF8
1F0F87C0
1F1F8FC0
1F1FFFC0
1F0FFFF0
1F03FFF0
1F00FFF0
1F03FFF0
1F0FF8F0
1C7FE020
ENDCHAR
STARTCHAR 502E
ENCODING 20526
SWIDTH 960 0
DWIDTH 32 0
BBX 30 27 1 -1
BITMAP
07CF0000
07EFFFF8
07EFFFFC
07CFFFFC
0FCF3E3C
0F8F3E3C
0F8FFFFC
1F0FFFFC
1F0FFFFC
1E0F3E3C
3F8FFFFC
3F8FFFFC
6F87FFF8
8F803E00
0F803E00
0F9FFFFC
0F9FFFFC
0F9FFFFC
0F803E00
0F8FBEF8
0F8FBEF8
0F8FBEF8
0F8FBE78
0F8F3E78
0F8F3E78
0F9E3E3C
0F383C0C
ENDCHAR
STARTCHAR 503A
ENCODING 20538
SWIDTH 960 0
DWIDTH 32 0
BBX 29 28 2 -2
BITMAP
0C007C00
1F807C00
1FFFFFF0
1FFFFFF0
1FBFFFF0
1F807C00
3F1FFFF0
3F1FFFF0
3E1FFFF0
3C007C00
783FFFF8
7F3FFFF8
7F3FFFF8
FF000000
9F3E0000
1F3FFFF0
1F3FFFF0
1F3FFFF0
1F3E7DF0
1F3E7DF0
1F3E7DF0
1F3E7DC0
1F3CFC00
1F00FFF8
1F01FFF8
1F07F1F8
1F1FE078
1CFF0018
ENDCHAR
STARTCHAR 503C
ENCODING 20540
SWIDTH 960 0
DWIDTH 32 0
BBX 29 27 2 -2
BITMAP
0F007C00
1FC07C00
1FFFFFF8
1FBFFFF8
1FBFFFF8
1F807C00
3F007C00
3E1E7C00
3E1FFFF0
3C1FFFF0
781FFFF0
7F1F81F0
FF1FFFF0
DF1FFFF0
1F1FFFF0
1F1F81F0
1F1FFFF0
1F1FFFF0
1F1FFFF0
1F1F81F0
1F1FFFF0
1F1FFFF0
1F1FFFF0
1F1F81F0
1F3FFFF8
1F3FFFF8
1E3FFFF8
ENDCHAR
STARTCHAR 503E
ENCODING 20542
SWIDTH 960 0
DWIDTH 32 0
BBX 31 28 0 -1
BITMAP
0E000000
1F803FFE
1FBE3FFE
1F3E3FFE
1F3E01E0
1F3E01C0
1F3E39C0
1E3E3FFE
3E3E3FFE
3C3FB80E
3C3FB80E
7F3FBBEE
7F3E3BEE
9F3E3BEE
1F3E3BEE
1F3E3BEE
1F3E3BEE
1F3E3BEE
1F3E3BEE
1F3EBBEE
1F3FBBEC
1F7F07C0
1F7F07C0
1F7E0FFE
1F3C1FBE
1F303F1E
1E007C0E
1001E004
ENDCHAR
STARTCHAR 5043
ENCODING 20547
SWIDTH 990 0
DWIDTH 33 0
BBX 30 27 1 -2
BITMAP
0F000000
0FDFFFFC
0FDFFFFC
0F9FFFFC
0F9F0000
1F9F7FFC
1F1F7FFC
1E1F7FFC
3E1F7FFC
3C1F7C7C
3C1F7C7C
7F1F7FFC
7F1F3FF8
9F1F0F00
1F1F7FFC
1F1F7FFC
1F1F7FFC
1F1F3CF8
1F1F7CF8
1F1F7FF8
1F1F0FFC
1F1F0FFC
1F1F7F3C
1F1F0008
1F1FFFFC
1F1FFFFC
1E0FFFFC
ENDCHAR
STARTCHAR 5047
ENCODING 20551
SWIDTH 990 0
DWIDTH 33 0
BBX 31 28 1 -2
BITMAP
1C000000
1FBE0000
1FBFFFFC
1FBFFFFC
1FBFFFFC
1F3E787C
1F3E787C
3F3E787C
3E3E787C
3C3FFFFC
7C3FFFFC
7F3FF7F8
7F3E0000
DF3E07FC
1F3FF7FC
1F3FF7FC
1F3FF67C
1F3E067C
1F3E0778
1F3FF7F8
1F3FF3F8
1F3FF3F0
1F3E03F0
1F3E03F8
1F3E03FE
1F3E07FC
1F3E0F7C
1C381C30
ENDCHAR
STARTCHAR 5048
ENCODING 20552
SWIDTH 960 0
DWIDTH 32 0
BBX 29 28 2 -2
BITMAP
0C0F8000
0F0F8000
0FCFFFF0
1FCFFFF0
1F8FFFF0
1F8FFFF0
1F0FFFF0
1F0FFFF0
3E0FF9F0
3C0FF9F0
3807F9E0
7F0003E0
7F0F0780
FF0F0000
9F1FFFF8
1F1FFFF8
1F1FFFF8
1F3C30F8
1F383CF8
1F6F78F8
1F0F7AF8
1F0FF7F8
1F0FC7F8
1F0F00F8
1F0FF8F8
1F0FFFF8
1F07FFF8
1C0003F0
ENDCHAR
STARTCHAR 504C
ENCODING 20556
SWIDTH 960 0
DWIDTH 32 0
BBX 29 27 2 -1
BITMAP
0F87C3E0
0FC7C3E0
0FFFFFF8
1FBFFFF8
1FBFFFF8
1F07C3E0
1F07C3E0
3E0703C0
3C01E000
3C01F000
7F01F000
7F3FFFF8
FF3FFFF8
9F3FFFF8
1F07C000
1F07C000
1F0FFFF0
1F0FFFF8
1F1FFFF8
1F3FC0F8
1F7FC0F8
1FF7C0F8
1F07C0F8
1F07C0F8
1F07FCF8
1F07FCF0
1E03FDE0
ENDCHAR
STARTCHAR 504E
ENCODING 20558
SWIDTH 990 0
DWIDTH 33 0
BBX 30 27 2 -1
BITMAP
0F9FFFF8
0FDFFFF8
0FDFFFF8
1F9F3CF8
1F9F3CF8
1F1FFFF8
1F1FFFF8
3E1FFFF8
3C1F3CF8
3C1F3CF8
7F1FFFF8
7F1FFFF8
FF03FFE0
9F000000
1F3FFFFC
1F3FFFFC
1F3FFFFC
1F07CE30
1F07C738
1F07C7FC
1F07C7F8
1F07C3E0
1F07FBF0
1F3FF3F8
1F3FE1FC
1F1F80F8
1C1E0070
ENDCHAR
STARTCHAR 504F
ENCODING 20559
SWIDTH 990 0
DWIDTH 33 0
BBX 30 28 2 -1
BITMAP
0E003C00
1FC07C00
1FC07C00
1FC07C00
1FBFFFF8
1FBFFFF8
1F3FFFF8
3F3E00F8
3E3E00F8
3C3E00F8
7C3FFFF8
7F3FFFF8
7F3FFFF0
FF3E0000
9F3FFFF8
1F3FFFFC
1F3FFFFC
1F3FEDBC
1F3FEDBC
1F3FFFFC
1F3FFFFC
1F3FFFFC
1F3FEDBC
1F3DEDBC
1F3DEDBC
1F79EDBC
1F71E8FC
1C61C0FC
ENDCHAR
STARTCHAR 5055
ENCODING 20565
SWIDTH 990 0
DWIDTH 33 0
BBX 29 29 2 -3
BITMAP
0F000000
0FDF0F80
0FDF0FB0
0FDFEFB8
1F9FEFF8
1F9FEFF8
1F1F0FE0
3F1F0F80
3E1F2FF8
3C7FEFF8
7C7FCFF8
7F3F07F0
FF3C7800
9F007C00
1F1E7800
1F1E7FE0
1F1FFFF0
1F1FFFF0
1F1F01F0
1F1F01F0
1F1FFFF0
1F1FFFF0
1F1FFFF0
1F1F01F0
1F1FFDF0
1F1FFDE0
1E0FFFE0
00000380
00000400
ENDCHAR
STARTCHAR 505A
ENCODING 20570
SWIDTH 960 0
DWIDTH 32 0
BBX 30 28 1 -2
BITMAP
1C000000
1F1F0F80
1F1F0F80
1F1F0F80
3F1F0F80
3E1F0FFC
3E1F0FFC
3EFFEFFC
3CFFEF7C
7CFFEE7C
781F1E7C
7E1F1E7C
7E1F1E7C
FE1F167C
3EFFC6F8
3EFFE7F8
3EFFE7F8
3EF1E7F8
3EF1E3F0
3EF1E3F0
3EF1E3F0
3EF1E3E0
3EF1E3F0
3EF9E7F8
3EF9E7FC
3E79CFFC
3E01DE78
38033870
ENDCHAR
STARTCHAR 505C
ENCODING 20572
SWIDTH 990 0
DWIDTH 33 0
BBX 31 29 1 -1
BITMAP
00000C00
0F003E00
0FE03E00
0FFFFFFC
0FDFFFFC
0FDFFFFC
0F800000
1F8FFFF8
1F0FFFF8
1F0FFFF8
3E0F80F8
3C0FFFF8
3F8FFFF8
7F83FFE0
6F9FFFFC
8F9FFFFE
0F9FFFFE
0F9F003E
0F9E0038
0F800000
0F8FFFF8
0F8FFFF8
0F8FFFF8
0F803E00
0F803E00
0F813E00
0F81FE00
0F81FE00
0C007C00
ENDCHAR
STARTCHAR 5065
ENCODING 20581
SWIDTH 990 0
DWIDTH 33 0
BBX 30 28 2 -2
BITMAP
18000F80
3F000F80
3FFE7FF8
3FFF7FF8
3EFE7FF8
3E3E0F38
3E3EFFFC
7C3EFFFC
7C3EFFFC
787C0F38
787C7FF8
FE7C7FF8
FE7C7FF0
FEFF0F80
3E7F7FF8
3E1F7FF8
3E1F7FF8
3E1F0F80
3E7FFFF8
3EFFFFF8
3EFEFFF8
3E7E0F80
3E3E0F00
3E3F0000
3E7FFFFC
3E7FFFFC
3EF3FFF8
39C1FFF8
ENDCHAR
STARTCHAR 506C
ENCODING 20588
SWIDTH 960 0
DWIDTH 32 0
BBX 30 28 1 -2
BITMAP
0E1E0000
0FDF8000
0FDF0000
0FDFFFF8
0F9FFFF8
0F9FFFF8
1F1C00F8
1F19DCF8
1E33DEF8
3E0FDCF8
3C07FCF8
3F0FFEF8
7F0E7EF8
7F18FCF8
9F01FDF8
1F03E9F8
1F0781F8
1F000000
1F000600
1F39FF38
1F3DFF78
1F3DF678
1F3DF038
1F3DF038
1F39FFD8
1F31FF8C
1F61FF80
1E00FF80
ENDCHAR
STARTCHAR 5076
ENCODING 20598
SWIDTH 990 0
DWIDTH 33 0
BBX 30 28 2 -2
BITMAP
06000000
0F1E0000
0FDFFFF8
0F9FFFF8
0F9FFFF8
0F9E7C78
1F1FFFF8
1F1FFFF8
1E1FFFF8
3E1E7C78
3C1E7C78
3F1FFFF8
7F1FFFF8
FF0FFFF0
DF007C00
1F3FFFF8
1F3FFFFC
1F3FFFFC
1F3E3C7C
1F3E3F7C
1F3E3FFC
1F3FFFFC
1F3FFFFC
1F3EFDFC
1F3EF1FC
1F3E00FC
1F3E00FC
1C3800F8
ENDCHAR
STARTCHAR 5077
ENCODING 20599
SWIDTH 1020 0
DWIDTH 34 0
BBX 32 29 1 -2
BITMAP
00003000
07803C00
07E07F00
07E07E00
07E0FC00
07C1FF00
0FC1FFE0
0F83F3FC
0F87E1FF
1F0FFFFE
1F1FFFFC
1E21FFD8
3F800000
3F9FFC3E
7F9FFC3E
CF9FFFBE
0F9F7FBE
0F9F7FBE
0F9FFFBE
0F9FFFBE
0F9FFFBE
0F9F7FBE
0F9FFFBE
0F9FFFBE
0F9FFE3E
0F9F7C3E
0F9FFCFE
0F9FFCFE
0E1EF87C
ENDCHAR
STARTCHAR 507B
ENCODING 20603
SWIDTH 960 0
DWIDTH 32 0
BBX 29 28 2 -2
BITMAP
0E000000
0F003E00
0FC63E60
0F8F3EF0
1F8F3EF0
1F863EE0
1F3FFFF8
1F3FFFF8
3E3FFFF8
3C07BFC0
3C0FBEF0
7F0FBEF8
7F1F3EF0
FF1E3C60
9F303000
1F000000
1F03F000
1F3FFFF8
1F3FFFF8
1F3FFFF8
1F0FC3E0
1F0FC7E0
1F0FFFC0
1F07FFF8
1F007FF8
1F07FFF8
1F7FF878
1C0FE030
ENDCHAR
STARTCHAR 507E
ENCODING 20606
SWIDTH 990 0
DWIDTH 33 0
BBX 31 28 1 -2
BITMAP
07003E00
0FC03E00
0FFFFFFC
0FFFFFFC
0FDFFFFC
0FC03C00
1F83E3E0
1F83E3E0
1F1FFFFE
1E1FFFFE
3C1FFFFE
3F83E3E0
7F83C3C0
7F800000
8F9FFFF8
0F9FFFFC
0F9FFFFC
0F9F007C
0F9F3E7C
0F9F3E7C
0F9F3E7C
0F9F3E60
0F9C7C00
0F80FFFC
0F81FBFE
0F83F8FE
0F8FE03E
0E1F801C
ENDCHAR
STARTCHAR 507F
ENCODING 20607
SWIDTH 990 0
DWIDTH 33 0
BBX 30 28 2 -1
BITMAP
1F1C7C70
1FFE7C78
1FFE7C7C
1FBE7CF8
1F9C7DE0
3F7FFFF0
3F7FFFFC
3E7FFFFC
3E7C007C
7C7C007C
78700078
7F0FFFE0
FF0FFFE0
9F0FFFE0
1F000000
1F000000
1F3FFFFC
1F3FFFFC
1F3FFFFC
1F01F000
1F03F100
1F07E1C0
1F07C0F0
1F3FFFF8
1F3FFF7C
1F3FF878
1E1FC038
180C0020
ENDCHAR
STARTCHAR 5080
ENCODING 20608
SWIDTH 990 0
DWIDTH 33 0
BBX 31 29 1 0
BITMAP
00001800
07001C00
07E01E00
07E03E00
07DF3C00
07DFFFFC
0FDFFFFC
0F9FFFFC
0F9F3E7C
1F1F3E7C
1F1FFFFC
1E1FFFFC
3F9FFFFC
3F9F3E7C
6F9F3E7C
8F9FFFFC
0F9FFFFC
0F8FFFF8
0F807E00
0F807C38
0F807FB8
0F80FFB4
0F80FFFE
0F81FFF6
0F83FFA4
0F83EFFE
0F87CFFE
0F8F0FFE
0E3807FC
ENDCHAR
STARTCHAR 5085
ENCODING 20613
SWIDTH 990 0
DWIDTH 33 0
BBX 31 28 1 -1
BITMAP
0F803E78
0FE03E78
0FDFFFFE
0FDFFFFE
0FDFFFFE
0F803E00
1F9FFFF0
1F1FFFFC
1F1FFFFC
1E1F3E7C
3C1FFFFC
3F9FFFFC
7F9F3E7C
6F9FFFFC
8F9FFFFC
0F9FFFFC
0F9F3E7C
0F9E3040
0F8001F0
0F9FFFFE
0F9FFFFE
0F9FFFFE
0F8001F0
0F8301F0
0F8781F0
0F8787F0
0F0307F0
0C0003E0
ENDCHAR
STARTCHAR 5088
ENCODING 20616
SWIDTH 960 0
DWIDTH 32 0
BBX 30 28 2 -2
BITMAP
0E000000
1FBFFFF8
1FBFFFF8
1FBFFFF8
1F81E780
1F3DE780
3F3FFFFC
3E3FFFFC
3E3FFFFC
3C3EE77C
783EE77C
7F3EE77C
FF3FFFFC
DF3FFFFC
1F1FFFF8
1F000000
1F007C00
1F3FFFF8
1F3FFFF8
1F3FFFF8
1F007C00
1F1C7C60
1F1F7DF0
1F1F7CF0
1F3E7CF0
1F3E7C70
1E787C38
18006000
ENDCHAR
STARTCHAR 508D
ENCODING 20621
SWIDTH 990 0
DWIDTH 33 0
BBX 30 30 2 -1
BITMAP
00001C00
00003E00
0F803E00
0FDFFFF8
0FDFFFF8
1FDFFFF8
1F800000
1F838180
1F07C1C0
3F07C3E0
3E07C3C0
3C1FFFFC
781FFFFC
7F1FFFFC
FF1F007C
9F1E7E78
1F007E00
1F1FFFFC
1F1FFFFC
1F1FFFFC
1F07C000
1F07FFE0
1F07FFF0
1F07FFF0
1F07C1F0
1F07C1F0
1F0F87F0
1F0F87F0
1E1E07F0
00200000
ENDCHAR
STARTCHAR 5091
ENCODING 20625
SWIDTH 990 0
DWIDTH 33 0
BBX 31 28 1 -1
BITMAP
0F8F00F8
0FEF00F8
0FEFFFFE
0FCFFFFE
0FCFFFFE
0F9E78F8
1F9C7EF8
1F18FEF8
1F27FEF8
3E07F7FC
3C07F7FC
3F83E3FC
7F87E0F8
4F87C0F8
8F8F80F8
0FBC3EE0
0F803E00
0F9FFFFE
0F9FFFFE
0F9FFFFE
0F803E00
0F87BE78
0F87BEF8
0F8FBEF8
0F8FBE78
0F8F3E3C
0FBC3E1E
0C003800
ENDCHAR
STARTCHAR 50A3
ENCODING 20643
SWIDTH 990 0
DWIDTH 33 0
BBX 31 28 1 -2
BITMAP
02003E00
07C03E00
07E03E00
07EFFFFC
07CFFFFC
0FCFFFFC
0F803E00
0F8FFFF8
1F0FFFF8
1F0FFFF8
1E00F800
3F9FFFFC
3F9FFFFC
6F9FFFFC
CF83E1E0
0F87C1FC
0F8780FE
0F9F3E7C
0F863E3C
0F8F3E78
0F8FBEF8
0F803E00
0F81BEC0
0F8F3E78
0FBFBE7E
0F9EFE3C
0F9CFE1C
0E087C00
ENDCHAR
STARTCHAR 50A5
ENCODING 20645
SWIDTH 990 0
DWIDTH 33 0
BBX 30 29 2 -2
BITMAP
0C007C00
1F8C7C60
1F9E7CF8
1F9E7CF0
1F8C7CF0
1F807DC0
1F7FFFF8
3F7FFFFC
3E7FFFFC
3E7C007C
7C7C007C
787FFFFC
7F7FFFF0
FF1FFFF0
9F1F01F0
1F1F01F0
1F1F01F0
1F1FFFF0
1F1FFFF0
1F0FFFE0
1F03E7C0
1F03E7C0
1F03E7C0
1F07E7C0
1F07C7FC
1F0FC7FC
1F1F87F8
1E3E03F8
00400000
ENDCHAR
STARTCHAR 50A7
ENCODING 20647
SWIDTH 990 0
DWIDTH 33 0
BBX 31 30 1 -2
BITMAP
00000E00
00001F00
07801F00
0FE01F00
0FFFFFFC
0FDFFFFE
0FDFFFFE
0FDF003E
1F9F0030
1F1E0020
1F1000F0
1E07DFF0
3C07FFF0
3F87C000
7F87C000
6F87C000
8F87FFF8
0F87FFF8
0F87FFF8
0F87C3E0
0F87C3E0
0F87C3E0
0F9FFFFE
0F9FFFFE
0F9FFFFE
0F800000
0F83C060
0F83E0F0
0F07C0F0
0C0F8060
ENDCHAR
STARTCHAR 50A8
ENCODING 20648
SWIDTH 990 0
DWIDTH 33 0
BBX 30 28 2 -3
BITMAP
0F1C1F00
1FBE1F00
1FBE1F00
1F3E7FC0
1F1C7FF8
1F007FFC
3E001F78
3E001FF8
3CFE1FF0
3CFEFFF8
78FEFFF8
7E3EFFF8
FE3E1F00
BE3E3F00
3E3E7FF0
3E3EFFF8
3E3FFFF8
3E3E7CF8
3E3E7CF8
3E3E7FF8
3E3EFFF8
3E3F7FF8
3E7F7CF8
3E7E7CF8
3E7E7FF8
3E3C7FF0
3C303FE0
000000C0
ENDCHAR
STARTCHAR 50A9
ENCODING 20649
SWIDTH 990 0
DWIDTH 33 0
BBX 31 28 1 -2
BITMAP
1C003800
1F003EF8
1F003CF8
1EFE7CF8
1EFE7CF8
1EFE7FFE
1E3E7BFE
3C3E7BFE
3C3EF0F8
3C3EF0F8
7E3EF8F8
7EBFFBFE
7EFDFBFE
FE7E7BFE
3E7C78F8
3E7C78F8
3E7C78F8
3E7C7BFE
3E7E7BFE
3E7F7BFE
3E7F78F8
3EFFF8F8
3EFF78F8
3ECE78F8
3ECC7BFE
3F807BFE
3D007BFE
20004000
ENDCHAR
STARTCHAR 50AC
ENCODING 20652
SWIDTH 990 0
DWIDTH 33 0
BBX 30 28 2 -2
BITMAP
0F003E00
0FDF3E7C
1F9F3E7C
1F9F3E7C
1F9F3E7C
1F1FFFFC
1F1FFFFC
3E0FFFFC
3E06007C
3C0F07C0
7C0F87C0
7F0FFFFC
FF1F7FFC
DF1F7FFC
1F3E07C0
1F7F07C0
1F7F7FFC
1FFF7FFC
1F1F7FFC
1F1F07C0
1F1F7FFC
1F1F7FFC
1F1F7FFC
1F1F07C0
1F1F7FFC
1F1F7FFC
1E1E7FFC
00180000
ENDCHAR
STARTCHAR 50B2
ENCODING 20658
SWIDTH 960 0
DWIDTH 32 0
BBX 30 28 1 -1
BITMAP
3C1F0780
3F1F0F80
3F1F0F80
3FFFFF80
3EFFFF80
3EFFFFFC
3E1F0FFC
3C1F0FFC
7C7FEF78
7C7FEF78
787FEE78
7E1F0E78
FEFFEF78
FEFFEB78
3EFFF370
3E7C03F0
3E7C03F0
3E7FE3F0
3E7FF3F0
3E7FF1E0
3E7DF1E0
3E7DF1F0
3E79F1F8
3E79F3FC
3EF9F7FC
3EF7F778
3EE7FE78
3981EC00
ENDCHAR
STARTCHAR 50BA
ENCODING 20666
SWIDTH 990 0
DWIDTH 33 0
BBX 32 27 0 0
BITMAP
07C78200
07E78200
07E7FBFE
07EFFBFE
0FCFFBFE
0FCE799E
0F9D79FC
0FB3F9FC
1F03F0F8
1E0FF0F8
3F8FE0FF
3F87FFFE
7F8FFFFC
8FBEFFF8
0F800000
0F800000
0F800000
0F8FFFFE
0F8FFFFE
0F8FFFFE
0F801F00
0F871F1C
0F8F9F3E
0F8F5F3E
0F9E7F1C
0F987F00
0E003E00
ENDCHAR
STARTCHAR 50BB
ENCODING 20667
SWIDTH 990 0
DWIDTH 33 0
BBX 29 29 2 -1
BITMAP
00004000
00007800
0F807800
0FBE7800
0FBFFFF0
0FBFFFF8
1FBFFFF8
1F3E1EF8
1F3FFEF8
3E3E7CF8
3E3EFEF8
3C3FCEF8
783FFFF8
7F3FFFF8
FF0FFFF0
9F0F8FE0
1F1FC3F8
1F3F80F8
1F7F8078
1F0FFFE0
1F0FFFE0
1F1FFFE0
1F1F07E0
1F3BCFC0
1F03FFC0
1F01FFF8
1F03FFF8
1F7FFFF8
180FC7F0
ENDCHAR
STARTCHAR 50CF
ENCODING 20687
SWIDTH 990 0
DWIDTH 33 0
BBX 31 28 1 0
BITMAP
07070000
07CFC180
07CF81E0
07CFFFF0
07DFFFE0
0F9FFFC0
0FBC0780
0F3FFFF8
1F1FFFFC
1E1FFFFC
1E1F3E7C
3F9F3E7C
3F9FFFFC
6F9FFFFC
8F83FFF0
0F83FC10
0F9FFE38
0FAF1F7E
0F819F78
0F87DFE0
0FBFDF60
0F861F70
0F819F78
0F83DF7E
0F8FDF3E
0F9F7F3C
0F807F10
0E007E00
ENDCHAR
STARTCHAR 50D6
ENCODING 20694
SWIDTH 990 0
DWIDTH 33 0
BBX 31 29 1 -2
BITMAP
04003E00
0F803E00
0FDFFFFE
0FDFFFFE
0F9FFFFE
0F803E00
1F8FFFF8
1F0FFFF8
1F0F8000
1E0FFFF0
3C0FFFF8
3C0FFFF8
7F8FFFF8
6F8FFFF8
8F8FFFF0
0F83C1E0
0F83C1E0
0F9FFFFE
0F9FFFFE
0F9FFFFE
0F800000
0F8FFFF0
0F8FFFF8
0F8FFFF8
0F8F80F8
0F8FFEF8
0F8FFEF8
0E07FEF0
000001C0
ENDCHAR
STARTCHAR 50DA
ENCODING 20698
SWIDTH 990 0
DWIDTH 33 0
BBX 31 28 1 -2
BITMAP
0E007C00
0F807C00
0F9FFFFC
0F9FFFFC
0F9FFFFC
1F00FC20
1F0CFE38
1F1FF77C
1E1FE3F0
3E0FC1FE
3C0FC1FC
7F3FFFFC
7F4FFFF8
7F0FFFF0
9F0F81F0
1F0FFFF0
1F0FFFF0
1F0FFFF0
1F0F81F0
1F0FFFF0
1F0FFFF0
1F01FFC0
1F3C7C70
1F3E7CF8
1F3C7CF8
1F3CFCF8
1F79FC70
1C00F800
ENDCHAR
STARTCHAR 50E6
ENCODING 20710
SWIDTH 960 0
DWIDTH 32 0
BBX 30 28 1 -2
BITMAP
00070000
1E0F8000
1F0F83E0
1F0F83E0
1FFFF3FC
1EFFF3FC
1EFFF3FC
3E0003E0
3CF803E0
3CFFEFFC
38FFFFFC
7EFFFFFC
7EF9F3E0
7EF9F3E0
FEF9F3E0
3EFFF3F8
3EFFF3F8
3E7FE3F8
3E0F83F8
3EFFB7F8
3EFFFFF8
3EFFFFF8
3EEFB7F8
3EEF8778
3F8F8F7C
3E3F8E7C
3E3F8C7C
383F1878
ENDCHAR
STARTCHAR 50E7
ENCODING 20711
SWIDTH 990 0
DWIDTH 33 0
BBX 30 29 2 -2
BITMAP
0E01C1C0
0F83E1E0
0FC3E3E0
0F83C3C0
1FBFFFF8
1FBFFFFC
1F3FFFFC
1F3E3D7C
3E3FFDFC
3C3FFFFC
3C3FFFFC
7F3EBF7C
7F3E3C7C
FF3FFFFC
DF3FFFFC
1F1FFFF8
1F1F0000
1F1FFFE0
1F1FFFF8
1F1FFFF8
1F1F00F8
1F1FFFF8
1F1FFFF8
1F1FFFF8
1F1F00F8
1F1FFCF8
1F1FFCF0
1E0FFDF0
000001C0
ENDCHAR
STARTCHAR 50EC
ENCODING 20716
SWIDTH 990 0
DWIDTH 33 0
BBX 31 28 1 -3
BITMAP
07830000
07E7C3E0
07E7C3E0
07E7FFFE
07CFBFFE
0FCFBFFE
0FCF83E0
0F9F03E0
1F1FBFFE
1F3FBFFE
1E3FBFFE
3F8F83E0
3F8F83E0
6F8FBFFE
8F8FBFFE
0F8FBFFE
0F8F83E0
0F8F83E0
0F8FBFFE
0F8FBFFE
0F8F3FFE
0F800000
0F8E0000
0F8F318C
0F8F7BDE
0F9F7BDE
0F1E318C
0C3C0000
ENDCHAR
STARTCHAR 50ED
ENCODING 20717
SWIDTH 1020 0
DWIDTH 34 0
BBX 32 28 1 -3
BITMAP
1E000000
1FFFF7FE
1FBFF7FE
1FBFF7FE
1FBBC7F0
1FBBC7F0
3F3FF7FE
3F3FF7FE
3E03C0F0
3E07F0FC
3C07F1FC
7F8FF3FF
7F9EFBBE
CFF00E1E
0F87C000
0F87FFF8
0F87FFFC
0F87FFFC
0F87C07C
0F87FFFC
0F87FFFC
0F87FFFC
0F87C07C
0F87C07C
0F87FF7C
0F87FF78
0F03FFF8
000000E0
ENDCHAR
STARTCHAR 50EE
ENCODING 20718
SWIDTH 990 0
DWIDTH 33 0
BBX 31 29 1 -1
BITMAP
00001C00
07803E00
07E03E00
07EFFFFC
07EFFFFC
07CFFFFC
0FC1E1E0
0F81E1E0
0F9FFFFE
0F1FFFFE
1F1FFFFE
1E000000
3F8FFFF8
3F8FFFF8
7F8FFFF8
CF8F3E78
0F8FFFF8
0F8FFFF8
0F8F3E78
0F8FFFF8
0F8FFFF8
0F81FFE0
0F8FFFFC
0F8FFFFC
0F8FFFFC
0F803E00
0F9FFFFE
0F9FFFFE
0E1FFFFE
ENDCHAR
STARTCHAR 50F3
ENCODING 20723
SWIDTH 990 0
DWIDTH 33 0
BBX 30 28 2 -1
BITMAP
1F000000
1FFFFFF8
1FFFFFF8
1FBFFFF8
1F81EF00
1F3FFFF0
3F3FFFF8
3E3FFFF8
3E3EEEF8
7C3EEEF8
783EEEF8
7F3FFFF8
FF3FFFF8
DF1FFFF0
9F000000
1F0C7CE0
1F1E7CF0
1F1E7CF0
1F0C7DE0
1F3FFFFC
1F3FFFFC
1F3FFFFC
1F1F7DC0
1F1F7DF0
1F1E7CFC
1F3E7CF8
1E787878
10006000
ENDCHAR
STARTCHAR 50F5
ENCODING 20725
SWIDTH 990 0
DWIDTH 33 0
BBX 31 28 1 -2
BITMAP
0F000000
0FFFFFFC
0FDFFFFC
0FDFFFFC
0FCFFFF0
1F8FFFFC
1F8FFFFC
1F0F8E7C
1F0FFFFC
3E0F8E7C
3E0FFFFC
3C0FFFFC
7F83FFF0
7F9FFFFE
CF9FFFFE
0F9FFFFE
0F8FFFF0
0F8FFFFC
0F8FFFFC
0F8F8E7C
0F8FFFFC
0F8F8E7C
0F8FFFFC
0F87FFF8
0F800000
0F9FFFFE
0F9FFFFE
0F1FFFFE
ENDCHAR
STARTCHAR 50FB
ENCODING 20731
SWIDTH 990 0
DWIDTH 33 0
BBX 31 29 1 -2
BITMAP
000000E0
380001F0
3F0001F0
3F7FC1F0
3F7FE7FE
3F7FE7FE
3E7DE7FE
3E7DE000
3E7DE318
7C7DE7BE
787DE7BC
787FE338
7E7FE070
7E7FC7FE
FE7807FE
BE7807FE
3E7FF1F0
3E7FF1F0
3E7FF1F0
3E7EF1F0
3E7EF7FC
3EFEF7FC
3EFEF7FC
3E9EF1F0
3E1EF1F0
3E1EF1F0
3E1EE1F0
3E0EE1F0
380181C0
ENDCHAR
ENDFONT
